<svg width="128" height="128" viewBox="0 0 128 128" fill="none" xmlns="http://www.w3.org/2000/svg">
<rect width="128" height="128" rx="33.7778" fill="#ECF7F3"/>
<g clip-path="url(#clip0_148_2902)">
<path d="M34.1538 78.1637C33.5855 78.4369 33.0139 78.6814 32.4444 78.9C31.4033 79.2998 30.2282 79.1168 29.3579 78.4194C28.4877 77.7219 28.0531 76.615 28.2164 75.5117C28.4343 74.0403 28.2886 72.5378 27.7922 71.1356L27.7805 71.1021C27.2179 69.4539 26.4629 68.4671 25.4489 67.3117C25.3156 67.1598 25.1744 67.0017 25.0267 66.8366C24.0332 65.7249 22.7506 64.2897 21.6541 62.2279L21.6539 62.2275C19.6692 58.4944 19.0669 54.2559 20.2979 50.2831C21.5395 46.2758 24.5374 42.89 29.0832 40.7054C29.6517 40.4321 30.2233 40.1877 30.7928 39.969C31.5473 39.6793 32.3722 39.6957 33.1005 39.9922M34.1538 78.1637C34.1537 78.1638 34.1537 78.1638 34.1536 78.1639L33.2362 76.255M34.1538 78.1637L33.2363 76.255M34.1538 78.1637C37.6083 76.5036 40.1692 74.1498 41.7448 71.3566M33.2362 76.255L33.2363 76.255M33.2362 76.255L31.3198 75.9712L33.2363 76.255M33.2362 76.255L32.7947 75.3362L33.2363 76.255M33.2363 76.255L34.4233 76.4307C34.5259 75.7373 34.5808 75.0399 34.5883 74.3431M33.2363 76.255L34.5883 74.3431M41.7448 71.3566V81.6553C41.7448 82.4872 42.0752 83.2851 42.6634 83.8734L61.1366 102.351C61.725 102.939 62.523 103.27 63.3551 103.27C64.1872 103.27 64.9852 102.939 65.5736 102.351L84.143 83.7818C84.7313 83.1934 85.0618 82.3954 85.0618 81.5634V68.6121M41.7448 71.3566C42.2425 70.4743 42.6418 69.5482 42.9399 68.5862C42.9511 68.5501 42.9622 68.514 42.9731 68.4778M41.7448 71.3566L42.9731 68.4778M85.0618 68.6121C86.307 72.6046 89.2978 75.9794 93.8278 78.1614C94.3998 78.4375 94.9745 78.6819 95.5357 78.8983C96.5766 79.2997 97.7523 79.1181 98.6236 78.4215C99.4949 77.7249 99.9307 76.618 99.7682 75.5143C99.5516 74.0422 99.6983 72.5395 100.196 71.1372L100.207 71.105C100.771 69.4574 101.527 68.4711 102.542 67.316C102.675 67.1646 102.816 67.0071 102.963 66.8425C103.958 65.7309 105.242 64.296 106.34 62.2331C108.328 58.5022 108.933 54.2645 107.705 50.2911C106.467 46.2835 103.472 42.8956 98.9284 40.7074C98.4921 40.4964 98.0591 40.3089 97.6429 40.1401C97.6324 40.1336 97.6217 40.127 97.6108 40.1204L97.5963 40.1116C95.1479 38.6337 92.3911 37.7761 89.5637 37.5935C90.0635 37.4479 90.5263 37.1782 90.9049 36.7997L91.0448 36.6597C92.0555 35.649 92.2552 34.0828 91.5305 32.8508C91.4828 32.7696 91.4357 32.6953 91.392 32.6295C90.1801 30.6968 88.5905 29.0284 86.7181 27.7245C84.8296 26.4093 82.6931 25.4925 80.4388 25.0298C78.1845 24.5672 75.8596 24.5684 73.6057 25.0334C71.3519 25.4984 69.2164 26.4175 67.3293 27.7346C66.2843 28.4639 64.75 30.0165 63.6429 31.175C63.0273 30.5243 62.344 29.8227 61.6959 29.2023C61.08 28.613 60.3416 27.946 59.6713 27.5063L57.9604 30.1147L59.6713 27.5063C57.6745 26.1966 55.4276 25.3157 53.0727 24.9192C50.7178 24.5228 48.3063 24.6195 45.9908 25.2032L45.9859 25.2045C44.0586 25.6936 42.2306 26.513 40.583 27.6262L40.583 27.6262L40.5745 27.632C39.7635 28.1838 39.0005 28.803 38.2934 29.4829C37.2965 30.4338 36.4206 31.5038 35.6855 32.669C34.275 34.8803 33.3907 37.3856 33.1005 39.9922M85.0618 68.6121C85.0583 68.6007 85.0547 68.5893 85.0512 68.5778C84.7843 67.7145 84.6041 66.8387 84.5057 65.9584C84.435 65.3255 84.4066 64.6902 84.4188 64.0554M85.0618 68.6121V65.9584C85.0618 65.2556 84.8273 64.591 84.4188 64.0554M33.1005 39.9922C33.1246 40.002 33.1487 40.0121 33.1726 40.0226C33.1876 40.0291 33.2025 40.0358 33.2174 40.0426C33.4512 40.149 33.6737 40.285 33.8792 40.4497C34.3573 40.8328 34.7039 41.3395 34.8921 41.9013L41.5829 56.6408C40.4864 54.5792 39.2038 53.1441 38.2104 52.0325C38.0628 51.8673 37.9215 51.7093 37.7882 51.5574C36.7742 50.402 36.0193 49.4151 35.4566 47.767L35.445 47.7334C34.9485 46.3312 34.8029 44.8288 35.0207 43.3573C35.0942 42.861 35.0467 42.3639 34.8929 41.9036L32.9998 41.9072C32.9998 41.9062 32.9998 41.9052 32.9998 41.9042C32.9987 41.2782 33.031 40.6525 33.0964 40.0299L33.098 40.0144C33.0988 40.007 33.0997 39.9996 33.1005 39.9922ZM34.5883 74.3431C40.7605 70.4183 41.8409 63.8057 38.8132 58.1143C37.9061 56.4088 36.8817 55.2587 35.8891 54.1444C34.5887 52.6846 33.343 51.2862 32.4876 48.7805L34.5883 74.3431ZM86.2639 56.9283C85.6001 57.5088 84.8064 58.2794 83.9542 59.2445C83.9113 59.293 83.8669 59.3403 83.8211 59.3861L65.7427 77.4666C65.1543 78.055 64.3564 78.3856 63.5243 78.3856C62.6923 78.3857 61.8943 78.0552 61.3059 77.4669L42.5058 58.6687C43.0568 60.1146 43.4053 61.6116 43.5284 63.1198C43.5786 63.0958 43.6296 63.0731 43.6815 63.0516C44.8538 62.566 46.2032 62.8344 47.1004 63.7317L63.3627 79.994C63.0769 80.2779 62.8144 80.5387 62.5778 80.7737L61.5211 81.8233L61.241 82.1015L61.169 82.173L61.1508 82.1911L61.1462 82.1957L61.145 82.1968L61.1447 82.1971C61.1447 82.1971 61.1446 82.1972 63.3553 84.4233L48.0193 69.0873V65.95H44.882L43.1994 67.6327C43.3304 67.075 43.4267 66.5135 43.4894 65.95L86.2639 56.9283ZM86.2639 56.9283C85.1135 59.1842 84.4659 61.6155 84.4188 64.0554M42.9731 68.4778L44.882 70.3868V81.6553L61.1371 97.9141L61.1369 97.9143L63.3553 100.133L65.5739 97.9146L65.5736 97.9143L81.9246 81.5634V70.3864L83.0835 69.232C83.0841 69.2314 83.0846 69.2309 83.0851 69.2304C83.0853 69.2302 83.0855 69.23 83.0857 69.2299C83.3103 69.0065 83.4642 68.853 83.6159 68.7017C83.7684 68.5496 83.9186 68.3998 84.1363 68.1834L81.9246 65.9584H79.8292H79.8272H78.7873V68.1103L77.0605 66.3753L78.6578 64.7843L78.6599 64.7822C78.7872 64.6556 78.9822 64.4613 79.1782 64.266C79.3795 64.0653 79.5818 63.8636 79.7129 63.7333C80.6117 62.84 81.9596 62.5751 83.1295 63.0618C83.6506 63.2785 84.0908 63.6254 84.4188 64.0554M41.7847 57.0314C41.7846 57.0313 41.7846 57.0312 41.7845 57.0312C42.1082 56.7212 42.6558 56.1966 43.5823 55.3086L41.7847 57.0314Z" fill="url(#paint0_linear_148_2902)" stroke="white" stroke-width="6.27451" stroke-linejoin="round"/>
<g clip-path="url(#clip1_148_2902)">
<path d="M80.8713 67.0071C81.2264 66.654 81.5774 66.3031 81.9241 65.9584V81.5634L63.3548 100.133L55.5857 92.3594L44.8816 81.6553V65.95L63.3548 84.4232C63.3548 84.4232 71.7799 76.0567 79.2732 68.5989C79.8121 68.062 80.3448 67.5314 80.8713 67.0071Z" fill="url(#paint1_linear_148_2902)"/>
<path d="M38.813 58.1143C42.1137 64.3187 40.5323 71.6178 32.7946 75.3362C32.3078 75.5702 31.8148 75.7812 31.3197 75.9713C31.6126 73.9932 31.4168 71.9736 30.7494 70.0886C29.2411 65.6703 26.5191 64.6948 24.4238 60.7549C21.1253 54.5505 22.7046 47.2514 30.4423 43.533C30.9291 43.299 31.4221 43.088 31.9172 42.8979C31.6243 44.8759 31.8201 46.8956 32.4875 48.7806C33.9957 53.1989 36.7177 54.1744 38.813 58.1143Z" fill="url(#paint2_linear_148_2902)"/>
<path d="M103.571 60.759C101.473 64.6989 98.7514 65.6723 97.239 70.0885C96.5705 71.9732 96.3733 73.9928 96.6645 75.9712C96.1715 75.7811 95.6764 75.5701 95.1917 75.3362C87.4561 71.6114 85.8809 64.3103 89.1858 58.1101C90.8424 54.9995 92.8854 53.7378 94.4188 51.1724C94.0929 51.1516 93.7649 51.139 93.4327 51.139C92.8456 51.1389 92.2589 51.1738 91.6759 51.2435C90.8012 51.3582 89.9371 51.5426 89.0918 51.795C88.0621 52.0837 87.0772 52.5132 86.165 53.0714C85.1727 53.6793 83.4639 55.0601 81.6026 57.1679L75.8975 62.8731L63.5242 75.2484L55.6862 67.4104L43.5824 55.3087C43.5824 55.3087 36.1371 47.5396 36.1371 41.9014C36.1361 41.3857 36.1626 40.8704 36.2165 40.3576C36.4518 38.2188 37.1767 36.163 38.3348 34.3496C38.9343 33.3981 39.6493 32.5245 40.4635 31.7487C41.0448 31.1892 41.6723 30.6797 42.3394 30.2258C43.6867 29.3155 45.1816 28.6454 46.7577 28.2454C48.6522 27.7678 50.6252 27.6887 52.5519 28.0131C54.4786 28.3374 56.317 29.0582 57.9507 30.1297L63.6266 35.8077L69.1249 30.3073C70.6627 29.2339 72.403 28.485 74.2397 28.106C76.0764 27.7271 77.971 27.7261 79.8081 28.1031C81.6452 28.4802 83.3863 29.2273 84.9253 30.2991C86.4642 31.3708 87.7688 32.7447 88.7596 34.337C88.7826 34.3704 88.8055 34.4059 88.8264 34.4415L88.6865 34.5814C88.6363 34.5731 88.5883 34.5626 88.5402 34.5564C87.693 34.3976 86.8328 34.3178 85.9708 34.3182C85.8036 34.3182 85.6365 34.3224 85.4673 34.3287C82.4773 34.4273 79.5982 35.4849 77.2553 37.3452C76.3828 38.0266 75.597 38.8124 74.9156 39.6849L63.355 51.2455L61.8927 49.7811L61.3725 49.2631L55.5003 43.3908L52.5339 40.4223C52.2537 39.9347 51.8416 39.536 51.3449 39.2721C50.8482 39.0083 50.2872 38.8899 49.7262 38.9308C49.3362 38.9597 48.9558 39.0653 48.6067 39.2415C48.2576 39.4176 47.9466 39.6609 47.6916 39.9574C47.4367 40.2539 47.2427 40.5978 47.1208 40.9693C46.9989 41.3409 46.9515 41.7329 46.9812 42.1228C47.0098 42.5681 47.1429 43.0004 47.3698 43.3846L47.1149 43.1297C48.126 44.6672 62.2854 58.3482 63.5388 59.5578L78.7448 44.3518C81.0778 42.2932 84.0067 41.0325 87.1054 40.753C90.2042 40.4735 93.3114 41.1897 95.9751 42.7975C96.0503 42.8435 96.1234 42.8936 96.1986 42.9417C96.6561 43.1213 97.1157 43.3156 97.5648 43.5329C105.301 47.2576 106.876 54.5588 103.571 60.759Z" fill="url(#paint3_linear_148_2902)"/>
<path d="M103.571 60.759C101.474 64.6989 98.7516 65.6724 97.2392 70.0886C96.5707 71.9733 96.3735 73.9929 96.6647 75.9713C96.1717 75.7812 95.6766 75.5702 95.1919 75.3362C87.4563 71.6115 85.8812 64.3104 89.186 58.1102C90.8426 54.9996 92.8857 53.7378 94.419 51.1725C94.8679 50.4158 95.2362 49.6141 95.5178 48.7806C96.1863 46.8959 96.3835 44.8763 96.0923 42.8979C96.1278 42.9104 96.1633 42.9271 96.1988 42.9418C96.6563 43.1214 97.1159 43.3157 97.5651 43.533C105.301 47.2577 106.876 54.5588 103.571 60.759Z" fill="url(#paint4_linear_148_2902)"/>
<path d="M88.5401 34.5564C87.6929 34.3976 86.8327 34.3178 85.9707 34.3182C85.8035 34.3182 85.6364 34.3224 85.4672 34.3287C82.4772 34.4273 79.5981 35.4849 77.2552 37.3452C76.3827 38.0266 75.5969 38.8124 74.9155 39.6849L63.3549 51.2456L61.8926 49.7812L61.3724 49.2631L55.5002 43.3908L52.5338 40.4223C52.2536 39.9347 51.8415 39.536 51.3448 39.2721C50.8481 39.0083 50.2871 38.8899 49.7261 38.9308C49.3361 38.9597 48.9557 39.0653 48.6066 39.2415C48.2575 39.4176 47.9465 39.6609 47.6915 39.9574C47.4366 40.2539 47.2426 40.5978 47.1207 40.9694C46.9988 41.3409 46.9514 41.7329 46.9811 42.1228C47.0097 42.5681 47.1428 43.0004 47.3697 43.3846L47.1148 43.1297C45.1354 40.118 44.3869 36.4616 45.0237 32.9144C45.1313 32.2942 45.2835 31.6827 45.4791 31.0844C45.7973 30.0931 46.2262 29.1407 46.7576 28.2454C48.6521 27.7678 50.6252 27.6887 52.5518 28.0131C54.4785 28.3374 56.3169 29.0582 57.9506 30.1297C59.5843 31.2013 63.6265 35.8077 63.6265 35.8077C63.6265 35.8077 67.5869 31.3806 69.1248 30.3073C70.6626 29.2339 72.4029 28.485 74.2396 28.106C76.0763 27.7271 77.9709 27.7261 79.808 28.1031C81.6451 28.4801 83.3862 29.2273 84.9252 30.2991C86.4641 31.3708 87.7687 32.7447 88.7595 34.337C88.7825 34.3704 88.8055 34.4059 88.8264 34.4415L88.6864 34.5814C88.6362 34.5731 88.5882 34.5626 88.5401 34.5564Z" fill="url(#paint5_linear_148_2902)"/>
</g>
</g>
<defs>
<linearGradient id="paint0_linear_148_2902" x1="44.882" y1="83.0414" x2="81.9246" y2="83.0414" gradientUnits="userSpaceOnUse">
<stop stop-color="#43B088"/>
<stop offset="0.00503" stop-color="#43B088"/>
<stop offset="1" stop-color="#52CC9F"/>
</linearGradient>
<linearGradient id="paint1_linear_148_2902" x1="44.8816" y1="83.0413" x2="81.9241" y2="83.0413" gradientUnits="userSpaceOnUse">
<stop stop-color="#43B088"/>
<stop offset="0.00503" stop-color="#43B088"/>
<stop offset="1" stop-color="#52CC9F"/>
</linearGradient>
<linearGradient id="paint2_linear_148_2902" x1="31.6189" y1="42.8979" x2="31.6189" y2="75.9713" gradientUnits="userSpaceOnUse">
<stop stop-color="#3FAB83"/>
<stop offset="1" stop-color="#66D5AD"/>
</linearGradient>
<linearGradient id="paint3_linear_148_2902" x1="36.1371" y1="51.8942" x2="105.203" y2="51.8942" gradientUnits="userSpaceOnUse">
<stop offset="0.00503" stop-color="#E75C5B"/>
<stop offset="0.1314" stop-color="#F13E44"/>
<stop offset="0.25965" stop-color="#F92732"/>
<stop offset="0.38038" stop-color="#FD1927"/>
<stop offset="0.48492" stop-color="#FF1423"/>
<stop offset="0.65075" stop-color="#FF1423"/>
<stop offset="0.81658" stop-color="#77BB9A"/>
<stop offset="0.9397" stop-color="#64D3AB"/>
</linearGradient>
<linearGradient id="paint4_linear_148_2902" x1="11807.7" y1="12281.1" x2="11807.7" y2="17517.3" gradientUnits="userSpaceOnUse">
<stop stop-color="#3FAB83"/>
<stop offset="1" stop-color="#66D5AD"/>
</linearGradient>
<linearGradient id="paint5_linear_148_2902" x1="44.8023" y1="39.5314" x2="88.8263" y2="39.5314" gradientUnits="userSpaceOnUse">
<stop stop-color="#ED1C24"/>
<stop offset="0.00503" stop-color="#ED1C24"/>
<stop offset="1" stop-color="#E75C5B"/>
</linearGradient>
<clipPath id="clip0_148_2902">
<rect width="95.3725" height="85.3333" fill="white" transform="translate(16.3137 21.3333)"/>
</clipPath>
<clipPath id="clip1_148_2902">
<rect width="82.4052" height="72.3157" fill="white" transform="translate(22.7974 27.817)"/>
</clipPath>
</defs>
</svg>
