<svg width="32" height="32" viewBox="0 0 32 32" fill="none" xmlns="http://www.w3.org/2000/svg">
<path d="M7.47624 5.70093C6.98617 5.21086 6.19161 5.21086 5.70154 5.70093C5.21147 6.191 5.21147 6.98556 5.70154 7.47563L14.226 16L5.70154 24.5245C5.21147 25.0145 5.21147 25.8091 5.70154 26.2992C6.19161 26.7892 6.98617 26.7892 7.47624 26.2992L16.0007 17.7747L24.5251 26.2992C25.0151 26.7892 25.8097 26.7892 26.2998 26.2992C26.7898 25.8091 26.7898 25.0145 26.2998 24.5245L17.7753 16L26.2998 7.47563C26.7898 6.98556 26.7898 6.191 26.2998 5.70093C25.8097 5.21086 25.0151 5.21086 24.5251 5.70093L16.0007 14.2253L7.47624 5.70093Z" fill="#BFBFBF"/>
</svg>
