<svg width="145" height="46" fill="none" xmlns="http://www.w3.org/2000/svg"><g clip-path="url(#a)"><path d="M114.46 34.408h2.035V20.734h-2.035V34.42v-.011zm18.4-8.74-2.346 5.922h-.069l-2.438-5.934h-2.185l3.634 8.292-2.07 4.6h2.127l5.612-12.88h-2.277.012zm-11.592 7.187c-.667 0-1.61-.333-1.61-1.15 0-1.07 1.173-1.472 2.185-1.472.885 0 1.311.196 1.851.46a2.471 2.471 0 0 1-2.415 2.162h-.011zm.253-7.498c-1.484 0-3.013.656-3.657 2.093l1.817.76c.391-.76 1.115-1.001 1.874-1.001 1.047 0 2.128.632 2.139 1.76v.137a4.518 4.518 0 0 0-2.127-.529c-1.955 0-3.945 1.081-3.945 3.082 0 1.84 1.61 3.013 3.404 3.013a2.876 2.876 0 0 0 2.599-1.345h.069v1.058h1.978V29.14c0-2.415-1.817-3.784-4.151-3.784zm-12.627 1.967h-2.91v-4.692h2.91c1.529 0 2.392 1.265 2.392 2.346 0 1.058-.863 2.346-2.392 2.346zm-.058-6.59h-4.876V34.42h2.036v-5.186h2.852c2.265 0 4.485-1.645 4.485-4.255s-2.22-4.244-4.485-4.244h-.012zm-26.68 12.121c-1.414 0-2.599-1.173-2.599-2.794 0-1.645 1.185-2.84 2.588-2.84s2.495 1.195 2.495 2.84c0 1.61-1.092 2.794-2.495 2.794h.011zm2.335-6.428h-.07a3.218 3.218 0 0 0-2.449-1.035 4.635 4.635 0 0 0-4.462 4.669 4.6 4.6 0 0 0 4.462 4.634c1.116 0 1.99-.494 2.45-1.058h.069v.667c0 1.783-.943 2.737-2.484 2.737a2.576 2.576 0 0 1-2.346-1.656l-1.783.736a4.439 4.439 0 0 0 4.14 2.749c2.392 0 4.416-1.415 4.416-4.842v-8.36h-1.943v.759zm3.358 7.98h2.047V20.735h-2.047V34.42v-.011zm5.06-4.507a2.553 2.553 0 0 1 2.426-2.714c.817 0 1.495.402 1.725.989L92.92 29.9h-.011zm6.348-1.553c-.391-1.035-1.576-2.967-3.99-2.967-2.393 0-4.382 1.886-4.382 4.658a4.555 4.555 0 0 0 4.611 4.657 4.634 4.634 0 0 0 3.887-2.07l-1.587-1.058a2.656 2.656 0 0 1-2.3 1.288c-1.035 0-1.782-.471-2.254-1.403l6.222-2.576-.207-.529zm-49.6-1.53v1.967h4.715a4.117 4.117 0 0 1-1.07 2.484 4.83 4.83 0 0 1-3.645 1.45 5.175 5.175 0 0 1-5.186-5.256 5.176 5.176 0 0 1 8.74-3.841l1.403-1.38a6.89 6.89 0 0 0-4.957-2.001c-3.99 0-7.337 3.243-7.337 7.222 0 3.979 3.347 7.233 7.337 7.233 2.15 0 3.772-.713 5.037-2.035a6.52 6.52 0 0 0 1.725-4.612 6.4 6.4 0 0 0-.115-1.23h-6.647zm12.121 6.038c-1.403 0-2.622-1.15-2.622-2.817 0-1.668 1.22-2.818 2.634-2.818 1.403 0 2.622 1.15 2.622 2.818 0 1.656-1.22 2.817-2.634 2.817zm0-7.475a4.589 4.589 0 0 0-4.669 4.658 4.6 4.6 0 0 0 4.67 4.657 4.599 4.599 0 0 0 4.691-4.657 4.6 4.6 0 0 0-4.68-4.658h-.012zm10.2 7.475c-1.414 0-2.621-1.15-2.621-2.817 0-1.668 1.207-2.818 2.622-2.818 1.414 0 2.633 1.15 2.633 2.818 0 1.656-1.219 2.817-2.633 2.817zm0-7.475a4.589 4.589 0 0 0-4.668 4.658c0 2.68 2.093 4.657 4.669 4.657 2.576 0 4.669-1.978 4.669-4.657a4.587 4.587 0 0 0-4.67-4.658zm24.15-9.729a2.22 2.22 0 0 1-.885-1.288l.955-.38c.08.346.241.633.483.84.23.196.517.3.84.3.344 0 .655-.116.896-.334a1.033 1.033 0 0 0 .38-.805 1 1 0 0 0-.184-.575 1.253 1.253 0 0 0-.495-.426 1.542 1.542 0 0 0-.69-.15h-.563v-.92h.506c.345 0 .632-.08.862-.275a.92.92 0 0 0 .345-.76.886.886 0 0 0-.322-.69 1.173 1.173 0 0 0-.805-.275 1.058 1.058 0 0 0-.713.253c-.192.16-.335.372-.414.61l-.92-.38c.146-.39.397-.732.725-.99.345-.287.805-.436 1.334-.436.414 0 .782.08 1.104.241.322.161.575.391.759.667.172.288.264.598.264.955 0 .667-.287 1.15-.862 1.472v.057c.311.14.58.357.782.633.207.287.31.62.31 1.023.004.374-.1.741-.299 1.058a2.08 2.08 0 0 1-.828.748 2.518 2.518 0 0 1-1.173.264 2.41 2.41 0 0 1-1.403-.437h.012zM88.78 9.12h1.035v3.772l-.046 1.323h.058l3.047-5.095h1.196v6.82h-1.035v-3.864l.058-1.311h-.058l-3.105 5.175h-1.15v-6.82zm-5.658 5.842a1.242 1.242 0 0 0 1.093-.62 1.23 1.23 0 0 0-1.093-1.83h-1.53v2.45h1.53zM80.546 9.12h1.047v2.427h1.449c.425 0 .816.092 1.184.264a2.094 2.094 0 0 1 1.185 1.932 2.104 2.104 0 0 1-1.185 1.932c-.369.18-.774.27-1.184.265h-2.496v-6.82zm-4.025.99h-1.92v-.99h4.864v1h-1.909v5.831h-1.035v-5.842zm-3.91 3.104-.759-2.081-.253-.782h-.057l-.253.782-.77 2.081h2.104-.012zM70.967 9.12h1.196l2.576 6.82h-1.15l-.633-1.748h-2.771l-.633 1.748h-1.15l2.565-6.82zm-4.531 3.795a2.3 2.3 0 0 1-1.564.552c-.414 0-.794-.08-1.127-.253a1.886 1.886 0 0 1-.782-.724 2.15 2.15 0 0 1-.288-1.127V9.119h1.058v2.07c0 .403.115.725.368.943.23.23.564.345.966.345.552 0 1.012-.218 1.38-.644V9.12h1.035v6.82h-1.035v-3.036l-.011.011zm-6.06.3-.76-2.082-.264-.782h-.058l-.253.782-.759 2.081h2.093zM58.73 9.118h1.184l2.588 6.82h-1.15l-.633-1.748h-2.783l-.632 1.748h-1.15l2.576-6.82zm-8.51 0h1.035v3.312h.069l2.714-3.312h1.31v.058l-2.874 3.415 3.024 3.278v.057h-1.368l-2.806-3.116h-.058v3.116h-1.046V9.12zm-5.693 6.51a3.381 3.381 0 0 1-1.276-1.289 3.6 3.6 0 0 1-.472-1.805c0-.667.161-1.265.46-1.817a3.566 3.566 0 0 1 3.094-1.748c1.035 0 1.874.368 2.53 1.115l-.725.713a2.393 2.393 0 0 0-.793-.632 2.265 2.265 0 0 0-.99-.207c-.46 0-.885.115-1.264.322-.386.21-.705.525-.92.908-.207.391-.322.84-.322 1.346 0 .506.115.954.333 1.345.23.391.518.69.909.909a2.53 2.53 0 0 0 3.22-.644l.747.724a3.483 3.483 0 0 1-2.714 1.23 3.565 3.565 0 0 1-1.805-.47h-.012z" fill="#fff"/><path d="m22.112 22.08-10.73 11.397a2.898 2.898 0 0 0 4.279 1.76l.034-.024 12.098-6.98-5.67-6.176" fill="#EB3131"/><path d="M32.995 20.125h-.011l-5.221-3.036-5.888 5.244 5.9 5.91 5.197-3a2.91 2.91 0 0 0 .012-5.118" fill="#F6B60B"/><path d="M11.373 11.822a2.856 2.856 0 0 0-.103.748v20.17c0 .265.034.518.103.748l11.109-11.12-11.109-10.546z" fill="#5778C5"/><path d="m22.193 22.655 5.566-5.566-12.087-7.015a2.91 2.91 0 0 0-4.3 1.737l10.82 10.844z" fill="#3BAD49"/></g><defs><clipPath id="a"><path fill="#fff" d="M0 0h145v46H0z"/></clipPath></defs></svg>