<svg width="145" height="46" fill="none" xmlns="http://www.w3.org/2000/svg"><path d="M114.46 34.408h2.035V20.735h-2.035V34.42v-.012zm18.4-8.74-2.346 5.923h-.069l-2.438-5.934h-2.185l3.634 8.291-2.07 4.6h2.127l5.612-12.88h-2.277.012zm-11.592 7.188c-.667 0-1.61-.334-1.61-1.15 0-1.07 1.173-1.472 2.185-1.472.885 0 1.311.195 1.851.46a2.473 2.473 0 0 1-2.415 2.162h-.011zm.253-7.498c-1.484 0-3.013.655-3.657 2.093l1.817.759c.391-.76 1.115-1 1.874-1 1.047 0 2.128.632 2.139 1.759v.138a4.519 4.519 0 0 0-2.127-.53c-1.955 0-3.945 1.082-3.945 3.083 0 1.84 1.61 3.013 3.404 3.013a2.88 2.88 0 0 0 2.599-1.346h.069v1.058h1.978v-5.244c0-2.415-1.817-3.783-4.151-3.783zm-12.627 1.966h-2.91v-4.692h2.91c1.529 0 2.392 1.265 2.392 2.346 0 1.058-.863 2.346-2.392 2.346zm-.058-6.59h-4.876V34.42h2.036v-5.187h2.852c2.265 0 4.485-1.644 4.485-4.255 0-2.61-2.22-4.243-4.485-4.243h-.012zm-26.68 12.122c-1.414 0-2.599-1.173-2.599-2.795 0-1.644 1.185-2.84 2.588-2.84s2.495 1.196 2.495 2.84c0 1.61-1.092 2.795-2.495 2.795h.011zm2.335-6.429h-.07a3.22 3.22 0 0 0-2.449-1.035 4.634 4.634 0 0 0-4.462 4.67 4.6 4.6 0 0 0 4.462 4.634c1.116 0 1.99-.495 2.45-1.058h.069v.667c0 1.782-.943 2.737-2.484 2.737a2.576 2.576 0 0 1-2.346-1.656l-1.783.736a4.44 4.44 0 0 0 4.14 2.748c2.392 0 4.416-1.414 4.416-4.841v-8.36h-1.943v.758zm3.358 7.981h2.047V20.735h-2.047V34.42v-.012zm5.06-4.508a2.551 2.551 0 0 1 2.426-2.714c.817 0 1.495.403 1.725.99L92.92 29.9h-.011zm6.348-1.552c-.391-1.035-1.576-2.967-3.99-2.967-2.393 0-4.382 1.886-4.382 4.657a4.554 4.554 0 0 0 4.611 4.658 4.634 4.634 0 0 0 3.887-2.07l-1.587-1.058a2.657 2.657 0 0 1-2.3 1.288c-1.035 0-1.782-.472-2.254-1.403l6.222-2.576-.207-.53zm-49.6-1.53v1.967h4.715a4.117 4.117 0 0 1-1.07 2.484 4.83 4.83 0 0 1-3.645 1.449 5.175 5.175 0 0 1-5.186-5.256 5.174 5.174 0 0 1 8.74-3.84l1.403-1.38a6.887 6.887 0 0 0-4.957-2.002c-3.99 0-7.337 3.243-7.337 7.222 0 3.98 3.347 7.234 7.337 7.234 2.15 0 3.772-.713 5.037-2.036a6.521 6.521 0 0 0 1.725-4.611 6.4 6.4 0 0 0-.115-1.23h-6.647zm12.121 6.038c-1.403 0-2.622-1.15-2.622-2.818 0-1.667 1.22-2.817 2.634-2.817 1.403 0 2.622 1.15 2.622 2.817 0 1.656-1.22 2.818-2.634 2.818zm0-7.475a4.59 4.59 0 0 0-4.669 4.657 4.6 4.6 0 0 0 4.67 4.658 4.6 4.6 0 0 0 4.691-4.658 4.6 4.6 0 0 0-4.68-4.657h-.012zm10.2 7.475c-1.414 0-2.621-1.15-2.621-2.818 0-1.667 1.207-2.817 2.622-2.817 1.414 0 2.633 1.15 2.633 2.817 0 1.656-1.219 2.818-2.633 2.818zm0-7.475a4.59 4.59 0 0 0-4.668 4.657c0 2.68 2.093 4.658 4.669 4.658 2.576 0 4.669-1.978 4.669-4.658a4.591 4.591 0 0 0-4.67-4.657zm24.15-9.73a2.22 2.22 0 0 1-.885-1.287l.955-.38c.08.345.241.633.483.84.23.195.517.299.84.299.344 0 .655-.115.896-.334a1.036 1.036 0 0 0 .38-.805c-.001-.206-.065-.407-.184-.575a1.253 1.253 0 0 0-.495-.425 1.54 1.54 0 0 0-.69-.15h-.563v-.92h.506c.345 0 .632-.08.862-.276a.92.92 0 0 0 .345-.759.886.886 0 0 0-.322-.69 1.173 1.173 0 0 0-.805-.276 1.058 1.058 0 0 0-.713.253c-.192.16-.335.372-.414.61l-.92-.38c.146-.39.397-.732.725-.989.345-.287.805-.437 1.334-.437.414 0 .782.08 1.104.242.322.16.575.39.759.667.172.287.264.598.264.954 0 .667-.287 1.15-.862 1.472v.058c.31.139.58.357.782.632.207.288.31.621.31 1.024.004.374-.1.74-.299 1.058-.203.32-.49.578-.828.747a2.519 2.519 0 0 1-1.173.265 2.41 2.41 0 0 1-1.403-.437h.012zM88.78 9.12h1.035v3.772l-.046 1.322h.058l3.047-5.094h1.196v6.82h-1.035v-3.865l.058-1.31h-.058l-3.105 5.174h-1.15V9.12zm-5.658 5.842a1.242 1.242 0 0 0 1.093-.621 1.23 1.23 0 0 0-1.093-1.829h-1.53v2.45h1.53zM80.546 9.12h1.047v2.426h1.449c.425 0 .816.092 1.184.265a2.093 2.093 0 0 1 1.185 1.932 2.105 2.105 0 0 1-1.185 1.932c-.369.178-.774.269-1.184.264h-2.496V9.12zm-4.025.989h-1.92v-.99h4.864v1.001h-1.909v5.83h-1.035V10.11zm-3.91 3.105-.759-2.082-.253-.782h-.057l-.253.782-.77 2.082h2.104-.012zM70.967 9.12h1.196l2.576 6.82h-1.15l-.633-1.749h-2.771l-.633 1.748h-1.15l2.565-6.82zm-4.531 3.795a2.3 2.3 0 0 1-1.564.552c-.414 0-.794-.08-1.127-.253a1.886 1.886 0 0 1-.782-.725 2.15 2.15 0 0 1-.288-1.127V9.12h1.058v2.07c0 .402.115.724.368.943.23.23.564.345.966.345.552 0 1.012-.219 1.38-.644V9.12h1.035v6.82h-1.035v-3.037l-.011.012zm-6.06.299-.76-2.082-.264-.782h-.058l-.253.782-.759 2.082h2.093zM58.73 9.12h1.184l2.588 6.82h-1.15l-.633-1.749h-2.783l-.632 1.748h-1.15l2.576-6.82zm-8.51 0h1.035v3.312h.069l2.714-3.312h1.31v.057l-2.874 3.416 3.024 3.277v.058h-1.368l-2.806-3.117h-.058v3.117h-1.046V9.12zm-5.693 6.509a3.38 3.38 0 0 1-1.276-1.288 3.599 3.599 0 0 1-.472-1.806c0-.667.161-1.265.46-1.817a3.564 3.564 0 0 1 3.094-1.748c1.035 0 1.874.368 2.53 1.116l-.725.713a2.391 2.391 0 0 0-.793-.633 2.265 2.265 0 0 0-.99-.207c-.46 0-.885.115-1.264.322-.386.21-.705.525-.92.909-.207.39-.322.84-.322 1.345 0 .506.115.955.333 1.346.23.39.518.69.909.908a2.53 2.53 0 0 0 3.22-.644l.747.725a3.486 3.486 0 0 1-2.714 1.23 3.565 3.565 0 0 1-1.805-.471h-.012z" fill="#fff"/><path d="M22.114 22.08 11.386 33.477a2.898 2.898 0 0 0 4.278 1.76l.034-.024 12.099-6.98-5.67-6.176" fill="#EB3131"/><path d="M32.993 20.125h-.011l-5.221-3.036-5.888 5.244 5.9 5.911 5.198-3.002a2.91 2.91 0 0 0 .011-5.117" fill="#F6B60B"/><path d="M11.373 11.822a2.857 2.857 0 0 0-.103.748v20.17c0 .265.035.518.104.748l11.109-11.12-11.11-10.546z" fill="#5778C5"/><path d="m22.195 22.655 5.566-5.566-12.086-7.015a2.909 2.909 0 0 0-4.302 1.736l10.822 10.845z" fill="#3BAD49"/></svg>