<svg width="120" height="45" viewBox="0 0 120 45" fill="none" xmlns="http://www.w3.org/2000/svg">
<path d="M95.897 10.7613L95.8979 10.7453C96.0241 8.20924 95.3075 6.00339 93.8782 4.37192C93.4193 3.8481 92.8906 3.38965 92.3071 3.00886C91.9573 2.78055 91.5486 2.65898 91.1309 2.65898H68.5466C68.1239 2.65898 67.7105 2.78347 67.3581 3.0169C66.9399 3.29389 66.5493 3.61026 66.1919 3.96182L66.1917 3.962C64.5121 5.61433 63.6487 7.98147 63.7856 10.7406C63.8011 11.0766 63.8317 11.4028 63.8723 11.7179C63.9709 12.4827 64.4711 13.1363 65.1836 13.4313C65.8961 13.7262 66.7119 13.6175 67.3223 13.1461C67.5879 12.941 67.8812 12.7724 68.1941 12.6452H73.8583V39.7398C73.8583 40.9285 74.8218 41.892 76.0104 41.892H83.0298C84.2184 41.892 85.1819 40.9285 85.1819 39.7398V12.6458H91.4883C91.7996 12.7719 92.0912 12.9397 92.3549 13.1441C92.9649 13.6172 93.7815 13.7273 94.495 13.4327C95.2085 13.1382 95.7096 12.4841 95.8083 11.7185C95.8491 11.4018 95.8786 11.0827 95.897 10.7613Z" fill="black" stroke="white" stroke-width="4.30435" stroke-linejoin="round"/>
<path d="M52.7493 12.8956C52.5251 13.5712 52.4135 14.3979 52.4143 15.3756C52.4143 19.4447 53.5148 21.7011 55.7157 22.1448L52.7493 12.8956ZM52.7493 12.8956C53.1677 12.9136 53.5849 12.9617 53.9976 13.0398L54.3976 10.9251L53.5174 8.96117C52.5774 9.3825 51.8856 10.0154 51.3877 10.7797C51.1365 10.8025 50.8858 10.834 50.6362 10.8742C49.586 11.0533 48.5692 11.3719 47.6125 11.8189L52.7493 12.8956ZM57.8679 22.1448C57.8679 21.1201 57.1454 20.2375 56.141 20.035C55.7818 19.9626 55.4701 19.7834 55.174 19.1763C54.8293 18.4694 54.5665 17.2631 54.5665 15.3756L54.5665 15.3737C54.5646 13.2576 55.1523 12.9453 55.2779 12.889C56.136 12.5044 56.645 11.6073 56.535 10.6734C56.4251 9.73954 55.7216 8.98518 54.7976 8.81042C53.3115 8.52931 51.7869 8.50871 50.2935 8.74951L50.2745 8.75267C48.4771 9.05906 46.7607 9.71213 45.2225 10.6722C44.9968 10.7217 44.7769 10.8081 44.5719 10.9319C44.4882 10.9824 44.407 11.0372 44.3286 11.0961C43.9038 11.4155 43.6122 11.8808 43.5099 12.4024C43.3204 13.3696 43.2278 14.353 43.2335 15.3382C43.237 19.1106 44.1533 22.3521 46.118 24.868C44.7461 25.9523 43.6981 27.418 43.0446 29.0971C42.5234 30.4346 42.3793 31.6105 42.2721 32.4851C42.2563 32.6144 42.2412 32.7371 42.2259 32.8528C42.1096 33.73 41.9713 34.3969 41.4719 35.2363L41.4597 35.257C41.0342 35.9909 40.4311 36.6145 39.7004 37.071C39.0388 37.4843 38.6527 38.2234 38.6913 39.0025C38.7298 39.7817 39.187 40.479 39.8862 40.825C40.2121 40.9863 40.5589 41.1462 40.9245 41.2951L40.9313 41.2978C44.6811 42.8098 48.278 42.3563 50.942 40.3282L50.9592 40.3149C52.404 39.1917 53.5107 37.6951 54.1541 35.9867C54.6718 34.6533 54.815 33.4807 54.9217 32.6076C54.9375 32.4788 54.9524 32.3566 54.9676 32.2413C55.0837 31.3622 55.2217 30.6947 55.7197 29.8558L55.7198 29.8558L55.7263 29.8447C56.0649 29.2666 56.5117 28.7544 57.0448 28.3358C57.5644 27.9278 57.8679 27.3037 57.8679 26.6431V22.1448Z" fill="black" stroke="white" stroke-width="4.30435" stroke-linejoin="round"/>
<path d="M55.4302 12.8371C56.41 12.5821 57.0795 11.6787 57.0385 10.6672C56.9975 9.65558 56.257 8.80936 55.2598 8.63452C53.606 8.34456 51.9136 8.34325 50.2594 8.6306C48.1485 8.99405 46.1496 9.83492 44.4199 11.0894C44.0122 11.3851 43.7211 11.8143 43.5973 12.3025C43.5969 12.3039 43.5964 12.3059 43.5958 12.3082C43.5891 12.3345 43.5685 12.4146 43.5495 12.512C43.5291 12.6076 43.5133 12.7041 43.502 12.8012C43.4028 13.6567 43.8231 14.4889 44.5705 14.9169C45.3179 15.3448 46.2484 15.286 46.9359 14.7673C47.6111 14.258 48.354 13.8406 49.1445 13.5268L49.1446 13.5268L49.1485 13.5252C49.7435 13.2877 50.3625 13.1123 50.9953 13.0019C51.9868 12.8386 53.0003 12.8531 53.9865 13.0447C54.4351 13.1319 54.8998 13.074 55.3133 12.8794C55.3506 12.8619 55.3897 12.8477 55.4302 12.8371Z" fill="black" stroke="white" stroke-width="4.30435" stroke-linejoin="round"/>
<path d="M113.657 5.66705L113.672 5.68183C116.019 7.97087 117.067 11.0876 117.067 14.7266V39.7395C117.067 40.9281 116.103 41.8917 114.914 41.8917H107.895C106.706 41.8917 105.743 40.9281 105.743 39.7395V30.2857C105.555 29.9663 105.448 29.5942 105.448 29.197V23.3901C105.448 22.9929 105.555 22.6207 105.743 22.3013V13.6533V13.6424H105.743C105.744 13.5028 105.737 13.3632 105.723 13.2242C105.721 13.2107 105.72 13.1972 105.719 13.1837C105.694 12.8856 105.649 12.708 105.616 12.6168C105.61 12.6004 105.605 12.5881 105.601 12.5793C105.483 12.4527 105.38 12.3122 105.295 12.1609C105.276 12.1296 105.257 12.0979 105.238 12.0656C105.164 11.9344 105.084 11.8064 104.997 11.6821C103.971 10.2425 101.992 9.34428 99.6749 9.55844C98.8047 9.63887 97.9723 9.18515 97.5684 8.41026C97.1644 7.63536 97.2691 6.69313 97.8334 6.02582C97.8339 6.02518 97.8347 6.02424 97.8357 6.02304C97.8496 6.00643 97.9068 5.93829 97.9831 5.86023C98.0243 5.81747 98.0621 5.7803 98.0801 5.76249C98.0816 5.76103 98.083 5.7597 98.0842 5.75851C98.0976 5.74525 98.1039 5.73902 98.1059 5.73707C98.1237 5.71836 98.1419 5.69998 98.1604 5.68193C100.245 3.64802 102.87 2.65918 105.874 2.65898L113.657 5.66705ZM113.657 5.66705C111.541 3.64286 108.894 2.65795 105.874 2.65898L113.657 5.66705Z" fill="black" stroke="white" stroke-width="4.30435" stroke-linejoin="round"/>
<path d="M109.75 23.5045C109.75 22.3159 108.786 21.3523 107.598 21.3523H106.041L106.041 13.6643C106.041 13.6639 106.041 13.6636 106.041 13.6632C106.041 13.3694 106.059 13.1359 106.085 12.9543C106.817 13.3825 107.756 13.3475 108.462 12.8187C109.316 12.1787 109.573 11.0088 109.064 10.0702C108.897 9.76367 108.714 9.46699 108.513 9.18157L108.513 9.1807C106.457 6.25809 102.865 4.8846 99.2744 5.22025C98.7581 5.2685 98.2767 5.50148 97.9185 5.87637C95.7153 8.1825 94.7206 11.2253 94.7206 14.7487V21.3805C93.698 21.5473 92.9175 22.4348 92.9175 23.5045V29.3717C92.9175 30.1297 93.3095 30.7963 93.9017 31.1797C93.7986 31.8684 93.7687 32.4771 93.7439 32.9817C93.7377 33.1075 93.7318 33.2268 93.7252 33.3393C93.6753 34.1902 93.5908 34.8354 93.1908 35.6634L93.1763 35.6941C92.8504 36.3969 92.352 37.0131 91.7224 37.486C91.113 37.9436 90.7912 38.6895 90.8761 39.4468C90.9611 40.2042 91.4403 40.8601 92.136 41.1714C92.4847 41.3274 92.8285 41.4565 93.1349 41.5659C94.4877 42.0557 95.9285 42.2617 97.3654 42.1713L97.3891 42.1696C101.34 41.8771 104.155 39.1396 105.208 35.5939C105.571 34.3835 105.643 33.3659 105.687 32.5452C105.691 32.4752 105.695 32.4075 105.698 32.3419C105.715 32.0311 105.729 31.7665 105.75 31.5239H107.598C108.786 31.5239 109.75 30.5603 109.75 29.3717V23.5045Z" fill="black" stroke="white" stroke-width="4.30435" stroke-linejoin="round"/>
<path d="M64.2924 3.24807C64.696 3.6517 64.9228 4.19916 64.9228 4.77002V39.7373C64.9228 40.9259 63.9593 41.8895 62.7707 41.8895H55.7513C54.5627 41.8895 53.5992 40.9259 53.5992 39.7373V30.6459L53.5651 27.0962C53.5638 26.9613 53.5751 26.8278 53.5984 26.6973C53.5764 26.5738 53.565 26.4472 53.565 26.3187V22.8352C53.565 22.706 53.5766 22.5782 53.5992 22.453V12.9305C53.465 12.8768 53.3373 12.8099 53.2177 12.7313C52.4758 12.6974 51.7309 12.7443 50.9969 12.8719L50.9932 12.8725C49.5277 13.1247 48.1435 13.7078 46.9491 14.5741C46.2391 15.089 45.2877 15.1215 44.5442 14.6564C43.8006 14.1913 43.4137 13.3215 43.5661 12.4578C43.5999 12.2662 43.6406 12.0858 43.6698 11.9565L43.6725 11.9445C44.2058 9.55121 45.5107 7.39828 47.385 5.80565L64.2924 3.24807ZM64.2924 3.24807C63.8887 2.84445 63.3412 2.61775 62.7703 2.61785M64.2924 3.24807L62.7703 2.61785M62.7703 2.61785L57.2839 2.61877C57.2838 2.61877 57.2837 2.61877 57.2835 2.61877M62.7703 2.61785L57.2835 2.61877M57.2835 2.61877C53.3559 2.61883 49.9759 3.60399 47.3851 5.80558L57.2835 2.61877Z" fill="black" stroke="white" stroke-width="4.30435" stroke-linejoin="round"/>
<path d="M57.5114 28.4334C58.1647 28.0167 58.5434 27.2809 58.5031 26.5071C58.4628 25.7333 58.0096 25.0409 57.3165 24.6942C57.1072 24.5896 56.8413 24.4577 56.554 24.3363C55.8894 24.0556 55.1284 24.1265 54.5271 24.5252C53.9259 24.924 53.5644 25.5974 53.5644 26.3188V27.0756C53.5644 27.9032 54.0389 28.6574 54.7849 29.0157C55.5309 29.3739 56.4162 29.2727 57.0621 28.7553C57.2058 28.6402 57.3558 28.5328 57.5114 28.4334Z" fill="black" stroke="white" stroke-width="4.30435" stroke-linejoin="round"/>
<path d="M17.4566 24.7197L17.4566 24.7183C17.4514 22.983 17.4458 21.2473 17.4396 19.511C18.2109 18.7238 18.2647 17.4722 17.5484 16.6205C16.2018 15.0193 14.6247 13.8605 13.0293 13.2455C11.4786 12.6478 9.64421 12.4794 8.08231 13.3438C8.06784 13.3518 8.05345 13.36 8.03916 13.3684C7.25433 13.8267 6.61097 14.495 6.18571 15.3012C6.02244 15.6107 5.9371 15.9554 5.9371 16.3053V30.5594C5.88874 31.0716 5.87502 31.5424 5.86677 31.9535C5.86496 32.0433 5.86342 32.1289 5.86193 32.2112C5.85574 32.5543 5.85058 32.84 5.83209 33.1364C5.79061 33.8013 5.6852 34.4209 5.34414 35.1857C5.25485 35.3853 5.15512 35.5804 5.04532 35.7701L5.03744 35.7838C4.71225 36.3553 4.27769 36.862 3.756 37.2754C3.25716 37.6706 2.96403 38.2615 2.94171 38.8851C2.89716 39.1269 2.89375 39.3781 2.93541 39.6283C3.06274 40.3928 3.59136 41.0299 4.31933 41.296C4.54593 41.3789 4.77923 41.4571 5.02425 41.5292C5.14126 41.5649 5.25379 41.5963 5.34206 41.6208C7.31871 42.2159 9.43283 42.197 11.3987 41.566C11.4057 41.5637 11.4128 41.5614 11.4199 41.5591C11.4289 41.5561 11.4379 41.553 11.4469 41.5499C14.48 40.4967 16.4835 37.9482 17.2 34.9166L17.2003 34.9154C17.3599 34.238 17.4536 33.547 17.4799 32.8517C17.4811 32.8218 17.4816 32.7919 17.4815 32.7619C17.4711 30.0802 17.4628 27.3994 17.4566 24.7197Z" fill="black" stroke="white" stroke-width="4.30435" stroke-linejoin="round"/>
<path d="M36.7308 2.61785C37.9194 2.61785 38.8829 3.58141 38.8829 4.77002V39.7373C38.8829 40.9259 37.9194 41.8895 36.7308 41.8895H29.7115C28.5228 41.8895 27.5593 40.9259 27.5593 39.7373V33.3554L27.5594 33.3312C27.5964 30.0358 27.5687 26.0977 27.5315 22.8604L36.7308 2.61785ZM36.7308 2.61785H31.244C31.1044 2.61785 30.9664 2.6314 30.8318 2.65768M36.7308 2.61785L30.8318 2.65768M27.5167 21.7118C27.5217 22.0824 27.5267 22.466 27.5315 22.8602L27.5167 21.7118ZM27.5167 21.7118C27.4706 21.7587 27.4246 21.8056 27.3785 21.8526C27.3784 21.8527 27.3783 21.8528 27.3782 21.8529C27.3779 21.8532 27.3777 21.8535 27.3774 21.8537L23.7197 25.5873C22.927 26.3965 21.6428 26.4527 20.7825 25.716C20.5249 25.4954 18.6366 23.6673 16.9711 22.0496L16.9695 22.048C16.7798 21.8634 16.5911 21.6798 16.4058 21.4995C15.6172 20.7319 14.8893 20.0235 14.4001 19.5463C14.3494 19.4969 14.3013 19.4451 14.2557 19.3909C13.2988 18.2531 12.2958 17.5752 11.4827 17.2618C10.6825 16.9533 10.2787 17.0619 10.1838 17.1024C10.1011 17.1569 10.0368 17.2289 9.99439 17.3094C9.53278 18.1845 8.53399 18.6322 7.5736 18.3944C6.6132 18.1566 5.93865 17.2947 5.93865 16.3053V8.37613C5.93865 8.21134 5.95757 8.04709 5.99506 7.88662C6.34813 6.375 7.13962 5.00191 8.26791 3.93346L8.27364 3.92803L8.27365 3.92804C8.64845 3.57571 9.05674 3.26062 9.49262 2.98702C9.83546 2.77183 10.232 2.65768 10.6368 2.65768H14.7526C15.3819 2.65768 15.9796 2.93306 16.3885 3.41136C18.1858 5.51368 19.981 7.61703 21.7741 9.7214L27.5167 21.7118ZM30.8318 2.65768H30.2244C29.6241 2.65768 29.051 2.90841 28.6436 3.34935L23.0396 9.41473C23.0395 9.41489 23.0393 9.41506 23.0392 9.41522C23.039 9.41538 23.0389 9.41554 23.0387 9.4157C22.7743 9.70154 22.51 9.98738 22.2458 10.2732C22.0885 10.0896 21.9316 9.906 21.775 9.7224L30.8318 2.65768Z" fill="black" stroke="white" stroke-width="4.30435" stroke-linejoin="round"/>
<path d="M57.5114 28.4334C58.1647 28.0167 58.5434 27.2809 58.5031 26.5071C58.4628 25.7333 58.0096 25.0409 57.3165 24.6942C57.1072 24.5896 56.8413 24.4577 56.554 24.3363C55.8894 24.0556 55.1284 24.1265 54.5271 24.5252C53.9259 24.924 53.5644 25.5974 53.5644 26.3188V27.0756C53.5644 27.9032 54.0389 28.6574 54.7849 29.0157C55.5309 29.3739 56.4162 29.2727 57.0621 28.7553C57.2058 28.6402 57.3558 28.5328 57.5114 28.4334Z" fill="black" stroke="white" stroke-width="4.30435" stroke-linejoin="round"/>
<path d="M93.7484 10.6382C93.7328 10.9097 93.7079 11.1781 93.6737 11.4434C93.131 11.0225 92.5161 10.7008 91.8583 10.4936H83.0298V39.7398H76.0104V10.493H67.8223C67.165 10.7015 66.5503 11.023 66.0068 11.4428C65.9726 11.1775 65.9477 10.9091 65.9353 10.6376C65.8234 8.39858 66.5197 6.65833 67.701 5.49622C67.9599 5.24162 68.243 5.01221 68.5466 4.81116H91.1309C91.5506 5.08511 91.9303 5.41446 92.2593 5.79004C93.2696 6.94326 93.8509 8.57811 93.7484 10.6382Z" fill="url(#paint0_linear_148_3100)"/>
<path d="M55.7157 22.1448V26.6431C54.9713 27.2276 54.3449 27.9447 53.8692 28.7571C52.4454 31.1551 53.1075 32.7453 52.1439 35.2181C51.642 36.5564 50.7749 37.7322 49.6383 38.6158C47.6519 40.1281 44.8727 40.5666 41.7361 39.3018C41.4284 39.1765 41.1299 39.0392 40.8408 38.8962C41.867 38.255 42.7186 37.3763 43.3215 36.3367C44.7484 33.9383 44.0862 32.3516 45.0499 29.8785C45.9017 27.6891 47.5431 26.0453 49.6849 25.3802C46.8219 23.2085 45.3888 19.8588 45.3857 15.3309C45.3804 14.4871 45.4595 13.6449 45.6219 12.8164C45.6419 12.8014 45.6627 12.7874 45.6841 12.7744C45.6748 12.8103 45.6654 12.8461 45.6592 12.8819C45.651 12.9164 45.6447 12.9513 45.6406 12.9864C47.1148 11.9063 48.826 11.1828 50.6362 10.8742C51.8833 10.6731 53.1566 10.6904 54.3976 10.9251C53.0733 11.5187 52.4122 13.0022 52.4143 15.3756C52.4143 19.4447 53.5148 21.7011 55.7157 22.1448Z" fill="url(#paint1_linear_148_3100)"/>
<path d="M54.8881 10.7544C54.7191 10.7983 54.5547 10.8578 54.3969 10.9321C53.1566 10.6911 51.8822 10.6734 50.6355 10.88C49.8529 11.0158 49.0871 11.2325 48.3506 11.5264C47.3815 11.9111 46.4696 12.4233 45.6399 13.0492C45.6441 13.0131 45.6503 12.9773 45.6585 12.9419C45.6648 12.9052 45.6741 12.8684 45.6834 12.8316C47.1458 11.7711 48.8376 11.059 50.6262 10.7513C52.036 10.5062 53.4786 10.5072 54.8881 10.7544Z" fill="url(#paint2_linear_148_3100)"/>
<path d="M112.169 7.22238C110.488 5.61388 108.389 4.81014 105.874 4.81116C103.381 4.81116 101.311 5.6149 99.6633 7.22238C99.6198 7.26833 99.5701 7.3143 99.5265 7.36025C99.5079 7.37863 99.4923 7.39702 99.4768 7.4154C102.427 7.14272 105.212 8.2702 106.754 10.4394C106.888 10.6293 107.006 10.8193 107.112 11.0062C107.133 11.0399 107.155 11.0767 107.174 11.1104C107.566 11.5087 107.792 12.1398 107.864 13.0069C107.886 13.2217 107.896 13.4375 107.895 13.6533V23.3901H107.6V29.197H107.895V39.7395H114.914V14.7266C114.914 11.509 113.999 9.00756 112.169 7.22238Z" fill="url(#paint3_linear_148_3100)"/>
<path d="M107.598 23.5045V29.3717H103.889V29.7767C103.855 29.8821 103.83 29.9841 103.805 30.0862C103.398 31.7314 103.721 33.0581 103.146 34.9791C102.307 37.8057 100.155 39.8067 97.2302 40.0233C96.0861 40.0953 94.9394 39.931 93.8636 39.5408C93.5776 39.4388 93.2916 39.3306 93.0149 39.2068C93.9263 38.5223 94.6524 37.6267 95.1288 36.5995C96.2821 34.2119 95.5733 32.7305 96.2945 30.2963C96.3868 29.9811 96.5 29.6723 96.6334 29.3717H95.0697V23.5045H96.8727V14.7487C96.8727 11.6406 97.74 9.1787 99.4747 7.36308C102.425 7.08734 105.21 8.22586 106.752 10.4186C106.905 10.6363 107.045 10.8625 107.172 11.096C107.002 10.9279 106.799 10.7965 106.576 10.7102C106.352 10.624 106.112 10.5848 105.872 10.5951C104.551 10.5951 103.89 11.6178 103.889 13.6632V23.5045H107.598Z" fill="url(#paint4_linear_148_3100)"/>
<path d="M62.7707 4.77002V39.7373H55.7513V30.6357L55.7172 30.6694V27.0755C55.9211 26.9121 56.1338 26.7597 56.3544 26.619C56.1461 26.5148 55.9348 26.4107 55.7172 26.3187V22.8352C55.7289 22.8368 55.7404 22.8399 55.7513 22.8444V10.7515C55.6083 10.7607 55.4591 10.776 55.3037 10.7944C54.9959 10.8312 54.7068 10.8802 54.4395 10.9384C54.4263 10.9349 54.4127 10.9328 54.3991 10.9323C54.5568 10.858 54.7213 10.7986 54.8903 10.7546C53.4808 10.5074 52.0382 10.5064 50.6283 10.7515C48.8397 11.0592 47.1479 11.7713 45.6855 12.8318C45.7104 12.6909 45.7415 12.553 45.7726 12.4152C46.2028 10.4818 47.2576 8.73808 48.7787 7.44565C50.877 5.66251 53.7121 4.77095 57.2839 4.77095L62.7707 4.77002Z" fill="url(#paint5_linear_148_3100)"/>
<path d="M56.3538 26.6191C56.1332 26.7599 55.9205 26.9122 55.7166 27.0756V26.3188C55.9342 26.4108 56.1455 26.5149 56.3538 26.6191Z" fill="url(#paint6_linear_148_3100)"/>
<path d="M15.3044 24.7247C15.3107 27.4055 15.3189 30.0874 15.3293 32.7703C15.3082 33.3265 15.2333 33.8795 15.1055 34.4216C14.5335 36.8421 12.9823 38.7386 10.741 39.5168C9.1832 40.0168 7.50666 40.0296 5.9412 39.5535C5.84173 39.526 5.74225 39.4984 5.64277 39.4677C5.44382 39.4095 5.25109 39.3452 5.05835 39.2747C5.14539 39.2043 5.23243 39.1277 5.31948 39.048C5.24176 39.0204 5.16715 38.9929 5.09254 38.9622C5.82931 38.3785 6.4456 37.6608 6.90799 36.8482C7.05528 36.5937 7.18913 36.3319 7.30901 36.0639C8.25093 33.9529 7.89654 32.5252 8.08928 30.6654V16.3053C8.32543 15.8576 8.68402 15.4841 9.12446 15.2269C10.741 14.3322 13.5978 15.2667 15.9013 18.0057C15.5158 17.632 15.2796 17.4022 15.2796 17.4022C15.2889 19.844 15.2972 22.2849 15.3044 24.7247Z" fill="url(#paint7_linear_148_3100)"/>
<path d="M36.7308 4.77002V39.7373H29.7115V33.3554C29.7488 30.0342 29.7208 26.0758 29.6835 22.8343C29.64 19.2435 29.5809 16.5289 29.5809 16.5289C28.3343 17.8035 27.0878 19.076 25.8412 20.3464L22.1823 24.0812C21.9927 23.9189 20.1866 22.1725 18.4706 20.5058C17.4727 19.5345 16.5059 18.5939 15.9028 18.0057C13.5993 15.2666 10.7425 14.3322 9.126 15.2268C8.68556 15.484 8.32697 15.8576 8.09082 16.3053V8.37613C8.34736 7.27782 8.92314 6.277 9.74773 5.49614C10.0208 5.23947 10.3185 5.00962 10.6368 4.80985H14.7526C16.5494 6.91163 18.3442 9.01442 20.1368 11.1182C20.427 11.4583 20.7181 11.7984 21.0104 12.1385C21.3989 12.5981 21.7906 13.0546 22.1823 13.5141C22.9937 12.6348 23.8061 11.7555 24.6195 10.8762L30.2244 4.80985H31.2533C31.2502 4.7976 31.2471 4.78227 31.244 4.77002H36.7308Z" fill="url(#paint8_linear_148_3100)"/>
<path d="M56.3538 26.6191C56.1332 26.7599 55.9205 26.9122 55.7166 27.0756V26.3188C55.9342 26.4108 56.1455 26.5149 56.3538 26.6191Z" fill="url(#paint9_linear_148_3100)"/>
<defs>
<linearGradient id="paint0_linear_148_3100" x1="67.9217" y1="35.1365" x2="86.6333" y2="2.25246" gradientUnits="userSpaceOnUse">
<stop stop-color="#52CC9F" stop-opacity="0.9"/>
<stop offset="0.995" stop-color="#43B088"/>
</linearGradient>
<linearGradient id="paint1_linear_148_3100" x1="40.382" y1="38.6361" x2="55.7213" y2="11.6788" gradientUnits="userSpaceOnUse">
<stop stop-color="#53C197"/>
<stop offset="0.96" stop-color="#4DBC94"/>
</linearGradient>
<linearGradient id="paint2_linear_148_3100" x1="48.5723" y1="14.7177" x2="51.8208" y2="9.00878" gradientUnits="userSpaceOnUse">
<stop stop-color="#5DCCA4"/>
<stop offset="1" stop-color="#52C096"/>
</linearGradient>
<linearGradient id="paint3_linear_148_3100" x1="5285.94" y1="17991" x2="7225.82" y2="16506" gradientUnits="userSpaceOnUse">
<stop stop-color="#5DCCA4"/>
<stop offset="1" stop-color="#52C096"/>
</linearGradient>
<linearGradient id="paint4_linear_148_3100" x1="4587.9" y1="17178.5" x2="6517.46" y2="15688.9" gradientUnits="userSpaceOnUse">
<stop stop-color="#52CC9F" stop-opacity="0.9"/>
<stop offset="0.995" stop-color="#43B088"/>
</linearGradient>
<linearGradient id="paint5_linear_148_3100" x1="48.451" y1="35.5831" x2="65.1985" y2="6.15127" gradientUnits="userSpaceOnUse">
<stop stop-color="#52C096"/>
<stop offset="0.427" stop-color="#5DCCA4"/>
</linearGradient>
<linearGradient id="paint6_linear_148_3100" x1="166.719" y1="394.517" x2="168.025" y2="394.517" gradientUnits="userSpaceOnUse">
<stop stop-color="#5DCCA4"/>
<stop offset="1" stop-color="#52C096"/>
</linearGradient>
<linearGradient id="paint7_linear_148_3100" x1="-10.0244" y1="13157.6" x2="1095.25" y2="12327.4" gradientUnits="userSpaceOnUse">
<stop stop-color="#52CC9F" stop-opacity="0.9"/>
<stop offset="0.995" stop-color="#43B088"/>
</linearGradient>
<linearGradient id="paint8_linear_148_3100" x1="1186.85" y1="17696" x2="3280.85" y2="14725.3" gradientUnits="userSpaceOnUse">
<stop stop-color="#52CC9F" stop-opacity="0.9"/>
<stop offset="0.995" stop-color="#43B088"/>
</linearGradient>
<linearGradient id="paint9_linear_148_3100" x1="166.719" y1="394.517" x2="168.025" y2="394.517" gradientUnits="userSpaceOnUse">
<stop stop-color="#5DCCA4"/>
<stop offset="1" stop-color="#52C096"/>
</linearGradient>
</defs>
</svg>
