<svg width="201" height="71" viewBox="0 0 201 71" fill="none" xmlns="http://www.w3.org/2000/svg">
<g clip-path="url(#clip0_438_34074)">
<mask id="path-1-outside-1_438_34074" maskUnits="userSpaceOnUse" x="5.06641" y="4.45825" width="64" height="57" fill="black">
<rect fill="white" x="5.06641" y="4.45825" width="64" height="57"/>
<path d="M20.5849 29.3562C22.7526 33.431 21.714 38.2247 16.6322 40.6669C16.2072 40.8712 15.7418 40.5048 15.7493 40.0333C15.7644 39.0786 15.6095 38.1258 15.289 37.2204C14.2984 34.3187 12.5107 33.678 11.1346 31.0904C8.96824 27.0156 10.0055 22.2219 15.0873 19.7798C15.5123 19.5755 15.9777 19.9419 15.9702 20.4134C15.955 21.3681 16.1099 22.3208 16.4305 23.2262C17.4211 26.1279 19.2087 26.7687 20.5849 29.3562Z"/>
<path d="M63.115 31.0931C61.7376 33.6807 59.9499 34.32 58.9565 37.2204C58.6353 38.1261 58.4798 39.0792 58.4944 40.0344C58.5015 40.5052 58.036 40.8715 57.612 40.6668C52.5315 38.2206 51.4971 33.4255 53.6675 29.3534C54.6322 27.542 55.7965 26.6852 56.75 25.3398C56.9212 25.0983 56.7528 24.7751 56.4568 24.7751C56.0711 24.775 55.6858 24.7979 55.3029 24.8437C54.7285 24.919 54.1609 25.0402 53.6058 25.2059C52.9295 25.3955 52.2827 25.6776 51.6836 26.0442C51.0319 26.4434 49.9096 27.3503 48.6872 28.7347L37.9196 38.7953C37.5302 39.159 37.3356 39.3409 37.114 39.4094C36.919 39.4696 36.7102 39.4693 36.5154 39.4084C36.2941 39.3393 36.1 39.1568 35.7118 38.7918L23.7477 27.5424C23.7367 27.5321 23.7313 27.527 23.7248 27.5206C23.7198 27.5157 23.7125 27.5085 23.7076 27.5035C23.7013 27.497 23.6979 27.4934 23.6912 27.4863C23.3093 27.0814 18.8273 22.2534 18.8273 18.7082C18.8267 18.3695 18.8441 18.0311 18.8794 17.6943C19.034 16.2896 19.51 14.9394 20.2706 13.7485C20.6644 13.1236 21.134 12.5498 21.6687 12.0403C22.0505 11.6728 22.4626 11.3383 22.9007 11.0402C23.7856 10.4423 24.7674 10.0022 25.8025 9.73951C27.0467 9.42585 28.3425 9.37388 29.6079 9.5869C30.8733 9.79992 32.0806 10.2733 33.1536 10.977C33.7443 11.3645 34.8143 12.4554 35.6569 13.3579C36.1006 13.8331 36.3224 14.0707 36.5611 14.1524C36.7785 14.2268 36.9909 14.2274 37.2087 14.1543C37.4478 14.074 37.6704 13.8384 38.1157 13.367C38.9304 12.5046 39.945 11.4757 40.4923 11.0937C41.5023 10.3887 42.6453 9.89684 43.8516 9.64796C45.0578 9.39908 46.3021 9.39843 47.5087 9.64605C48.7152 9.89367 49.8587 10.3844 50.8694 11.0883C51.8801 11.7921 52.7369 12.6945 53.3876 13.7402C53.3883 13.7412 53.3889 13.7421 53.3895 13.743C53.4155 13.781 53.4088 13.8315 53.3763 13.864C53.3533 13.8871 53.3206 13.8974 53.2885 13.8915C53.2734 13.8888 53.2585 13.8862 53.2436 13.8843C52.6871 13.78 52.1222 13.7276 51.556 13.7279C51.4463 13.7279 51.3365 13.7306 51.2254 13.7347C49.2617 13.7995 47.2795 14.3663 45.7408 15.5881C45.199 16.0112 44.7897 16.6099 44.3685 17.1582C44.3436 17.1907 44.3311 17.2069 44.3159 17.2248C44.3031 17.24 44.2877 17.2571 44.274 17.2714C44.2577 17.2884 44.2415 17.3038 44.2091 17.3347L37.4123 23.7991C37.2725 23.932 37.2026 23.9985 37.1305 24.0467C36.8542 24.2313 36.5046 24.268 36.1959 24.1447C36.1155 24.1126 36.0333 24.0621 35.8689 23.961C35.8428 23.9449 35.8297 23.9369 35.8169 23.9285C35.7687 23.8968 35.7233 23.861 35.6812 23.8216C35.67 23.8111 35.6591 23.8003 35.6374 23.7786L35.4009 23.5431L29.7474 17.8883C29.708 17.8489 29.6883 17.8291 29.6726 17.8118C29.6487 17.7856 29.6542 17.7921 29.632 17.7644C29.6173 17.7462 29.5714 17.6832 29.4794 17.5573C29.305 17.3183 29.0781 17.1211 28.8152 16.9814C28.489 16.8081 28.1205 16.7304 27.7521 16.7572C27.496 16.7762 27.2461 16.8456 27.0168 16.9613C26.7875 17.077 26.5833 17.2367 26.4158 17.4315C26.2484 17.6262 26.121 17.852 26.0409 18.0961C25.9609 18.3401 25.9297 18.5975 25.9493 18.8536C25.968 19.1461 25.8881 19.2626 26.0371 19.5149C26.5828 20.3448 32.9613 27.3285 35.6735 30.2314C36.0486 30.6329 36.2362 30.8337 36.4793 30.9147C36.6862 30.9837 36.931 30.9812 37.1364 30.9082C37.3779 30.8224 37.5658 30.6131 37.9416 30.1946L46.8103 20.3175C48.3426 18.9655 50.2661 18.1376 52.3012 17.954C54.3364 17.7704 56.3771 18.2408 58.1265 19.2968C58.1314 19.2998 58.1363 19.3028 58.1412 19.3059C58.2012 19.3433 58.2311 19.362 58.2543 19.3748C58.2772 19.3875 58.2935 19.3958 58.3172 19.4068C58.3412 19.418 58.3673 19.4285 58.4195 19.4496C58.6714 19.5512 58.9234 19.6601 59.1706 19.7797C64.251 22.226 65.2855 27.021 63.115 31.0931Z"/>
<path d="M41.6186 41.7853C41.7551 41.6496 44.148 39.257 46.1548 37.2506C47.0114 36.3942 47.4397 35.966 47.8107 35.9368C48.1323 35.9115 48.4475 36.0422 48.657 36.2874C48.8987 36.5704 48.8987 37.1764 48.8987 38.3884V44.088C48.8987 44.3348 48.8987 44.4582 48.8708 44.5743C48.8461 44.6772 48.8053 44.7756 48.75 44.8659C48.6876 44.9677 48.6004 45.055 48.4259 45.2295L37.8447 55.8107C37.4451 56.2103 37.2453 56.41 37.0149 56.4849C36.8123 56.5507 36.594 56.5507 36.3914 56.4849C36.161 56.41 35.9612 56.2102 35.5617 55.8106L25.0433 45.2898C24.8689 45.1153 24.7816 45.0281 24.7193 44.9263C24.664 44.836 24.6232 44.7376 24.5985 44.6347C24.5706 44.5186 24.5706 44.3952 24.5706 44.1485V38.3995C24.5706 37.1771 24.5706 36.5659 24.8124 36.2829C25.0221 36.0373 25.3367 35.907 25.6587 35.9323C26.0297 35.9615 26.4619 36.3937 27.3263 37.2581L35.5677 45.4995C35.9653 45.8971 36.164 46.0958 36.3936 46.1708C36.5954 46.2367 36.8132 46.2371 37.0154 46.1722C37.2453 46.0983 37.4443 45.9011 37.8424 45.5066C39.2861 44.076 41.9845 41.3998 45.253 38.1467C45.607 37.7941 41.2728 42.1297 41.6186 41.7853Z"/>
</mask>
<path d="M20.5849 29.3562C22.7526 33.431 21.714 38.2247 16.6322 40.6669C16.2072 40.8712 15.7418 40.5048 15.7493 40.0333C15.7644 39.0786 15.6095 38.1258 15.289 37.2204C14.2984 34.3187 12.5107 33.678 11.1346 31.0904C8.96824 27.0156 10.0055 22.2219 15.0873 19.7798C15.5123 19.5755 15.9777 19.9419 15.9702 20.4134C15.955 21.3681 16.1099 22.3208 16.4305 23.2262C17.4211 26.1279 19.2087 26.7687 20.5849 29.3562Z" fill="white"/>
<path d="M63.115 31.0931C61.7376 33.6807 59.9499 34.32 58.9565 37.2204C58.6353 38.1261 58.4798 39.0792 58.4944 40.0344C58.5015 40.5052 58.036 40.8715 57.612 40.6668C52.5315 38.2206 51.4971 33.4255 53.6675 29.3534C54.6322 27.542 55.7965 26.6852 56.75 25.3398C56.9212 25.0983 56.7528 24.7751 56.4568 24.7751C56.0711 24.775 55.6858 24.7979 55.3029 24.8437C54.7285 24.919 54.1609 25.0402 53.6058 25.2059C52.9295 25.3955 52.2827 25.6776 51.6836 26.0442C51.0319 26.4434 49.9096 27.3503 48.6872 28.7347L37.9196 38.7953C37.5302 39.159 37.3356 39.3409 37.114 39.4094C36.919 39.4696 36.7102 39.4693 36.5154 39.4084C36.2941 39.3393 36.1 39.1568 35.7118 38.7918L23.7477 27.5424C23.7367 27.5321 23.7313 27.527 23.7248 27.5206C23.7198 27.5157 23.7125 27.5085 23.7076 27.5035C23.7013 27.497 23.6979 27.4934 23.6912 27.4863C23.3093 27.0814 18.8273 22.2534 18.8273 18.7082C18.8267 18.3695 18.8441 18.0311 18.8794 17.6943C19.034 16.2896 19.51 14.9394 20.2706 13.7485C20.6644 13.1236 21.134 12.5498 21.6687 12.0403C22.0505 11.6728 22.4626 11.3383 22.9007 11.0402C23.7856 10.4423 24.7674 10.0022 25.8025 9.73951C27.0467 9.42585 28.3425 9.37388 29.6079 9.5869C30.8733 9.79992 32.0806 10.2733 33.1536 10.977C33.7443 11.3645 34.8143 12.4554 35.6569 13.3579C36.1006 13.8331 36.3224 14.0707 36.5611 14.1524C36.7785 14.2268 36.9909 14.2274 37.2087 14.1543C37.4478 14.074 37.6704 13.8384 38.1157 13.367C38.9304 12.5046 39.945 11.4757 40.4923 11.0937C41.5023 10.3887 42.6453 9.89684 43.8516 9.64796C45.0578 9.39908 46.3021 9.39843 47.5087 9.64605C48.7152 9.89367 49.8587 10.3844 50.8694 11.0883C51.8801 11.7921 52.7369 12.6945 53.3876 13.7402C53.3883 13.7412 53.3889 13.7421 53.3895 13.743C53.4155 13.781 53.4088 13.8315 53.3763 13.864C53.3533 13.8871 53.3206 13.8974 53.2885 13.8915C53.2734 13.8888 53.2585 13.8862 53.2436 13.8843C52.6871 13.78 52.1222 13.7276 51.556 13.7279C51.4463 13.7279 51.3365 13.7306 51.2254 13.7347C49.2617 13.7995 47.2795 14.3663 45.7408 15.5881C45.199 16.0112 44.7897 16.6099 44.3685 17.1582C44.3436 17.1907 44.3311 17.2069 44.3159 17.2248C44.3031 17.24 44.2877 17.2571 44.274 17.2714C44.2577 17.2884 44.2415 17.3038 44.2091 17.3347L37.4123 23.7991C37.2725 23.932 37.2026 23.9985 37.1305 24.0467C36.8542 24.2313 36.5046 24.268 36.1959 24.1447C36.1155 24.1126 36.0333 24.0621 35.8689 23.961C35.8428 23.9449 35.8297 23.9369 35.8169 23.9285C35.7687 23.8968 35.7233 23.861 35.6812 23.8216C35.67 23.8111 35.6591 23.8003 35.6374 23.7786L35.4009 23.5431L29.7474 17.8883C29.708 17.8489 29.6883 17.8291 29.6726 17.8118C29.6487 17.7856 29.6542 17.7921 29.632 17.7644C29.6173 17.7462 29.5714 17.6832 29.4794 17.5573C29.305 17.3183 29.0781 17.1211 28.8152 16.9814C28.489 16.8081 28.1205 16.7304 27.7521 16.7572C27.496 16.7762 27.2461 16.8456 27.0168 16.9613C26.7875 17.077 26.5833 17.2367 26.4158 17.4315C26.2484 17.6262 26.121 17.852 26.0409 18.0961C25.9609 18.3401 25.9297 18.5975 25.9493 18.8536C25.968 19.1461 25.8881 19.2626 26.0371 19.5149C26.5828 20.3448 32.9613 27.3285 35.6735 30.2314C36.0486 30.6329 36.2362 30.8337 36.4793 30.9147C36.6862 30.9837 36.931 30.9812 37.1364 30.9082C37.3779 30.8224 37.5658 30.6131 37.9416 30.1946L46.8103 20.3175C48.3426 18.9655 50.2661 18.1376 52.3012 17.954C54.3364 17.7704 56.3771 18.2408 58.1265 19.2968C58.1314 19.2998 58.1363 19.3028 58.1412 19.3059C58.2012 19.3433 58.2311 19.362 58.2543 19.3748C58.2772 19.3875 58.2935 19.3958 58.3172 19.4068C58.3412 19.418 58.3673 19.4285 58.4195 19.4496C58.6714 19.5512 58.9234 19.6601 59.1706 19.7797C64.251 22.226 65.2855 27.021 63.115 31.0931Z" fill="white"/>
<path d="M41.6186 41.7853C41.7551 41.6496 44.148 39.257 46.1548 37.2506C47.0114 36.3942 47.4397 35.966 47.8107 35.9368C48.1323 35.9115 48.4475 36.0422 48.657 36.2874C48.8987 36.5704 48.8987 37.1764 48.8987 38.3884V44.088C48.8987 44.3348 48.8987 44.4582 48.8708 44.5743C48.8461 44.6772 48.8053 44.7756 48.75 44.8659C48.6876 44.9677 48.6004 45.055 48.4259 45.2295L37.8447 55.8107C37.4451 56.2103 37.2453 56.41 37.0149 56.4849C36.8123 56.5507 36.594 56.5507 36.3914 56.4849C36.161 56.41 35.9612 56.2102 35.5617 55.8106L25.0433 45.2898C24.8689 45.1153 24.7816 45.0281 24.7193 44.9263C24.664 44.836 24.6232 44.7376 24.5985 44.6347C24.5706 44.5186 24.5706 44.3952 24.5706 44.1485V38.3995C24.5706 37.1771 24.5706 36.5659 24.8124 36.2829C25.0221 36.0373 25.3367 35.907 25.6587 35.9323C26.0297 35.9615 26.4619 36.3937 27.3263 37.2581L35.5677 45.4995C35.9653 45.8971 36.164 46.0958 36.3936 46.1708C36.5954 46.2367 36.8132 46.2371 37.0154 46.1722C37.2453 46.0983 37.4443 45.9011 37.8424 45.5066C39.2861 44.076 41.9845 41.3998 45.253 38.1467C45.607 37.7941 41.2728 42.1297 41.6186 41.7853Z" fill="white"/>
<path d="M20.5849 29.3562L16.9465 31.2911L16.9468 31.2916L20.5849 29.3562ZM15.289 37.2204L11.3891 38.5518C11.3941 38.5665 11.3992 38.5811 11.4044 38.5958L15.289 37.2204ZM11.1346 31.0904L7.49603 33.0249L7.49628 33.0253L11.1346 31.0904ZM16.4305 23.2262L20.3304 21.8949C20.3253 21.8802 20.3202 21.8655 20.315 21.8508L16.4305 23.2262ZM63.115 31.0931L59.4785 29.1548L59.4775 29.1567L63.115 31.0931ZM58.9565 37.2204L62.8403 38.5979C62.8453 38.5838 62.8502 38.5697 62.8551 38.5556L58.9565 37.2204ZM53.6675 29.3534L57.304 31.2918L57.3047 31.2905L53.6675 29.3534ZM55.3029 24.8437L54.8138 20.752C54.7983 20.7539 54.7827 20.7558 54.7672 20.7578L55.3029 24.8437ZM53.6058 25.2059L54.7184 29.1737C54.7405 29.1675 54.7627 29.1611 54.7847 29.1545L53.6058 25.2059ZM51.6836 26.0442L49.5328 22.5292L49.5309 22.5303L51.6836 26.0442ZM48.6872 28.7347L51.5005 31.7457C51.5969 31.6557 51.6888 31.5611 51.7761 31.4623L48.6872 28.7347ZM18.8273 18.7082H22.9482L22.9481 18.7005L18.8273 18.7082ZM18.8794 17.6943L14.7833 17.2436C14.7826 17.2504 14.7818 17.2572 14.7811 17.2639L18.8794 17.6943ZM20.2706 13.7485L23.7437 15.9664C23.7481 15.9594 23.7526 15.9524 23.757 15.9453L20.2706 13.7485ZM21.6687 12.0403L24.5114 15.0237C24.5164 15.0189 24.5215 15.0141 24.5265 15.0092L21.6687 12.0403ZM22.9007 11.0402L20.5936 7.62566L20.5826 7.6332L22.9007 11.0402ZM25.8025 9.73951L24.7952 5.74368L24.7888 5.7453L25.8025 9.73951ZM33.1536 10.977L30.8935 14.4228L33.1536 10.977ZM40.4923 11.0937L38.1338 7.7145L40.4923 11.0937ZM53.3876 13.7402L49.8888 15.9173C49.922 15.9705 49.9563 16.0231 49.9919 16.0748L53.3876 13.7402ZM53.2436 13.8843L52.4844 17.9346C52.5595 17.9487 52.6349 17.9606 52.7106 17.9705L53.2436 13.8843ZM51.556 13.7279V17.8487L51.5579 17.8487L51.556 13.7279ZM51.2254 13.7347L51.3613 17.8533C51.3668 17.8532 51.3724 17.853 51.3779 17.8528L51.2254 13.7347ZM45.7408 15.5881L48.2771 18.8359C48.2859 18.8291 48.2946 18.8222 48.3033 18.8153L45.7408 15.5881ZM35.4009 23.5431L32.4867 26.4566L32.4929 26.4628L35.4009 23.5431ZM28.8152 16.9814L30.7485 13.3422L28.8152 16.9814ZM27.7521 16.7572L27.453 12.6472L27.4471 12.6477L27.7521 16.7572ZM26.0409 18.0961L29.9564 19.3806L26.0409 18.0961ZM25.9493 18.8536L30.0617 18.5901C30.0606 18.5733 30.0594 18.5565 30.0582 18.5398L25.9493 18.8536ZM26.0371 19.5149L22.4889 21.6105C22.5226 21.6675 22.5576 21.7237 22.594 21.7791L26.0371 19.5149ZM46.8103 20.3175L44.0839 17.2276C43.9642 17.3331 43.8508 17.4456 43.7442 17.5644L46.8103 20.3175ZM58.1265 19.2968L60.2751 15.7804C60.2687 15.7765 60.2623 15.7726 60.256 15.7688L58.1265 19.2968ZM59.1706 19.7797L57.3761 23.4893L57.3828 23.4926L59.1706 19.7797ZM41.6186 41.7853L38.7133 38.8628L38.7105 38.8656L41.6186 41.7853ZM45.253 38.1467L48.16 41.0675L48.1613 41.0662L45.253 38.1467ZM24.5985 44.6347L20.5915 45.5965L24.5985 44.6347ZM25.0433 45.2898L22.1291 48.2033L25.0433 45.2898ZM24.7193 44.9263L21.2055 47.0791L24.7193 44.9263ZM37.8447 55.8107L34.9308 52.8968L37.8447 55.8107ZM37.0149 56.4849L38.2882 60.4041L37.0149 56.4849ZM35.5617 55.8106L32.6475 58.7241L35.5617 55.8106ZM36.3914 56.4849L35.1176 60.4039L36.3914 56.4849ZM48.8708 44.5743L52.8778 45.5363L48.8708 44.5743ZM48.4259 45.2295L51.3398 48.1433L48.4259 45.2295ZM48.75 44.8659L52.2636 47.019L48.75 44.8659ZM46.1548 37.2506L43.2412 34.3365L46.1548 37.2506ZM47.8107 35.9368L48.1338 40.045L47.8107 35.9368ZM48.657 36.2874L45.5234 38.9636L48.657 36.2874ZM58.1412 19.3059L55.9586 22.8012L58.1412 19.3059ZM58.2543 19.3748L60.2506 15.7698L58.2543 19.3748ZM58.4195 19.4496L56.8784 23.2714L58.4195 19.4496ZM58.3172 19.4068L60.0566 15.6711L58.3172 19.4068ZM35.6735 30.2314L38.6845 27.418L35.6735 30.2314ZM36.4793 30.9147L35.176 34.824L36.4793 30.9147ZM37.9416 30.1946L41.0078 32.9477L37.9416 30.1946ZM37.1364 30.9082L35.756 27.0255L37.1364 30.9082ZM29.4794 17.5573L32.8077 15.1275L29.4794 17.5573ZM29.632 17.7644L32.844 15.1828L29.632 17.7644ZM29.7474 17.8883L26.8332 20.8018L29.7474 17.8883ZM29.6726 17.8118L26.6264 20.5871L29.6726 17.8118ZM56.75 25.3398L60.1122 27.7225L56.75 25.3398ZM53.2885 13.8915L52.5517 17.946L53.2885 13.8915ZM35.6569 13.3579L32.6448 16.1702L35.6569 13.3579ZM36.5611 14.1524L35.2272 18.0514L36.5611 14.1524ZM38.1157 13.367L41.1113 16.1968L38.1157 13.367ZM37.2087 14.1543L38.5198 18.061L37.2087 14.1543ZM35.5677 45.4995L32.6539 48.4134L35.5677 45.4995ZM36.3936 46.1708L35.1148 50.0882L36.3936 46.1708ZM37.8424 45.5066L34.9418 42.5795L37.8424 45.5066ZM37.0154 46.1722L38.2762 50.0954L37.0154 46.1722ZM37.9196 38.7953L35.1062 35.7842L37.9196 38.7953ZM37.114 39.4094L38.3304 43.3466L37.114 39.4094ZM36.5154 39.4084L35.2866 43.3418L36.5154 39.4084ZM37.4123 23.7991L40.2522 26.785L37.4123 23.7991ZM37.1305 24.0467L34.8413 20.6202L37.1305 24.0467ZM36.1959 24.1447L37.7241 20.3177L36.1959 24.1447ZM35.8169 23.9285L38.0806 20.4851L35.8169 23.9285ZM35.6374 23.7786L38.5454 20.8589L35.6374 23.7786ZM35.6812 23.8216L38.4993 20.815L35.6812 23.8216ZM23.6912 27.4863L20.6933 30.3137L23.6912 27.4863ZM23.7076 27.5035L20.7611 30.3844L23.7076 27.5035ZM23.7477 27.5424L26.5705 24.5402L23.7477 27.5424ZM23.7248 27.5206L26.6012 24.5698L23.7248 27.5206ZM24.8124 36.2829L21.6789 33.6066L24.8124 36.2829ZM27.3263 37.2581L24.4124 40.172L27.3263 37.2581ZM25.6587 35.9323L25.982 31.8242L25.6587 35.9323ZM44.3685 17.1582L41.1006 14.6478L44.3685 17.1582ZM44.3159 17.2248L41.1686 14.5648L44.3159 17.2248ZM44.2091 17.3347L47.049 20.3206L44.2091 17.3347ZM44.274 17.2714L41.298 14.4211L44.274 17.2714ZM53.3895 13.743L49.988 16.0692L53.3895 13.743ZM15.7493 40.0333L11.629 39.9679L15.7493 40.0333ZM58.4944 40.0344L62.6147 39.9715L58.4944 40.0344ZM16.9468 31.2916C17.5895 32.4998 17.6453 33.5834 17.391 34.4039C17.1507 35.1792 16.4991 36.1589 14.8472 36.9527L18.4171 44.3811C21.8471 42.7328 24.2557 40.0945 25.2632 36.8437C26.2568 33.6381 25.7479 30.2874 24.2229 27.4208L16.9468 31.2916ZM19.8696 40.0987C19.8925 38.655 19.6583 37.2143 19.1735 35.8451L11.4044 38.5958C11.5608 39.0374 11.6364 39.5022 11.629 39.9679L19.8696 40.0987ZM19.1889 35.8891C18.442 33.7014 17.3499 32.3408 16.4536 31.3194C15.5788 30.3226 15.1828 29.9262 14.7729 29.1555L7.49628 33.0253C8.46252 34.8422 9.64841 36.0599 10.2591 36.7558C10.8483 37.4272 11.1454 37.8377 11.3891 38.5518L19.1889 35.8891ZM14.7732 29.156C14.1306 27.9473 14.0748 26.8632 14.3291 26.0425C14.5694 25.2671 15.2207 24.2877 16.8722 23.494L13.3024 16.0655C9.87211 17.714 7.46388 20.3525 6.45666 23.6032C5.46349 26.8086 5.97227 30.1588 7.49603 33.0249L14.7732 29.156ZM11.8499 20.348C11.8269 21.7917 12.0612 23.2324 12.5459 24.6015L20.315 21.8508C20.1587 21.4092 20.0831 20.9445 20.0905 20.4788L11.8499 20.348ZM12.5306 24.5575C13.2774 26.7452 14.3695 28.1059 15.2658 29.1272C16.1406 30.124 16.5367 30.5204 16.9465 31.2911L24.2232 27.4213C23.2569 25.6044 22.0711 24.3868 21.4603 23.6909C20.8711 23.0195 20.5741 22.6089 20.3304 21.8949L12.5306 24.5575ZM59.4775 29.1567C59.0673 29.9272 58.671 30.3239 57.7962 31.3193C56.8998 32.3394 55.8068 33.6988 55.058 35.8852L62.8551 38.5556C63.0996 37.8416 63.3971 37.4311 63.9872 36.7596C64.599 36.0634 65.7853 34.8465 66.7526 33.0295L59.4775 29.1567ZM55.0727 35.8429C54.5871 37.2122 54.352 38.6532 54.374 40.0973L62.6147 39.9715C62.6076 39.5052 62.6835 39.04 62.8403 38.5979L55.0727 35.8429ZM59.3997 36.954C57.7484 36.1588 57.0975 35.1786 56.8577 34.4029C56.604 33.5821 56.6607 32.4987 57.304 31.2918L50.031 27.4151C48.5039 30.2802 47.9926 33.6304 48.9836 36.8367C49.9886 40.0882 52.3951 42.7286 55.8242 44.3797L59.3997 36.954ZM57.3047 31.2905C57.5781 30.7772 57.8845 30.3783 58.3189 29.8801C58.6869 29.4581 59.4757 28.6205 60.1122 27.7225L53.3879 22.9571C53.0708 23.4045 52.8008 23.668 52.107 24.4636C51.4798 25.183 50.7217 26.1183 50.0303 27.4164L57.3047 31.2905ZM56.4576 20.6543C55.9082 20.6542 55.3593 20.6868 54.8138 20.752L55.7921 28.9354C56.0124 28.9091 56.234 28.8959 56.4559 28.896L56.4576 20.6543ZM54.7672 20.7578C53.975 20.8617 53.1924 21.0287 52.4268 21.2573L54.7847 29.1545C55.1295 29.0516 55.4819 28.9764 55.8387 28.9296L54.7672 20.7578ZM52.4932 21.2381C51.4517 21.5302 50.4555 21.9646 49.5328 22.5292L53.8344 29.5592C54.1099 29.3906 54.4074 29.2609 54.7184 29.1737L52.4932 21.2381ZM49.5309 22.5303C48.4439 23.1963 47.0161 24.4015 45.5983 26.007L51.7761 31.4623C52.8032 30.2992 53.62 29.6906 53.8363 29.5581L49.5309 22.5303ZM26.6891 24.659C26.5631 24.5254 25.5091 23.3922 24.5128 21.9417C24.0152 21.2173 23.5886 20.4949 23.2984 19.8429C22.9903 19.1507 22.9481 18.7864 22.9481 18.7082H14.7065C14.7065 20.4026 15.2246 21.9713 15.7688 23.1941C16.3309 24.457 17.0487 25.6317 17.7193 26.6081C19.0595 28.5591 20.4374 30.0423 20.6933 30.3137L26.6891 24.659ZM22.9481 18.7005C22.9478 18.5081 22.9577 18.3159 22.9777 18.1247L14.7811 17.2639C14.7305 17.7463 14.7056 18.2309 14.7065 18.7159L22.9481 18.7005ZM22.9756 18.145C23.0609 17.3695 23.3237 16.624 23.7437 15.9664L16.7976 11.5305C15.6963 13.2549 15.0071 15.2098 14.7833 17.2436L22.9756 18.145ZM23.757 15.9453C23.9695 15.6082 24.2229 15.2986 24.5114 15.0237L18.826 9.05699C18.0451 9.8011 17.3593 10.639 16.7842 11.5516L23.757 15.9453ZM24.5265 15.0092C24.741 14.8027 24.9727 14.6147 25.2189 14.4471L20.5826 7.6332C19.9526 8.06186 19.3599 8.54297 18.8109 9.07143L24.5265 15.0092ZM25.2078 14.4546C25.6983 14.1232 26.2425 13.8793 26.8162 13.7337L24.7888 5.7453C23.2923 6.1251 21.8729 6.76131 20.5936 7.62568L25.2078 14.4546ZM26.8098 13.7353C27.501 13.5611 28.2209 13.5322 28.9238 13.6506L30.292 5.52324C28.4642 5.21554 26.5924 5.2906 24.7952 5.74368L26.8098 13.7353ZM28.9238 13.6506C29.6267 13.7689 30.2974 14.0319 30.8935 14.4228L35.4137 7.53127C33.8638 6.51471 32.1198 5.83094 30.292 5.52324L28.9238 13.6506ZM30.8935 14.4228C30.815 14.3713 30.8321 14.3741 30.9718 14.4956C31.0927 14.6006 31.2497 14.7458 31.4391 14.9299C31.8183 15.2982 32.2457 15.7427 32.6448 16.1702L38.669 10.5457C38.2255 10.0707 37.6966 9.51842 37.1824 9.0188C36.7385 8.58757 36.0735 7.96405 35.4137 7.53127L30.8935 14.4228ZM41.1113 16.1968C41.4994 15.7859 41.913 15.359 42.2791 15.0026C42.4621 14.8244 42.6159 14.6807 42.7365 14.5739C42.8732 14.4528 42.9034 14.4361 42.8509 14.4728L38.1338 7.7145C37.1628 8.3922 35.8309 9.7847 35.12 10.5373L41.1113 16.1968ZM42.8509 14.4728C43.4021 14.0881 44.0259 13.8196 44.6842 13.6838L43.0189 5.61212C41.2647 5.97404 39.6026 6.68937 38.1338 7.7145L42.8509 14.4728ZM44.6842 13.6838C45.3426 13.548 46.0217 13.5476 46.6802 13.6828L48.3371 5.60935C46.5826 5.24925 44.7731 5.2502 43.0189 5.61212L44.6842 13.6838ZM46.6802 13.6828C47.3387 13.8179 47.9628 14.0857 48.5144 14.4699L53.2244 7.70664C51.7546 6.68304 50.0917 5.96944 48.3371 5.60935L46.6802 13.6828ZM48.5144 14.4699C49.066 14.854 49.5337 15.3465 49.8888 15.9173L56.8865 11.5632C55.9402 10.0424 54.6942 8.73024 53.2244 7.70664L48.5144 14.4699ZM49.9919 16.0748C49.9906 16.0729 49.9893 16.0711 49.988 16.0692L56.7911 11.4169C56.7885 11.4131 56.7859 11.4094 56.7834 11.4056L49.9919 16.0748ZM54.0253 9.8371C53.9905 9.83077 53.8951 9.81352 53.7766 9.79805L52.7106 17.9705C52.6636 17.9644 52.6254 17.9584 52.5996 17.9542C52.5744 17.9501 52.5562 17.9468 52.5517 17.946L54.0253 9.8371ZM54.0027 9.83397C53.1954 9.68264 52.3757 9.60667 51.5542 9.60703L51.5579 17.8487C51.8687 17.8486 52.1789 17.8773 52.4844 17.9346L54.0027 9.83397ZM51.556 9.60703C51.3789 9.60703 51.215 9.61145 51.0729 9.61672L51.3779 17.8528C51.458 17.8498 51.5137 17.8487 51.556 17.8487V9.60703ZM51.0895 9.61614C48.4784 9.70228 45.574 10.4587 43.1783 12.3609L48.3033 18.8153C48.9851 18.274 50.0449 17.8968 51.3613 17.8533L51.0895 9.61614ZM43.2044 12.3403C42.1309 13.1787 41.3013 14.3866 41.1006 14.6478L47.6363 19.6687C47.7483 19.523 47.8926 19.3303 47.9677 19.2314C48.063 19.1057 48.1329 19.0159 48.1936 18.942C48.3209 18.787 48.3406 18.7864 48.2771 18.8359L43.2044 12.3403ZM41.3691 14.3487L34.5724 20.8131L40.2522 26.785L47.049 20.3206L41.3691 14.3487ZM38.5454 20.8589L38.3089 20.6233L32.4929 26.4628L32.7294 26.6983L38.5454 20.8589ZM32.8077 15.1275C32.2668 14.3866 31.5636 13.7753 30.7485 13.3422L26.8818 20.6206C26.5926 20.4669 26.3431 20.25 26.1512 19.9871L32.8077 15.1275ZM30.7485 13.3422C29.7373 12.805 28.595 12.5641 27.453 12.6472L28.0512 20.8672C27.646 20.8967 27.2406 20.8112 26.8818 20.6206L30.7485 13.3422ZM27.4471 12.6477C26.6505 12.7068 25.8735 12.9224 25.1604 13.2823L28.8732 20.6403C28.6187 20.7687 28.3414 20.8457 28.0571 20.8668L27.4471 12.6477ZM25.1604 13.2823C24.4473 13.6421 23.8122 14.139 23.2914 14.7446L29.5403 20.1183C29.3544 20.3345 29.1277 20.5118 28.8732 20.6403L25.1604 13.2823ZM23.2914 14.7446C22.7706 15.3502 22.3744 16.0526 22.1254 16.8115L29.9564 19.3806C29.8676 19.6515 29.7262 19.9022 29.5403 20.1183L23.2914 14.7446ZM22.1254 16.8115C21.8764 17.5704 21.7796 18.371 21.8404 19.1674L30.0582 18.5398C30.0799 18.8241 30.0453 19.1098 29.9564 19.3806L22.1254 16.8115ZM21.8369 19.1171C21.8281 18.9793 21.8326 18.8752 21.8333 18.8587C21.8376 18.765 21.8217 19.0404 21.8237 19.2409C21.8267 19.5369 21.857 19.9467 21.9846 20.4197C22.1103 20.8857 22.295 21.2823 22.4889 21.6105L29.5853 17.4194C29.7047 17.6214 29.8435 17.9088 29.9417 18.2729C30.0418 18.6438 30.063 18.9589 30.065 19.1577C30.0658 19.2437 30.0629 19.3053 30.0627 19.3102C30.0626 19.3129 30.0625 19.3134 30.0634 19.2973C30.064 19.2854 30.0653 19.2595 30.0666 19.231C30.0724 19.1025 30.0799 18.8742 30.0617 18.5901L21.8369 19.1171ZM22.594 21.7791C22.93 22.29 23.6845 23.1548 24.2949 23.85C25.0317 24.6892 25.9805 25.748 26.9871 26.8605C29.0012 29.0865 31.2889 31.5746 32.6624 33.0447L38.6845 27.418C37.3459 25.9853 35.0882 23.5301 33.0986 21.331C32.1033 20.231 31.1857 19.2068 30.4883 18.4125C29.6645 17.4742 29.4171 17.1548 29.4802 17.2507L22.594 21.7791ZM41.0078 32.9477L49.8765 23.0707L43.7442 17.5644L34.8754 27.4414L41.0078 32.9477ZM49.5368 23.4075C50.4115 22.6357 51.5096 22.163 52.6715 22.0582L51.931 13.8498C49.0226 14.1122 46.2736 15.2954 44.0839 17.2276L49.5368 23.4075ZM52.6715 22.0582C53.8333 21.9534 54.9983 22.2219 55.997 22.8247L60.256 15.7688C57.7558 14.2597 54.8395 13.5875 51.931 13.8498L52.6715 22.0582ZM55.9779 22.8131C55.9705 22.8086 55.964 22.8046 55.9586 22.8012L60.3238 15.8105C60.3087 15.801 60.2924 15.7909 60.2751 15.7804L55.9779 22.8131ZM56.8784 23.2714C57.068 23.3479 57.2321 23.4197 57.3761 23.4893L60.965 16.0701C60.6147 15.9006 60.2748 15.7545 59.9606 15.6278L56.8784 23.2714ZM57.3828 23.4926C59.0342 24.2877 59.6851 25.268 59.9248 26.0436C60.1785 26.8644 60.1219 27.9478 59.4785 29.1548L66.7515 33.0314C68.2787 30.1664 68.79 26.8161 67.799 23.6098C66.794 20.3584 64.3874 17.718 60.9583 16.0668L57.3828 23.4926ZM44.5238 44.7078C44.6659 44.5665 47.0669 42.1659 49.0684 40.1648L43.2412 34.3365C41.2292 36.3481 38.8443 38.7326 38.7133 38.8629L44.5238 44.7078ZM44.7779 38.3884V44.088H53.0195V38.3884H44.7779ZM45.512 42.3156L34.9308 52.8968L40.7586 58.7246L51.3398 48.1433L45.512 42.3156ZM28.6915 44.1485V38.3995H20.4498V44.1485H28.6915ZM24.4124 40.172L32.6539 48.4134L38.4816 42.5857L30.2402 34.3442L24.4124 40.172ZM40.7429 48.4338C42.1882 47.0016 44.8887 44.3233 48.16 41.0675L42.3461 35.2259C39.0802 38.4764 36.3841 41.1504 34.9418 42.5795L40.7429 48.4338ZM48.1613 41.0662C48.1782 41.0494 48.1702 41.0574 48.1577 41.0696C48.1557 41.0716 48.1445 41.0826 48.13 41.0965C48.1209 41.1053 48.0938 41.1309 48.0759 41.1476C48.0264 41.1928 47.288 41.7212 46.5159 42.0554C41.8581 40.4319 42.163 35.4235 42.234 35.3438C42.2556 35.3204 42.2879 35.2861 42.2984 35.2751C42.3143 35.2585 42.3269 35.2456 42.3287 35.2438C42.3394 35.2329 42.3475 35.2247 42.3427 35.2296C42.3349 35.2375 42.3106 35.2618 42.2675 35.3051C42.1844 35.3883 42.0462 35.5267 41.8706 35.7025C41.5197 36.0537 41.0221 36.5516 40.524 37.0501C40.0261 37.5484 39.5275 38.0472 39.1751 38.4C38.999 38.5762 38.8588 38.7167 38.7732 38.8024C38.7318 38.8439 38.6994 38.8764 38.6826 38.8933C38.6805 38.8954 38.6699 38.9061 38.6587 38.9175C38.656 38.9202 38.647 38.9295 38.6355 38.9413C38.6289 38.9481 38.6111 38.9668 38.5998 38.9787C38.5759 39.0043 38.4673 39.1263 38.3853 39.2253C38.4097 44.4144 43.9223 45.2082 44.3188 44.9006C44.3628 44.8613 44.4229 44.8059 44.4395 44.7902C44.4618 44.769 44.4793 44.7518 44.4809 44.7503C44.4999 44.7317 44.5234 44.7082 44.5266 44.705L38.7105 38.8656C38.6921 38.8839 38.7032 38.8728 38.7183 38.8581C38.7193 38.8571 38.7366 38.8402 38.7586 38.8192C38.7751 38.8036 38.8351 38.7482 38.8791 38.709C39.2755 38.4014 44.7881 39.1952 44.8125 44.3843C44.7306 44.4832 44.622 44.6052 44.5982 44.6307C44.587 44.6425 44.5693 44.6611 44.5628 44.6678C44.5517 44.6793 44.5431 44.6881 44.5409 44.6902C44.5321 44.6993 44.5257 44.7056 44.53 44.7013C44.5385 44.6928 44.5634 44.6678 44.6068 44.6243C44.6907 44.5403 44.8295 44.4012 45.0057 44.2249C45.3576 43.8727 45.8556 43.3743 46.3538 42.8758C46.8517 42.3775 47.3498 41.8791 47.7012 41.5274C47.8767 41.3517 48.0163 41.2119 48.1012 41.1269C48.142 41.086 48.1742 41.0536 48.1908 41.0369C48.1921 41.0357 48.2043 41.0234 48.217 41.0104C48.2193 41.008 48.2323 40.9948 48.2485 40.9779C48.2591 40.9668 48.2915 40.9324 48.3131 40.9089C48.3842 40.8292 48.6891 35.8207 44.0313 34.1972C43.2592 34.5314 42.5207 35.0599 42.4712 35.1051C42.4532 35.1219 42.426 35.1476 42.4168 35.1565C42.402 35.1707 42.3904 35.1821 42.3878 35.1846C42.3709 35.2012 42.35 35.2221 42.3448 35.2272L48.1613 41.0662ZM45.8739 25.7236L35.1062 35.7842L40.7329 41.8063L51.5005 31.7457L45.8739 25.7236ZM38.5346 35.7896L26.5705 24.5402L20.9249 30.5446L32.8889 41.7939L38.5346 35.7896ZM38.3151 20.6295L32.6617 14.9747L26.8332 20.8018L32.4867 26.4566L38.3151 20.6295ZM38.4759 52.897L27.9575 42.3763L22.1291 48.2033L32.6475 58.7241L38.4759 52.897ZM20.4498 44.1485C20.4498 44.1991 20.4233 44.896 20.5915 45.5965L28.6055 43.6728C28.6733 43.9553 28.6871 44.1752 28.6907 44.2524C28.6922 44.2858 28.692 44.2997 28.6918 44.2749C28.6915 44.2493 28.6915 44.2155 28.6915 44.1485H20.4498ZM27.9575 42.3763C27.9101 42.3289 27.8863 42.305 27.8683 42.2867C27.851 42.269 27.861 42.2787 27.8835 42.3034C27.9356 42.3604 28.0813 42.5257 28.233 42.7734L21.2055 47.0791C21.5819 47.6935 22.0933 48.1676 22.1291 48.2033L27.9575 42.3763ZM20.5915 45.5965C20.7171 46.1199 20.9243 46.6202 21.2055 47.0791L28.233 42.7734C28.4036 43.0518 28.5293 43.3553 28.6055 43.6728L20.5915 45.5965ZM34.9308 52.8968C34.8243 53.0034 34.7616 53.0658 34.7111 53.1148C34.6605 53.1638 34.6644 53.1578 34.6994 53.1281C34.7657 53.0718 35.1333 52.7633 35.7417 52.5657L38.2882 60.4041C39.1269 60.1316 39.7096 59.6858 40.0333 59.4111C40.3201 59.1676 40.6068 58.8763 40.7586 58.7246L34.9308 52.8968ZM32.6475 58.7241C32.7992 58.8758 33.0859 59.1672 33.3727 59.4107C33.6963 59.6854 34.279 60.1313 35.1176 60.4039L37.6651 52.5658C38.2734 52.7635 38.641 53.0721 38.7072 53.1283C38.7422 53.158 38.7461 53.164 38.6955 53.115C38.645 53.066 38.5824 53.0036 38.4759 52.897L32.6475 58.7241ZM35.7417 52.5657C36.3667 52.3626 37.04 52.3627 37.6651 52.5658L35.1176 60.4039C36.148 60.7388 37.2578 60.7388 38.2882 60.4041L35.7417 52.5657ZM44.7779 44.088C44.7779 44.155 44.7778 44.1888 44.7776 44.2145C44.7774 44.2393 44.7771 44.2253 44.7787 44.1919C44.7822 44.1147 44.796 43.8948 44.8638 43.6123L52.8778 45.5363C53.046 44.8356 53.0195 44.1386 53.0195 44.088H44.7779ZM51.3398 48.1433C51.3756 48.1075 51.8871 47.6334 52.2636 47.019L45.2364 42.7128C45.3882 42.4651 45.534 42.2998 45.5861 42.2427C45.6086 42.218 45.6186 42.2083 45.6012 42.226C45.5833 42.2443 45.5594 42.2682 45.512 42.3156L51.3398 48.1433ZM44.8638 43.6123C44.9401 43.2948 45.0658 42.9912 45.2364 42.7128L52.2636 47.019C52.5449 46.5601 52.7521 46.0597 52.8778 45.5363L44.8638 43.6123ZM49.0684 40.1648C49.2896 39.9436 49.4511 39.7823 49.5884 39.6495C49.7283 39.5141 49.7906 39.4595 49.8076 39.4454C49.8335 39.4237 49.7153 39.5284 49.4883 39.6521C49.247 39.7837 48.7786 39.9943 48.1338 40.045L47.4877 31.8287C45.9206 31.9519 44.8588 32.8402 44.5221 33.1216C44.0863 33.4859 43.6115 33.9663 43.2412 34.3365L49.0684 40.1648ZM53.0195 38.3884C53.0195 37.8645 53.0235 37.1889 52.973 36.6231C52.934 36.1864 52.8117 34.8068 51.7906 33.6112L45.5234 38.9636C45.1031 38.4715 44.9209 37.991 44.8434 37.7276C44.7705 37.4797 44.761 37.3222 44.764 37.356C44.766 37.3782 44.7715 37.461 44.7746 37.6558C44.7777 37.8469 44.7779 38.0754 44.7779 38.3884H53.0195ZM48.1338 40.045C47.1403 40.1231 46.1706 39.7214 45.5234 38.9636L51.7906 33.6112C50.7245 32.3629 49.1242 31.7 47.4877 31.8287L48.1338 40.045ZM55.9586 22.8012C55.9673 22.8067 56.115 22.9007 56.258 22.9799L60.2506 15.7698C60.2866 15.7898 60.3152 15.8064 60.3334 15.8172C60.3511 15.8276 60.3629 15.8349 60.3652 15.8363C60.3675 15.8377 60.3663 15.837 60.358 15.8318C60.3497 15.8267 60.3396 15.8204 60.3238 15.8105L55.9586 22.8012ZM59.9606 15.6278C59.9464 15.6221 59.9391 15.6191 59.9335 15.6168C59.928 15.6146 59.9305 15.6156 59.937 15.6183C59.9511 15.6241 59.9966 15.6432 60.0566 15.6711L56.5778 23.1426C56.723 23.2102 56.8678 23.2671 56.8784 23.2714L59.9606 15.6278ZM56.258 22.9799C56.365 23.0391 56.467 23.091 56.5778 23.1426L60.0566 15.6711C60.0766 15.6804 60.1113 15.6969 60.1544 15.7188C60.1975 15.7407 60.2313 15.7591 60.2506 15.7698L56.258 22.9799ZM32.6624 33.0447C32.7986 33.1904 33.0874 33.5055 33.3864 33.7716C33.7445 34.0903 34.3325 34.5428 35.176 34.824L37.7826 27.0054C38.383 27.2056 38.7557 27.5172 38.8655 27.6149C38.9126 27.6568 38.9264 27.6735 38.8836 27.6293C38.8404 27.5847 38.7856 27.5262 38.6845 27.418L32.6624 33.0447ZM34.8754 27.4414C34.7745 27.5538 34.7184 27.6161 34.6738 27.6641C34.6294 27.7118 34.6401 27.6977 34.6833 27.6576C34.7802 27.5676 35.1484 27.2415 35.756 27.0255L38.5168 34.791C39.3658 34.4891 39.9488 34.0154 40.2939 33.6947C40.5862 33.423 40.8695 33.1017 41.0078 32.9477L34.8754 27.4414ZM35.176 34.824C36.2553 35.1838 37.4449 35.1721 38.5168 34.791L35.756 27.0255C36.1161 26.8974 36.4596 26.8471 36.7676 26.8441C37.0756 26.841 37.42 26.8845 37.7826 27.0054L35.176 34.824ZM26.1512 19.9871C26.1882 20.0378 26.3263 20.2294 26.42 20.346L32.844 15.1828C32.859 15.2015 32.871 15.2169 32.879 15.2271C32.8872 15.2377 32.8939 15.2463 32.8984 15.2523C32.9072 15.2637 32.913 15.2715 32.9145 15.2734C32.917 15.2768 32.915 15.2742 32.905 15.2606C32.8959 15.2482 32.8836 15.2314 32.8668 15.2085C32.8502 15.1857 32.8309 15.1592 32.8077 15.1275L26.1512 19.9871ZM32.6617 14.9747C32.6512 14.9642 32.645 14.9581 32.6401 14.9532C32.6353 14.9483 32.6357 14.9487 32.6387 14.9518C32.6436 14.9567 32.676 14.9896 32.7188 15.0366L26.6264 20.5871C26.7228 20.6929 26.8268 20.7954 26.8332 20.8018L32.6617 14.9747ZM26.42 20.346C26.4213 20.3477 26.4223 20.3489 26.4248 20.352C26.4264 20.3539 26.4317 20.3606 26.4376 20.3678C26.4497 20.3828 26.4806 20.4211 26.5211 20.4684C26.5615 20.5156 26.5946 20.5521 26.6075 20.5664C26.6138 20.5733 26.6195 20.5796 26.6212 20.5814C26.6239 20.5844 26.6249 20.5855 26.6264 20.5871L32.7188 15.0366C32.7142 15.0316 32.7102 15.0272 32.7086 15.0254C32.7059 15.0224 32.708 15.0248 32.711 15.0281C32.7176 15.0354 32.7462 15.0669 32.7822 15.109C32.8183 15.1511 32.845 15.1842 32.8511 15.1918C32.854 15.1954 32.856 15.1978 32.8535 15.1947C32.8519 15.1928 32.8482 15.1881 32.844 15.1828L26.42 20.346ZM60.1122 27.7225C62.2335 24.7292 60.0695 20.6543 56.4568 20.6543V28.896C53.436 28.896 51.6088 25.4674 53.3879 22.9571L60.1122 27.7225ZM50.4624 10.9502C51.391 10.0216 52.7209 9.60004 54.0253 9.8371L52.5517 17.946C53.9203 18.1947 55.3156 17.7526 56.2903 16.7778L50.4624 10.9502ZM16.8727 23.4938C15.5367 24.136 14.1375 23.8215 13.2361 23.153C12.3844 22.5213 11.8316 21.4965 11.8499 20.348L20.0905 20.4788C20.1162 18.8587 19.3345 17.415 18.1458 16.5333C16.9073 15.6147 15.0629 15.2193 13.3019 16.0658L16.8727 23.4938ZM32.6448 16.1702C32.8211 16.359 33.1144 16.6775 33.4015 16.9406C33.6993 17.2136 34.3133 17.7387 35.2272 18.0514L37.895 10.2534C38.2384 10.3709 38.5018 10.5206 38.6797 10.6402C38.8465 10.7522 38.9487 10.8451 38.9702 10.8649C38.9925 10.8853 38.984 10.8791 38.9219 10.8146C38.8605 10.7507 38.786 10.6711 38.669 10.5457L32.6448 16.1702ZM35.12 10.5373C35.0026 10.6616 34.928 10.7405 34.8664 10.8037C34.8043 10.8676 34.7961 10.8733 34.8189 10.8527C34.8409 10.8328 34.944 10.7403 35.1117 10.6291C35.2905 10.5105 35.5544 10.3628 35.8975 10.2476L38.5198 18.061C39.4343 17.7541 40.0507 17.2338 40.3509 16.9619C40.6395 16.7005 40.9346 16.3839 41.1113 16.1968L35.12 10.5373ZM35.2272 18.0514C36.3014 18.4189 37.4434 18.4222 38.5198 18.061L35.8975 10.2476C36.183 10.1518 36.5219 10.0867 36.8967 10.0878C37.2716 10.0889 37.6101 10.156 37.895 10.2534L35.2272 18.0514ZM32.6539 48.4134C32.8046 48.5642 33.0905 48.8545 33.3765 49.0974C33.6996 49.3717 34.28 49.8156 35.1148 50.0882L37.6724 42.2534C38.2777 42.4509 38.6439 42.758 38.7109 42.8149C38.746 42.8448 38.7502 42.851 38.7 42.8023C38.6498 42.7537 38.5877 42.6917 38.4816 42.5857L32.6539 48.4134ZM34.9418 42.5795C34.8356 42.6847 34.7735 42.7461 34.7235 42.7941C34.6734 42.8422 34.6779 42.8357 34.7137 42.8056C34.7825 42.7478 35.1497 42.4433 35.7545 42.249L38.2762 50.0954C39.1109 49.8271 39.6926 49.3871 40.018 49.1136C40.3052 48.872 40.5922 48.5831 40.7429 48.4338L34.9418 42.5795ZM35.1148 50.0882C36.1415 50.4233 37.2481 50.4258 38.2762 50.0954L35.7545 42.249C36.3784 42.0485 37.0494 42.05 37.6724 42.2534L35.1148 50.0882ZM35.1062 35.7842C35.0022 35.8814 34.942 35.9375 34.8938 35.9812C34.8455 36.0249 34.8514 36.0177 34.8878 35.9886C34.9599 35.9313 35.3185 35.651 35.8976 35.4721L38.3304 43.3466C39.1311 43.0992 39.6978 42.6938 40.0199 42.4375C40.3027 42.2124 40.5863 41.9433 40.7329 41.8063L35.1062 35.7842ZM32.8889 41.7939C33.0352 41.9314 33.3179 42.2014 33.6 42.4273C33.9213 42.6847 34.4867 43.0919 35.2866 43.3418L37.7442 35.475C38.3227 35.6558 38.6805 35.9372 38.7523 35.9947C38.7887 36.0239 38.7945 36.0311 38.7464 35.9873C38.6983 35.9434 38.6383 35.8871 38.5346 35.7896L32.8889 41.7939ZM35.8976 35.4721C36.4993 35.2863 37.1431 35.2873 37.7442 35.475L35.2866 43.3418C36.2773 43.6513 37.3387 43.653 38.3304 43.3466L35.8976 35.4721ZM34.5724 20.8131C34.5348 20.8488 34.5141 20.8685 34.4979 20.8837C34.4819 20.8987 34.4861 20.8945 34.501 20.8812C34.5312 20.8542 34.6551 20.7446 34.8413 20.6202L39.4198 27.4731C39.8579 27.1804 40.2275 26.8086 40.2522 26.785L34.5724 20.8131ZM33.7107 27.4715C33.7398 27.4894 34.1785 27.7764 34.6678 27.9718L37.7241 20.3177C37.9319 20.4007 38.076 20.4823 38.1111 20.5024C38.1284 20.5123 38.1334 20.5155 38.1146 20.5042C38.0956 20.4926 38.0713 20.4777 38.0272 20.4506L33.7107 27.4715ZM34.8413 20.6202C35.6937 20.0507 36.772 19.9375 37.7241 20.3177L34.6678 27.9718C36.2372 28.5984 38.0147 28.4119 39.4198 27.4731L34.8413 20.6202ZM38.0272 20.4506C38.02 20.4462 38.0166 20.4441 38.014 20.4425C38.0116 20.441 38.0134 20.4421 38.0173 20.4445C38.0266 20.4503 38.0501 20.4651 38.0806 20.4851L33.5532 27.3719C33.6301 27.4224 33.7045 27.4677 33.7107 27.4715L38.0272 20.4506ZM32.7294 26.6983C32.7345 26.7034 32.7959 26.7652 32.863 26.8281L38.4993 20.815C38.526 20.84 38.5458 20.8594 38.5536 20.867C38.5569 20.8703 38.5584 20.8718 38.5563 20.8698C38.5542 20.8676 38.5514 20.8648 38.5454 20.8589L32.7294 26.6983ZM38.0806 20.4851C38.2294 20.5829 38.3694 20.6933 38.4993 20.815L32.863 26.8281C33.0771 27.0288 33.308 27.2107 33.5532 27.3719L38.0806 20.4851ZM20.6933 30.3137C20.7023 30.3232 20.7271 30.3496 20.7611 30.3844L26.6541 24.6226C26.6572 24.6258 26.6615 24.6302 26.6666 24.6354C26.6718 24.6408 26.6767 24.6459 26.6813 24.6507C26.6856 24.6552 26.6887 24.6586 26.69 24.6599C26.6908 24.6608 26.6913 24.6613 26.6891 24.659L20.6933 30.3137ZM26.5705 24.5402C26.5674 24.5373 26.5664 24.5364 26.5658 24.5358C26.5654 24.5354 26.5671 24.537 26.5699 24.5397C26.573 24.5426 26.5777 24.5471 26.5834 24.5526C26.5893 24.5582 26.5953 24.564 26.6012 24.5698L20.8483 30.4714C20.8864 30.5086 20.9204 30.5403 20.9249 30.5446L26.5705 24.5402ZM20.7611 30.3844C20.7891 30.413 20.8197 30.4435 20.8483 30.4714L26.6012 24.5698C26.6138 24.582 26.6229 24.5911 26.6278 24.596C26.6328 24.601 26.6419 24.6101 26.6541 24.6226L20.7611 30.3844ZM28.6915 38.3995C28.6915 38.0839 28.6916 37.8529 28.6947 37.6595C28.6979 37.4624 28.7035 37.3771 28.7056 37.3527C28.7089 37.3162 28.6998 37.4718 28.6277 37.7181C28.5514 37.9791 28.3697 38.463 27.9459 38.9592L21.6789 33.6066C20.6541 34.8064 20.5343 36.194 20.4961 36.6252C20.4459 37.192 20.4498 37.8698 20.4498 38.3995H28.6915ZM30.2402 34.3442C29.8656 33.9697 29.3891 33.4876 28.9528 33.1223C28.6208 32.8444 27.555 31.948 25.982 31.8242L25.3354 40.0405C24.6849 39.9893 24.2142 39.7756 23.9757 39.645C23.7506 39.5218 23.6341 39.4182 23.6622 39.4417C23.681 39.4575 23.7453 39.5139 23.8869 39.651C24.0258 39.7855 24.1893 39.9488 24.4124 40.172L30.2402 34.3442ZM27.9459 38.9592C27.2989 39.7166 26.3285 40.1186 25.3354 40.0405L25.982 31.8242C24.345 31.6954 22.7453 32.358 21.6789 33.6066L27.9459 38.9592ZM41.1006 14.6478C41.0936 14.6569 41.091 14.6602 41.0894 14.6624C41.0879 14.6642 41.0912 14.66 41.097 14.6526C41.1032 14.6447 41.1134 14.6319 41.1263 14.6159C41.1397 14.5994 41.1539 14.5822 41.1686 14.5648L47.4633 19.8848C47.5529 19.7788 47.6275 19.6801 47.6363 19.6687L41.1006 14.6478ZM47.049 20.3206C47.0579 20.3122 47.1528 20.2233 47.25 20.1218L41.298 14.4211C41.335 14.3823 41.3649 14.3531 41.3788 14.3396C41.3845 14.3341 41.3875 14.3313 41.3848 14.3338C41.382 14.3365 41.3781 14.3402 41.3691 14.3487L47.049 20.3206ZM41.1686 14.5648C41.1928 14.5362 41.2141 14.512 41.2321 14.4919C41.2502 14.4719 41.272 14.4482 41.298 14.4211L47.25 20.1218C47.3228 20.0458 47.3953 19.9652 47.4633 19.8848L41.1686 14.5648ZM49.988 16.0692C48.8052 14.3395 49.2084 12.2043 50.4624 10.9502L56.2903 16.7778C57.6093 15.4588 58.0258 13.2224 56.7911 11.4169L49.988 16.0692ZM14.8469 36.9528C16.1828 36.3107 17.582 36.6251 18.4834 37.2937C19.3351 37.9253 19.8878 38.9501 19.8696 40.0987L11.629 39.9679C11.6032 41.588 12.385 43.0317 13.5737 43.9133C14.8122 44.8319 16.6566 45.2274 18.4174 44.3809L14.8469 36.9528ZM54.374 40.0973C54.3564 38.9468 54.9111 37.9231 55.7617 37.2929C56.6621 36.6257 58.0639 36.3091 59.4035 36.9558L55.8205 44.3779C57.584 45.2292 59.4307 44.8318 60.6681 43.915C61.8556 43.0351 62.6395 41.5928 62.6147 39.9715L54.374 40.0973Z" fill="white" mask="url(#path-1-outside-1_438_34074)"/>
<g clip-path="url(#clip1_438_34074)">
<path d="M39.9172 43.4902C40.0487 43.3596 42.8141 40.5945 45.2432 38.1657C46.3857 37.0235 46.9569 36.4523 47.4516 36.4134C47.8803 36.3797 48.3007 36.5539 48.58 36.8809C48.9023 37.2582 48.9023 38.0661 48.9023 39.6819V43.8652C48.9023 44.1942 48.9023 44.3587 48.8651 44.5135C48.8321 44.6508 48.7778 44.782 48.704 44.9023C48.6209 45.0381 48.5045 45.1544 48.2719 45.3871L38.229 55.4299C37.6962 55.9628 37.4297 56.2292 37.1225 56.329C36.8523 56.4168 36.5612 56.4167 36.291 56.3289C35.9838 56.229 35.7175 55.9625 35.1848 55.4295L31.6043 51.8471L25.2046 45.4474C24.972 45.2148 24.8556 45.0984 24.7724 44.9627C24.6987 44.8423 24.6443 44.7111 24.6114 44.5739C24.5742 44.419 24.5742 44.2545 24.5742 43.9255V39.6986C24.5742 38.0687 24.5742 37.2537 24.8965 36.8764C25.1762 36.5489 25.5957 36.3752 26.0249 36.409C26.5197 36.4479 27.0959 37.0242 28.2484 38.1766L35.1974 45.1256C35.7255 45.6538 35.9896 45.9178 36.2955 46.0178C36.5641 46.1055 36.855 46.1063 37.1241 46.0201C37.4305 45.9218 37.6951 45.66 38.2244 45.1365C39.4137 43.9602 41.3131 42.0776 43.9622 39.4411C44.3162 39.0885 39.5715 43.8346 39.9172 43.4902Z" fill="url(#paint0_linear_438_34074)"/>
<path d="M20.5888 29.3561C22.7565 33.4309 21.7179 38.2246 16.6361 40.6667C16.2111 40.871 15.7457 40.5046 15.7532 40.0332C15.7683 39.0784 15.6134 38.1257 15.2929 37.2203C14.3023 34.3186 12.5146 33.6779 11.1385 31.0903C8.97215 27.0155 10.0094 22.2218 15.0912 19.7796C15.5162 19.5753 15.9816 19.9417 15.9741 20.4132C15.9589 21.368 16.1138 22.3207 16.4344 23.2261C17.425 26.1278 19.2127 26.7685 20.5888 29.3561Z" fill="url(#paint1_linear_438_34074)"/>
<path d="M63.1159 31.0928C61.7384 33.6804 59.9507 34.3198 58.9574 37.2201C58.6361 38.1258 58.4806 39.0789 58.4952 40.0342C58.5024 40.5049 58.0368 40.8713 57.6128 40.6666C52.5324 38.2203 51.4979 33.4252 53.6684 29.3532C54.6331 27.5418 55.7973 26.685 56.7508 25.3395C56.922 25.098 56.7536 24.7749 56.4576 24.7749C56.072 24.7748 55.6867 24.7977 55.3038 24.8435C54.7293 24.9188 54.1618 25.0399 53.6066 25.2057C52.9304 25.3953 52.2835 25.6774 51.6845 26.0439C51.0328 26.4432 49.9105 27.3501 48.688 28.7344L44.9411 32.4813L38.3368 39.0868C37.8041 39.6196 37.5377 39.886 37.2306 39.9858C36.9604 40.0736 36.6693 40.0736 36.3991 39.9858C36.092 39.886 35.8256 39.6197 35.2928 39.0869L31.6672 35.4613L23.7342 27.5296C23.7286 27.5241 23.7259 27.5213 23.722 27.5174C23.7193 27.5146 23.7143 27.5095 23.7117 27.5068C23.7078 27.5028 23.7061 27.5009 23.7026 27.4973C23.404 27.1818 18.8281 22.2901 18.8281 18.7079C18.8275 18.3693 18.8449 18.0308 18.8803 17.694C19.0348 16.2894 19.5109 14.9392 20.2715 13.7482C20.6652 13.1233 21.1348 12.5496 21.6695 12.0401C22.0513 11.6726 22.4635 11.338 22.9016 11.0399C23.7864 10.442 24.7682 10.002 25.8033 9.73927C27.0476 9.4256 28.3434 9.37364 29.6087 9.58666C30.8012 9.78741 31.9423 10.2194 32.9678 10.8576C33.0253 10.8934 33.0541 10.9113 33.0916 10.9383C33.1214 10.9598 33.1603 10.9907 33.188 11.0149C33.2229 11.0453 33.2522 11.0746 33.311 11.1334L35.3599 13.1831C35.8927 13.7161 36.1591 13.9826 36.4663 14.0824C36.7365 14.1703 37.0277 14.1703 37.2979 14.0824C37.6051 13.9826 37.8715 13.7161 38.4043 13.1831L40.3587 11.2279C40.4092 11.1774 40.4344 11.1522 40.4642 11.1257C40.4878 11.1048 40.521 11.0775 40.5462 11.0585C40.5779 11.0345 40.602 11.0184 40.6502 10.9862C41.621 10.3385 42.7082 9.88378 43.8524 9.64771C45.0587 9.39884 46.303 9.39819 47.5095 9.64581C48.716 9.89343 49.8595 10.3841 50.8702 11.088C51.881 11.7919 50.7196 11.7328 51.3703 12.7785C51.3724 12.7817 51.3745 12.7848 51.3767 12.7879C51.3998 12.8221 51.3938 12.8675 51.3646 12.8967C51.3389 12.9224 51.2999 12.93 51.2662 12.9166C50.9576 12.7935 51.2561 12.9265 51.2262 12.9226C50.6698 12.8183 51.1081 12.6779 50.542 12.6781C50.4322 12.6781 51.3373 13.7304 51.2262 13.7345C49.2625 13.7993 47.3225 14.3072 45.7837 15.529C45.2107 15.9765 44.7438 16.6792 44.2963 17.2523L37.6648 23.8837C37.6563 23.8923 37.652 23.8966 37.6484 23.9002C37.1245 24.4161 36.2833 24.4158 35.7598 23.8995C35.7562 23.8959 35.7519 23.8916 35.7434 23.8831L35.4017 23.5428L31.5451 19.6862L29.7985 17.9384C29.7731 17.9129 29.7604 17.9002 29.7441 17.8827C29.7119 17.8481 29.7325 17.8713 29.7019 17.8352C29.6865 17.817 29.6034 17.7115 29.4373 17.5004C29.2692 17.2868 29.0578 17.1096 28.816 16.9812C28.4898 16.8079 28.1213 16.7302 27.7529 16.757C27.4968 16.776 27.2469 16.8453 27.0177 16.961C26.7884 17.0767 26.5841 17.2365 26.4167 17.4312C26.2492 17.626 26.1218 17.8518 26.0418 18.0958C25.9617 18.3399 25.9306 18.5973 25.9501 18.8534C25.9689 19.1458 26.0603 19.4944 26.2094 19.7467L26.0379 19.5147C26.5604 20.3091 32.4281 26.0404 35.3076 28.8353C35.8366 29.3487 36.1011 29.6055 36.4063 29.7011C36.6742 29.7851 36.9633 29.7829 37.23 29.695C37.5337 29.5948 37.7956 29.3328 38.3195 28.8089L46.8112 20.3173C48.3434 18.9653 50.2669 18.1373 52.3021 17.9538C54.3372 17.7702 56.3779 18.2406 58.1273 19.2965C58.1855 19.3321 58.2147 19.3499 58.2306 19.359C58.281 19.388 58.3088 19.402 58.3622 19.4253C58.379 19.4326 58.3981 19.4404 58.4364 19.4558C58.683 19.5556 58.9295 19.6624 59.1714 19.7795C64.2519 22.2257 65.2863 27.0208 63.1159 31.0928Z" fill="url(#paint2_linear_438_34074)"/>
<path d="M63.1169 31.093C61.7395 33.6806 59.9518 34.3199 58.9584 37.2203C58.6372 38.126 58.4817 39.0791 58.4963 40.0344C58.5034 40.5051 58.0379 40.8714 57.6139 40.6667C52.5334 38.2205 51.499 33.4254 53.6694 29.3533C54.7574 27.3105 56.0992 26.4818 57.1063 24.797C57.4011 24.3 57.643 23.7735 57.8279 23.2261C58.2585 22.0121 58.3914 20.7128 58.2159 19.4375C58.2112 19.4034 58.2434 19.3783 58.2752 19.3914C58.5756 19.5094 58.8775 19.6369 59.1725 19.7796C64.2529 22.2259 65.2874 27.021 63.1169 31.093Z" fill="url(#paint3_linear_438_34074)"/>
<path d="M46.0205 15.6055C47.1276 14.6317 49.3226 13.6776 51.2275 13.7345L51.2974 13.7366C52.2307 13.7662 52.6973 13.7809 52.8429 13.6635C52.9738 13.558 53.0392 13.4112 53.03 13.2433C53.0198 13.0565 52.7342 12.7588 52.1629 12.1634L52.1629 12.1634C51.7904 11.7751 51.3543 11.3903 50.8715 11.088C49.2976 10.1027 48.7173 9.89343 47.5108 9.6458C46.3042 9.39818 45.0599 9.39883 43.8537 9.64771C42.6474 9.89659 41.5044 10.3885 40.4944 11.0934C40.038 11.412 39.2566 12.1804 38.5372 12.927L38.5372 12.927C37.9325 13.5546 37.6301 13.8683 37.3151 13.9728C37.0244 14.0692 36.7527 14.0686 36.4624 13.9708C36.1478 13.8648 35.8458 13.5484 35.2419 12.9156L35.2418 12.9156C34.4876 12.1255 33.6523 11.3025 33.1557 10.9768C32.0827 10.273 30.8754 9.79967 29.61 9.58666C28.6395 9.42327 27.651 9.41577 26.6817 9.56268C26.4197 9.60238 26.2888 9.62222 26.1085 9.70829C25.9806 9.76931 25.7822 9.9176 25.6875 10.0229C25.5539 10.1715 25.4981 10.2911 25.3863 10.5301C25.2234 10.8785 25.0826 11.2371 24.9649 11.6038C24.8365 11.9967 24.7365 12.3984 24.6658 12.8057C24.2476 15.1353 24.8236 17.6531 26.1236 19.6311C26.1329 19.6427 26.1544 19.6295 26.1486 19.6158C26.0589 19.4045 25.9671 19.0979 25.9514 18.8534C25.9318 18.5973 25.963 18.3399 26.043 18.0958C26.1231 17.8518 26.2505 17.626 26.4179 17.4312C26.5854 17.2365 26.7896 17.0767 27.0189 16.961C27.2482 16.8453 27.4981 16.776 27.7542 16.757C28.1226 16.7302 28.4911 16.8079 28.8172 16.9812C29.0212 17.0895 29.3796 17.5305 29.5981 17.7366L31.5463 19.6862L35.403 23.5428L35.7446 23.8831L35.7611 23.8995C36.2846 24.4158 37.1257 24.4161 37.6496 23.9002L37.6661 23.8838L44.2976 17.2523C44.8913 16.6166 45.4667 16.0925 46.0205 15.6055Z" fill="url(#paint4_linear_438_34074)"/>
</g>
</g>
<path d="M81 17H90L96 22.5L103 17L111.5 16.5V54.5L101.5 55V34L96 39L91.5 36L90 49L86 54L77.5 54.5L80 36L81 17Z" fill="white"/>
<path d="M169.348 23.7611L169.349 23.7451C169.476 21.2091 168.759 19.0033 167.33 17.3718C166.871 16.848 166.342 16.3895 165.759 16.0087C165.409 15.7804 165 15.6589 164.582 15.6589H141.998C141.575 15.6589 141.162 15.7833 140.809 16.0168C140.391 16.2938 140.001 16.6101 139.643 16.9617L139.643 16.9619C137.964 18.6142 137.1 20.9814 137.237 23.7405C137.253 24.0765 137.283 24.4027 137.324 24.7178C137.422 25.4826 137.923 26.1362 138.635 26.4312C139.347 26.7261 140.163 26.6174 140.774 26.146C141.039 25.9409 141.333 25.7723 141.646 25.645H147.31V52.7397C147.31 53.9283 148.273 54.8919 149.462 54.8919H156.481C157.67 54.8919 158.633 53.9283 158.633 52.7397V25.6457H164.94C165.251 25.7718 165.543 25.9396 165.806 26.144C166.416 26.617 167.233 26.7271 167.946 26.4326C168.66 26.138 169.161 25.4839 169.26 24.7184C169.3 24.4017 169.33 24.0826 169.348 23.7611Z" fill="white" stroke="white" stroke-width="4.30435" stroke-linejoin="round"/>
<path d="M126.198 25.8957C125.973 26.5713 125.862 27.398 125.863 28.3757C125.863 32.4449 126.963 34.7013 129.164 35.1449L126.198 25.8957ZM126.198 25.8957C126.616 25.9137 127.033 25.9618 127.446 26.0399L127.846 23.9252L126.966 21.9613C126.026 22.3826 125.334 23.0155 124.836 23.7798C124.585 23.8026 124.334 23.8341 124.084 23.8744C123.034 24.0534 122.017 24.3721 121.061 24.819L126.198 25.8957ZM131.316 35.1449C131.316 34.1202 130.594 33.2376 129.589 33.0352C129.23 32.9628 128.918 32.7835 128.622 32.1765C128.278 31.4695 128.015 30.2632 128.015 28.3757L128.015 28.3738C128.013 26.2577 128.601 25.9454 128.726 25.8891C129.584 25.5045 130.093 24.6074 129.983 23.6735C129.873 22.7397 129.17 21.9853 128.246 21.8105C126.76 21.5294 125.235 21.5088 123.742 21.7496L123.723 21.7528C121.925 22.0592 120.209 22.7122 118.671 23.6723C118.445 23.7219 118.225 23.8083 118.02 23.932C117.936 23.9825 117.855 24.0373 117.777 24.0962C117.352 24.4156 117.06 24.881 116.958 25.4026C116.769 26.3697 116.676 27.3531 116.682 28.3383C116.685 32.1107 117.602 35.3522 119.566 37.8681C118.194 38.9524 117.146 40.4181 116.493 42.0972C115.972 43.4347 115.828 44.6106 115.72 45.4852C115.705 45.6145 115.689 45.7373 115.674 45.8529C115.558 46.7302 115.42 47.397 114.92 48.2364L114.908 48.2571C114.482 48.991 113.879 49.6146 113.149 50.0711C112.487 50.4845 112.101 51.2235 112.14 52.0027C112.178 52.7818 112.635 53.4791 113.334 53.8252C113.66 53.9864 114.007 54.1464 114.373 54.2952L114.38 54.298C118.129 55.81 121.726 55.3564 124.39 53.3284L124.407 53.3151C125.852 52.1919 126.959 50.6952 127.602 48.9868C128.12 47.6534 128.263 46.4809 128.37 45.6077C128.386 45.479 128.401 45.3567 128.416 45.2414C128.532 44.3624 128.67 43.6949 129.168 42.8559L129.168 42.856L129.175 42.8448C129.513 42.2667 129.96 41.7545 130.493 41.3359C131.013 40.9279 131.316 40.3038 131.316 39.6432V35.1449Z" fill="white" stroke="white" stroke-width="4.30435" stroke-linejoin="round"/>
<path d="M128.88 25.8373C129.86 25.5823 130.529 24.6789 130.488 23.6673C130.447 22.6557 129.707 21.8095 128.71 21.6346C127.056 21.3447 125.364 21.3434 123.709 21.6307C121.598 21.9942 119.6 22.835 117.87 24.0895C117.462 24.3852 117.171 24.8144 117.047 25.3026C117.047 25.3041 117.046 25.306 117.046 25.3084C117.039 25.3346 117.018 25.4147 116.999 25.5122C116.979 25.6077 116.963 25.7042 116.952 25.8013C116.853 26.6568 117.273 27.4891 118.02 27.917C118.768 28.3449 119.698 28.2861 120.386 27.7675C121.061 27.2582 121.804 26.8407 122.595 26.527L122.595 26.527L122.598 26.5254C123.193 26.2879 123.812 26.1124 124.445 26.002C125.437 25.8387 126.45 25.8532 127.436 26.0449C127.885 26.132 128.35 26.0741 128.763 25.8795C128.801 25.862 128.84 25.8478 128.88 25.8373Z" fill="white" stroke="white" stroke-width="4.30435" stroke-linejoin="round"/>
<path d="M187.106 18.6669L187.121 18.6817C189.468 20.9707 190.515 24.0875 190.515 27.7265V52.7394C190.515 53.928 189.552 54.8916 188.363 54.8916H181.344C180.155 54.8916 179.192 53.928 179.192 52.7394V43.2856C179.004 42.9662 178.897 42.5941 178.897 42.1968V36.39C178.897 35.9927 179.004 35.6206 179.192 35.3012V26.6532V26.6423H179.192C179.193 26.5027 179.186 26.3631 179.172 26.2241C179.17 26.2106 179.169 26.1971 179.168 26.1836C179.143 25.8855 179.098 25.7079 179.065 25.6167C179.059 25.6003 179.054 25.5879 179.05 25.5792C178.932 25.4526 178.829 25.3121 178.744 25.1608C178.725 25.1295 178.706 25.0977 178.687 25.0655C178.613 24.9343 178.533 24.8063 178.446 24.6819C177.42 23.2424 175.441 22.3442 173.124 22.5583C172.254 22.6387 171.421 22.185 171.017 21.4101C170.613 20.6352 170.718 19.693 171.282 19.0257C171.283 19.0251 171.284 19.0241 171.285 19.0229C171.299 19.0063 171.356 18.9382 171.432 18.8601C171.473 18.8173 171.511 18.7802 171.529 18.7624C171.531 18.7609 171.532 18.7596 171.533 18.7584C171.547 18.7451 171.553 18.7389 171.555 18.7369C171.573 18.7182 171.591 18.6999 171.609 18.6818C173.694 16.6479 176.319 15.6591 179.323 15.6589L187.106 18.6669ZM187.106 18.6669C184.99 16.6427 182.343 15.6578 179.323 15.6589L187.106 18.6669Z" fill="white" stroke="white" stroke-width="4.30435" stroke-linejoin="round"/>
<path d="M183.2 36.5043C183.2 35.3157 182.236 34.3522 181.048 34.3522H179.491L179.491 26.6641C179.491 26.6638 179.491 26.6634 179.491 26.6631C179.491 26.3693 179.509 26.1357 179.535 25.9541C180.267 26.3823 181.206 26.3474 181.912 25.8186C182.766 25.1785 183.023 24.0087 182.514 23.07C182.347 22.7635 182.164 22.4668 181.963 22.1814L181.962 22.1805C179.907 19.2579 176.315 17.8845 172.724 18.2201C172.208 18.2683 171.727 18.5013 171.368 18.8762C169.165 21.1823 168.171 24.2252 168.171 27.7486V34.3803C167.148 34.5472 166.367 35.4346 166.367 36.5043V42.3715C166.367 43.1296 166.759 43.7961 167.352 44.1795C167.249 44.8683 167.219 45.477 167.194 45.9815C167.188 46.1073 167.182 46.2266 167.175 46.3391C167.125 47.1901 167.041 47.8352 166.641 48.6633L166.626 48.6939C166.3 49.3968 165.802 50.013 165.172 50.4858C164.563 50.9435 164.241 51.6893 164.326 52.4467C164.411 53.204 164.89 53.86 165.586 54.1712C165.935 54.3272 166.278 54.4563 166.585 54.5657C167.938 55.0555 169.378 55.2615 170.815 55.1711L170.839 55.1695C174.79 54.8769 177.605 52.1395 178.658 48.5938C179.02 47.3833 179.093 46.3657 179.137 45.5451C179.141 45.4751 179.145 45.4074 179.148 45.3417C179.165 45.0309 179.179 44.7663 179.2 44.5237H181.048C182.236 44.5237 183.2 43.5601 183.2 42.3715V36.5043Z" fill="white" stroke="white" stroke-width="4.30435" stroke-linejoin="round"/>
<path d="M137.744 16.2481C138.147 16.6517 138.374 17.1992 138.374 17.77V52.7373C138.374 53.9259 137.41 54.8895 136.222 54.8895H129.203C128.014 54.8895 127.05 53.9259 127.05 52.7373V43.6459L127.016 40.0962C127.015 39.9613 127.026 39.8278 127.05 39.6973C127.028 39.5738 127.016 39.4472 127.016 39.3187V35.8352C127.016 35.706 127.028 35.5782 127.05 35.453V25.9305C126.916 25.8768 126.788 25.8099 126.669 25.7313C125.927 25.6974 125.182 25.7443 124.448 25.8719L124.444 25.8725C122.979 26.1247 121.595 26.7078 120.4 27.5741C119.69 28.089 118.739 28.1215 117.995 27.6564C117.252 27.1913 116.865 26.3215 117.017 25.4578C117.051 25.2662 117.092 25.0858 117.121 24.9565L117.124 24.9445C117.657 22.5512 118.962 20.3983 120.836 18.8057L137.744 16.2481ZM137.744 16.2481C137.34 15.8445 136.792 15.6177 136.221 15.6178M137.744 16.2481L136.221 15.6178M136.221 15.6178L130.735 15.6188C130.735 15.6188 130.735 15.6188 130.735 15.6188M136.221 15.6178L130.735 15.6188M130.735 15.6188C126.807 15.6188 123.427 16.604 120.836 18.8056L130.735 15.6188Z" fill="white" stroke="white" stroke-width="4.30435" stroke-linejoin="round"/>
<path d="M130.959 41.4334C131.612 41.0167 131.991 40.2809 131.951 39.5071C131.91 38.7333 131.457 38.0409 130.764 37.6942C130.555 37.5896 130.289 37.4577 130.001 37.3363C129.337 37.0556 128.576 37.1265 127.975 37.5252C127.373 37.924 127.012 38.5974 127.012 39.3188V40.0756C127.012 40.9032 127.486 41.6574 128.232 42.0157C128.978 42.3739 129.864 42.2727 130.51 41.7553C130.653 41.6402 130.803 41.5328 130.959 41.4334Z" fill="white" stroke="white" stroke-width="4.30435" stroke-linejoin="round"/>
<path d="M90.9061 37.7196L90.9061 37.7182C90.9009 35.9829 90.8952 34.2471 90.889 32.5109C91.6603 31.7237 91.7142 30.4721 90.9979 29.6204C89.6513 28.0191 88.0742 26.8603 86.4788 26.2454C84.928 25.6476 83.0937 25.4793 81.5318 26.3437C81.5173 26.3517 81.5029 26.3599 81.4886 26.3682C80.7038 26.8266 80.0604 27.4949 79.6352 28.3011C79.4719 28.6106 79.3866 28.9553 79.3866 29.3052V43.5593C79.3382 44.0715 79.3245 44.5423 79.3162 44.9533C79.3144 45.0432 79.3129 45.1288 79.3114 45.2111C79.3052 45.5542 79.3 45.8399 79.2816 46.1363C79.2401 46.8011 79.1347 47.4208 78.7936 48.1856C78.7043 48.3852 78.6046 48.5803 78.4948 48.77L78.4869 48.7837C78.1617 49.3552 77.7272 49.8619 77.2055 50.2752C76.7066 50.6705 76.4135 51.2613 76.3912 51.885C76.3466 52.1268 76.3432 52.378 76.3849 52.6281C76.5122 53.3927 77.0408 54.0298 77.7688 54.2959C77.9954 54.3788 78.2287 54.457 78.4737 54.529C78.5907 54.5648 78.7033 54.5962 78.7915 54.6207C80.7682 55.2158 82.8823 55.1968 84.8481 54.5659C84.8552 54.5636 84.8623 54.5613 84.8693 54.5589C84.8783 54.5559 84.8873 54.5529 84.8963 54.5498C87.9295 53.4966 89.933 50.9481 90.6494 47.9165L90.6497 47.9153C90.8094 47.2379 90.9031 46.5469 90.9294 45.8516C90.9305 45.8217 90.931 45.7918 90.9309 45.7618C90.9206 43.08 90.9123 40.3993 90.9061 37.7196Z" fill="white" stroke="white" stroke-width="4.30435" stroke-linejoin="round"/>
<path d="M110.179 15.6178C111.368 15.6178 112.331 16.5814 112.331 17.77V52.7373C112.331 53.9259 111.368 54.8895 110.179 54.8895H103.16C101.971 54.8895 101.008 53.9259 101.008 52.7373V46.3554L101.008 46.3312C101.045 43.0358 101.017 39.0977 100.98 35.8604L110.179 15.6178ZM110.179 15.6178H104.692C104.553 15.6178 104.415 15.6314 104.28 15.6577M110.179 15.6178L104.28 15.6577M100.965 34.7118C100.97 35.0824 100.975 35.466 100.98 35.8602L100.965 34.7118ZM100.965 34.7118C100.919 34.7587 100.873 34.8056 100.827 34.8526C100.827 34.8527 100.827 34.8528 100.826 34.8529C100.826 34.8532 100.826 34.8535 100.826 34.8537L97.1679 38.5873C96.3752 39.3965 95.0911 39.4527 94.2307 38.716C93.9732 38.4954 92.0849 36.6673 90.4193 35.0496L90.4177 35.048C90.228 34.8634 90.0394 34.6798 89.8541 34.4995C89.0655 33.7319 88.3376 33.0235 87.8483 32.5463C87.7977 32.4969 87.7495 32.4451 87.704 32.3909C86.7471 31.2531 85.744 30.5752 84.931 30.2618C84.1307 29.9533 83.7269 30.0619 83.6321 30.1024C83.5493 30.1569 83.4851 30.2289 83.4426 30.3094C82.981 31.1845 81.9822 31.6322 81.0218 31.3944C80.0614 31.1566 79.3869 30.2947 79.3869 29.3053V21.3761C79.3869 21.2113 79.4058 21.0471 79.4433 20.8866C79.7964 19.375 80.5879 18.0019 81.7161 16.9335L81.7219 16.928L81.7219 16.928C82.0967 16.5757 82.505 16.2606 82.9409 15.987C83.2837 15.7718 83.6803 15.6577 84.085 15.6577H88.2009C88.8301 15.6577 89.4279 15.9331 89.8368 16.4114C91.634 18.5137 93.4292 20.617 95.2223 22.7214L100.965 34.7118ZM104.28 15.6577H103.673C103.072 15.6577 102.499 15.9084 102.092 16.3493L96.4879 22.4147C96.4877 22.4149 96.4876 22.4151 96.4874 22.4152C96.4873 22.4154 96.4871 22.4155 96.487 22.4157C96.2226 22.7015 95.9582 22.9874 95.694 23.2732C95.5368 23.0896 95.3798 22.906 95.2232 22.7224L104.28 15.6577Z" fill="white" stroke="white" stroke-width="4.30435" stroke-linejoin="round"/>
<path d="M130.959 41.4334C131.612 41.0167 131.991 40.2809 131.951 39.5071C131.91 38.7333 131.457 38.0409 130.764 37.6942C130.555 37.5896 130.289 37.4577 130.001 37.3363C129.337 37.0556 128.576 37.1265 127.975 37.5252C127.373 37.924 127.012 38.5974 127.012 39.3188V40.0756C127.012 40.9032 127.486 41.6574 128.232 42.0157C128.978 42.3739 129.864 42.2727 130.51 41.7553C130.653 41.6402 130.803 41.5328 130.959 41.4334Z" fill="white" stroke="white" stroke-width="4.30435" stroke-linejoin="round"/>
<path d="M167.2 23.6381C167.184 23.9095 167.159 24.1779 167.125 24.4433C166.582 24.0224 165.968 23.7007 165.31 23.4935H156.481V52.7397H149.462V23.4929H141.274C140.616 23.7014 140.002 24.0229 139.458 24.4427C139.424 24.1773 139.399 23.9089 139.387 23.6375C139.275 21.3985 139.971 19.6582 141.152 18.4961C141.411 18.2415 141.694 18.0121 141.998 17.811H164.582C165.002 18.085 165.382 18.4143 165.711 18.7899C166.721 19.9431 167.302 21.578 167.2 23.6381Z" fill="url(#paint5_linear_438_34074)"/>
<path d="M129.164 35.1449V39.6432C128.42 40.2277 127.793 40.9448 127.317 41.7572C125.894 44.1553 126.556 45.7454 125.592 48.2182C125.09 49.5565 124.223 50.7323 123.087 51.616C121.1 53.1283 118.321 53.5667 115.184 52.3019C114.877 52.1766 114.578 52.0394 114.289 51.8963C115.315 51.2551 116.167 50.3764 116.77 49.3368C118.197 46.9384 117.534 45.3517 118.498 42.8786C119.35 40.6892 120.991 39.0454 123.133 38.3803C120.27 36.2087 118.837 32.8589 118.834 28.331C118.829 27.4872 118.908 26.645 119.07 25.8165C119.09 25.8015 119.111 25.7875 119.132 25.7745C119.123 25.8104 119.114 25.8462 119.107 25.8821C119.099 25.9165 119.093 25.9514 119.089 25.9865C120.563 24.9064 122.274 24.1829 124.084 23.8744C125.332 23.6733 126.605 23.6905 127.846 23.9252C126.522 24.5188 125.86 26.0023 125.863 28.3757C125.863 32.4449 126.963 34.7013 129.164 35.1449Z" fill="url(#paint6_linear_438_34074)"/>
<path d="M128.338 23.7545C128.169 23.7985 128.005 23.858 127.847 23.9322C126.607 23.6912 125.332 23.6736 124.085 23.8801C123.303 24.0159 122.537 24.2326 121.801 24.5266C120.831 24.9112 119.92 25.4234 119.09 26.0493C119.094 26.0132 119.1 25.9774 119.108 25.942C119.115 25.9053 119.124 25.8685 119.133 25.8317C120.596 24.7712 122.288 24.0591 124.076 23.7514C125.486 23.5063 126.929 23.5073 128.338 23.7545Z" fill="url(#paint7_linear_438_34074)"/>
<path d="M185.618 20.2223C183.937 18.6138 181.838 17.81 179.323 17.811C176.83 17.811 174.76 18.6148 173.112 20.2223C173.069 20.2682 173.019 20.3142 172.976 20.3601C172.957 20.3785 172.941 20.3969 172.926 20.4153C175.876 20.1426 178.661 21.2701 180.203 23.4393C180.337 23.6292 180.455 23.8192 180.561 24.0061C180.582 24.0398 180.604 24.0765 180.623 24.1102C181.014 24.5085 181.241 25.1397 181.313 26.0067C181.335 26.2215 181.345 26.4373 181.344 26.6532V36.39H181.049V42.1968H181.344V52.7394H188.363V27.7265C188.363 24.5088 187.448 22.0074 185.618 20.2223Z" fill="url(#paint8_linear_438_34074)"/>
<path d="M181.048 36.5043V42.3715H177.339V42.7766C177.305 42.882 177.28 42.984 177.255 43.086C176.848 44.7313 177.171 46.0579 176.596 47.9789C175.757 50.8056 173.605 52.8066 170.68 53.0232C169.536 53.0952 168.389 52.9308 167.314 52.5406C167.028 52.4386 166.742 52.3304 166.465 52.2067C167.376 51.5221 168.102 50.6266 168.579 49.5994C169.732 47.2117 169.023 45.7304 169.744 43.2962C169.837 42.981 169.95 42.6721 170.083 42.3715H168.52V36.5043H170.323V27.7486C170.323 24.6404 171.19 22.1785 172.925 20.3629C175.875 20.0872 178.66 21.2257 180.202 23.4185C180.355 23.6362 180.495 23.8624 180.622 24.0959C180.452 23.9278 180.249 23.7964 180.026 23.7101C179.802 23.6238 179.562 23.5846 179.322 23.5949C178.001 23.5949 177.34 24.6177 177.339 26.6631V36.5043H181.048Z" fill="url(#paint9_linear_438_34074)"/>
<path d="M136.222 17.77V52.7373H129.203V43.6357L129.168 43.6694V40.0755C129.372 39.9121 129.585 39.7597 129.806 39.619C129.597 39.5148 129.386 39.4107 129.168 39.3187V35.8352C129.18 35.8368 129.192 35.8399 129.203 35.8444V23.7515C129.06 23.7607 128.91 23.776 128.755 23.7944C128.447 23.8312 128.158 23.8802 127.891 23.9384C127.877 23.9349 127.864 23.9328 127.85 23.9323C128.008 23.858 128.172 23.7986 128.341 23.7546C126.932 23.5074 125.489 23.5064 124.079 23.7515C122.291 24.0592 120.599 24.7713 119.137 25.8318C119.162 25.6909 119.193 25.553 119.224 25.4152C119.654 23.4818 120.709 21.7381 122.23 20.4456C124.328 18.6625 127.163 17.7709 130.735 17.7709L136.222 17.77Z" fill="url(#paint10_linear_438_34074)"/>
<path d="M129.801 39.6191C129.581 39.7599 129.368 39.9122 129.164 40.0756V39.3188C129.382 39.4108 129.593 39.5149 129.801 39.6191Z" fill="url(#paint11_linear_438_34074)"/>
<path d="M88.7539 37.7246C88.7601 40.4054 88.7684 43.0873 88.7788 45.7701C88.7577 46.3264 88.6828 46.8793 88.555 47.4215C87.983 49.8419 86.4317 51.7384 84.1904 52.5167C82.6327 53.0166 80.9561 53.0295 79.3907 52.5534C79.2912 52.5258 79.1917 52.4983 79.0922 52.4676C78.8933 52.4094 78.7005 52.3451 78.5078 52.2746C78.5949 52.2041 78.6819 52.1275 78.7689 52.0479C78.6912 52.0203 78.6166 51.9927 78.542 51.9621C79.2788 51.3783 79.8951 50.6607 80.3575 49.8481C80.5047 49.5936 80.6386 49.3318 80.7585 49.0637C81.7004 46.9528 81.346 45.525 81.5387 43.6653V29.3052C81.7749 28.8575 82.1335 28.4839 82.5739 28.2267C84.1904 27.3321 87.0473 28.2666 89.3508 31.0056C88.9653 30.6318 88.729 30.402 88.729 30.402C88.7384 32.8439 88.7467 35.2847 88.7539 37.7246Z" fill="url(#paint12_linear_438_34074)"/>
<path d="M110.179 17.77V52.7373H103.16V46.3554C103.197 43.0342 103.169 39.0758 103.132 35.8343C103.088 32.2435 103.029 29.5289 103.029 29.5289C101.783 30.8035 100.536 32.076 99.2894 33.3464L95.6306 37.0812C95.4409 36.9189 93.6348 35.1725 91.9188 33.5058C90.921 32.5345 89.9542 31.5939 89.3511 31.0057C87.0476 28.2666 84.1907 27.3322 82.5742 28.2268C82.1338 28.484 81.7752 28.8576 81.5391 29.3053V21.3761C81.7956 20.2778 82.3714 19.277 83.196 18.4961C83.469 18.2395 83.7668 18.0096 84.085 17.8099H88.2009C89.9977 19.9116 91.7924 22.0144 93.5851 24.1182C93.8752 24.4583 94.1664 24.7984 94.4586 25.1385C94.8472 25.5981 95.2389 26.0546 95.6306 26.5141C96.4419 25.6348 97.2543 24.7555 98.0677 23.8762L103.673 17.8099H104.702C104.698 17.7976 104.695 17.7823 104.692 17.77H110.179Z" fill="url(#paint13_linear_438_34074)"/>
<path d="M129.801 39.6191C129.581 39.7599 129.368 39.9122 129.164 40.0756V39.3188C129.382 39.4108 129.593 39.5149 129.801 39.6191Z" fill="url(#paint14_linear_438_34074)"/>
<defs>
<linearGradient id="paint0_linear_438_34074" x1="24.5742" y1="45.7273" x2="48.9023" y2="45.7273" gradientUnits="userSpaceOnUse">
<stop stop-color="#43B088"/>
<stop offset="0.00503" stop-color="#43B088"/>
<stop offset="1" stop-color="#52CC9F"/>
</linearGradient>
<linearGradient id="paint1_linear_438_34074" x1="15.8639" y1="19.3625" x2="15.8639" y2="41.0838" gradientUnits="userSpaceOnUse">
<stop stop-color="#3FAB83"/>
<stop offset="1" stop-color="#66D5AD"/>
</linearGradient>
<linearGradient id="paint2_linear_438_34074" x1="18.8282" y1="25.2708" x2="64.1876" y2="25.2708" gradientUnits="userSpaceOnUse">
<stop offset="0.00503" stop-color="#E75C5B"/>
<stop offset="0.1314" stop-color="#F13E44"/>
<stop offset="0.25965" stop-color="#F92732"/>
<stop offset="0.38038" stop-color="#FD1927"/>
<stop offset="0.48492" stop-color="#FF1423"/>
<stop offset="0.65075" stop-color="#FF1423"/>
<stop offset="0.81658" stop-color="#77BB9A"/>
<stop offset="0.9397" stop-color="#64D3AB"/>
</linearGradient>
<linearGradient id="paint3_linear_438_34074" x1="7749.89" y1="8056.94" x2="7749.89" y2="11495.9" gradientUnits="userSpaceOnUse">
<stop stop-color="#3FAB83"/>
<stop offset="1" stop-color="#66D5AD"/>
</linearGradient>
<linearGradient id="paint4_linear_438_34074" x1="24.5201" y1="17.1514" x2="53.4333" y2="17.1514" gradientUnits="userSpaceOnUse">
<stop stop-color="#ED1C24"/>
<stop offset="0.00503" stop-color="#ED1C24"/>
<stop offset="1" stop-color="#E75C5B"/>
</linearGradient>
<linearGradient id="paint5_linear_438_34074" x1="141.373" y1="48.1363" x2="160.085" y2="15.2523" gradientUnits="userSpaceOnUse">
<stop stop-color="#52CC9F" stop-opacity="0.9"/>
<stop offset="0.995" stop-color="#43B088"/>
</linearGradient>
<linearGradient id="paint6_linear_438_34074" x1="113.83" y1="51.6362" x2="129.17" y2="24.6789" gradientUnits="userSpaceOnUse">
<stop stop-color="#53C197"/>
<stop offset="0.96" stop-color="#4DBC94"/>
</linearGradient>
<linearGradient id="paint7_linear_438_34074" x1="122.022" y1="27.7178" x2="125.271" y2="22.0089" gradientUnits="userSpaceOnUse">
<stop stop-color="#5DCCA4"/>
<stop offset="1" stop-color="#52C096"/>
</linearGradient>
<linearGradient id="paint8_linear_438_34074" x1="5359.38" y1="18004" x2="7299.27" y2="16519" gradientUnits="userSpaceOnUse">
<stop stop-color="#5DCCA4"/>
<stop offset="1" stop-color="#52C096"/>
</linearGradient>
<linearGradient id="paint9_linear_438_34074" x1="4661.35" y1="17191.5" x2="6590.91" y2="15701.9" gradientUnits="userSpaceOnUse">
<stop stop-color="#52CC9F" stop-opacity="0.9"/>
<stop offset="0.995" stop-color="#43B088"/>
</linearGradient>
<linearGradient id="paint10_linear_438_34074" x1="121.902" y1="48.5831" x2="138.65" y2="19.1513" gradientUnits="userSpaceOnUse">
<stop stop-color="#52C096"/>
<stop offset="0.427" stop-color="#5DCCA4"/>
</linearGradient>
<linearGradient id="paint11_linear_438_34074" x1="240.166" y1="407.517" x2="241.473" y2="407.517" gradientUnits="userSpaceOnUse">
<stop stop-color="#5DCCA4"/>
<stop offset="1" stop-color="#52C096"/>
</linearGradient>
<linearGradient id="paint12_linear_438_34074" x1="63.4251" y1="13170.6" x2="1168.7" y2="12340.4" gradientUnits="userSpaceOnUse">
<stop stop-color="#52CC9F" stop-opacity="0.9"/>
<stop offset="0.995" stop-color="#43B088"/>
</linearGradient>
<linearGradient id="paint13_linear_438_34074" x1="1260.3" y1="17709" x2="3354.3" y2="14738.3" gradientUnits="userSpaceOnUse">
<stop stop-color="#52CC9F" stop-opacity="0.9"/>
<stop offset="0.995" stop-color="#43B088"/>
</linearGradient>
<linearGradient id="paint14_linear_438_34074" x1="240.166" y1="407.517" x2="241.473" y2="407.517" gradientUnits="userSpaceOnUse">
<stop stop-color="#5DCCA4"/>
<stop offset="1" stop-color="#52C096"/>
</linearGradient>
<clipPath id="clip0_438_34074">
<rect width="62.6368" height="56.0435" fill="white" transform="translate(5.8125 5.19995)"/>
</clipPath>
<clipPath id="clip1_438_34074">
<rect width="54.1204" height="47.494" fill="white" transform="translate(10.0703 9.45801)"/>
</clipPath>
</defs>
</svg>
