<svg width="132" height="76" viewBox="0 0 132 76" fill="none" xmlns="http://www.w3.org/2000/svg">
    <path d="M100.897 25.7613L100.898 25.7453C101.024 23.2092 100.307 21.0034 98.8782 19.3719C98.4193 18.8481 97.8906 18.3896 97.3071 18.0089C96.9573 17.7806 96.5486 17.659 96.1309 17.659H73.5466C73.1239 17.659 72.7105 17.7835 72.3581 18.0169C71.9399 18.2939 71.5493 18.6103 71.1919 18.9618L71.1917 18.962C69.5121 20.6143 68.6487 22.9815 68.7856 25.7406C68.8011 26.0766 68.8317 26.4028 68.8723 26.7179C68.9709 27.4827 69.4711 28.1363 70.1836 28.4313C70.8961 28.7262 71.7119 28.6175 72.3223 28.1461C72.5879 27.941 72.8812 27.7724 73.1941 27.6452H78.8583V54.7398C78.8583 55.9285 79.8218 56.892 81.0104 56.892H88.0298C89.2184 56.892 90.1819 55.9285 90.1819 54.7398V27.6458H96.4883C96.7996 27.7719 97.0912 27.9397 97.3549 28.1441C97.9649 28.6172 98.7815 28.7273 99.495 28.4327C100.208 28.1382 100.71 27.4841 100.808 26.7185C100.849 26.4018 100.879 26.0827 100.897 25.7613Z" fill="white" stroke="white" stroke-width="4.30435" stroke-linejoin="round"/>
    <path d="M57.7493 27.8956C57.5251 28.5712 57.4135 29.3979 57.4143 30.3756C57.4143 34.4447 58.5148 36.7011 60.7157 37.1448L57.7493 27.8956ZM57.7493 27.8956C58.1677 27.9136 58.5849 27.9617 58.9976 28.0398L59.3976 25.9251L58.5174 23.9612C57.5774 24.3825 56.8856 25.0154 56.3877 25.7797C56.1365 25.8025 55.8858 25.834 55.6362 25.8742C54.586 26.0533 53.5692 26.3719 52.6125 26.8189L57.7493 27.8956ZM62.8679 37.1448C62.8679 36.1201 62.1454 35.2375 61.141 35.035C60.7818 34.9626 60.4701 34.7834 60.174 34.1763C59.8293 33.4694 59.5665 32.2631 59.5665 30.3756L59.5665 30.3737C59.5646 28.2576 60.1523 27.9453 60.2779 27.889C61.136 27.5044 61.645 26.6073 61.535 25.6734C61.4251 24.7395 60.7216 23.9852 59.7976 23.8104C58.3115 23.5293 56.7869 23.5087 55.2935 23.7495L55.2745 23.7527C53.4771 24.0591 51.7607 24.7121 50.2225 25.6722C49.9968 25.7217 49.7769 25.8081 49.5719 25.9319C49.4882 25.9824 49.407 26.0372 49.3286 26.0961C48.9038 26.4155 48.6122 26.8808 48.5099 27.4024C48.3204 28.3696 48.2278 29.353 48.2335 30.3382C48.237 34.1106 49.1533 37.3521 51.118 39.868C49.7461 40.9523 48.6981 42.418 48.0446 44.0971C47.5234 45.4346 47.3793 46.6105 47.2721 47.4851C47.2563 47.6144 47.2412 47.7371 47.2259 47.8528C47.1096 48.73 46.9713 49.3969 46.4719 50.2363L46.4597 50.257C46.0342 50.9909 45.4311 51.6145 44.7004 52.071C44.0388 52.4843 43.6527 53.2234 43.6913 54.0025C43.7298 54.7817 44.187 55.479 44.8862 55.825C45.2121 55.9863 45.5589 56.1462 45.9245 56.2951L45.9313 56.2978C49.6811 57.8098 53.278 57.3563 55.942 55.3282L55.9592 55.3149C57.404 54.1917 58.5107 52.6951 59.1541 50.9867C59.6718 49.6533 59.815 48.4807 59.9217 47.6076C59.9375 47.4788 59.9524 47.3566 59.9676 47.2413C60.0837 46.3622 60.2217 45.6947 60.7197 44.8558L60.7198 44.8558L60.7263 44.8447C61.0649 44.2666 61.5117 43.7544 62.0448 43.3358C62.5644 42.9278 62.8679 42.3037 62.8679 41.6431V37.1448Z" fill="white" stroke="white" stroke-width="4.30435" stroke-linejoin="round"/>
    <path d="M60.4302 27.8371C61.41 27.5821 62.0795 26.6787 62.0385 25.6672C61.9975 24.6556 61.257 23.8094 60.2598 23.6345C58.606 23.3446 56.9136 23.3432 55.2594 23.6306C53.1485 23.9941 51.1496 24.8349 49.4199 26.0894C49.0122 26.3851 48.7211 26.8143 48.5973 27.3025C48.5969 27.3039 48.5964 27.3059 48.5958 27.3082C48.5891 27.3345 48.5685 27.4146 48.5495 27.512C48.5291 27.6076 48.5133 27.7041 48.502 27.8012C48.4028 28.6567 48.8231 29.4889 49.5705 29.9169C50.3179 30.3448 51.2484 30.286 51.9359 29.7673C52.6111 29.258 53.354 28.8406 54.1445 28.5268L54.1446 28.5268L54.1485 28.5252C54.7435 28.2877 55.3625 28.1123 55.9953 28.0019C56.9868 27.8386 58.0003 27.8531 58.9865 28.0447C59.4351 28.1319 59.8998 28.074 60.3133 27.8794C60.3506 27.8619 60.3897 27.8477 60.4302 27.8371Z" fill="white" stroke="white" stroke-width="4.30435" stroke-linejoin="round"/>
    <path d="M118.657 20.6671L118.672 20.6818C121.019 22.9709 122.067 26.0876 122.067 29.7266V54.7395C122.067 55.9281 121.103 56.8917 119.914 56.8917H112.895C111.706 56.8917 110.743 55.9281 110.743 54.7395V45.2857C110.555 44.9663 110.448 44.5942 110.448 44.197V38.3901C110.448 37.9929 110.555 37.6207 110.743 37.3013V28.6533V28.6424H110.743C110.744 28.5028 110.737 28.3632 110.723 28.2242C110.721 28.2107 110.72 28.1972 110.719 28.1837C110.694 27.8856 110.649 27.708 110.616 27.6168C110.61 27.6004 110.605 27.5881 110.601 27.5793C110.483 27.4527 110.38 27.3122 110.295 27.1609C110.276 27.1296 110.257 27.0979 110.238 27.0656C110.164 26.9344 110.084 26.8064 109.997 26.6821C108.971 25.2425 106.992 24.3443 104.675 24.5584C103.805 24.6389 102.972 24.1852 102.568 23.4103C102.164 22.6354 102.269 21.6931 102.833 21.0258C102.834 21.0252 102.835 21.0242 102.836 21.023C102.85 21.0064 102.907 20.9383 102.983 20.8602C103.024 20.8175 103.062 20.7803 103.08 20.7625C103.082 20.761 103.083 20.7597 103.084 20.7585C103.098 20.7452 103.104 20.739 103.106 20.7371C103.124 20.7184 103.142 20.7 103.16 20.6819C105.245 18.648 107.87 17.6592 110.874 17.659L118.657 20.6671ZM118.657 20.6671C116.541 18.6429 113.894 17.6579 110.874 17.659L118.657 20.6671Z" fill="white" stroke="white" stroke-width="4.30435" stroke-linejoin="round"/>
    <path d="M114.75 38.5045C114.75 37.3159 113.786 36.3523 112.598 36.3523H111.041L111.041 28.6643C111.041 28.6639 111.041 28.6636 111.041 28.6632C111.041 28.3694 111.059 28.1359 111.085 27.9543C111.817 28.3825 112.756 28.3475 113.462 27.8187C114.316 27.1787 114.573 26.0088 114.064 25.0702C113.897 24.7637 113.714 24.467 113.513 24.1816L113.513 24.1807C111.457 21.2581 107.865 19.8846 104.274 20.2202C103.758 20.2685 103.277 20.5015 102.919 20.8764C100.715 23.1825 99.7206 26.2253 99.7206 29.7487V36.3805C98.698 36.5473 97.9175 37.4348 97.9175 38.5045V44.3717C97.9175 45.1297 98.3095 45.7963 98.9017 46.1797C98.7986 46.8684 98.7687 47.4771 98.7439 47.9817C98.7377 48.1075 98.7318 48.2268 98.7252 48.3393C98.6753 49.1902 98.5908 49.8354 98.1908 50.6634L98.1763 50.6941C97.8504 51.3969 97.352 52.0131 96.7224 52.486C96.113 52.9436 95.7912 53.6895 95.8761 54.4468C95.9611 55.2042 96.4403 55.8601 97.136 56.1714C97.4847 56.3274 97.8285 56.4565 98.1349 56.5659C99.4877 57.0557 100.928 57.2617 102.365 57.1713L102.389 57.1696C106.34 56.8771 109.155 54.1396 110.208 50.5939C110.571 49.3835 110.643 48.3659 110.687 47.5452C110.691 47.4752 110.695 47.4075 110.698 47.3419C110.715 47.0311 110.729 46.7665 110.75 46.5239H112.598C113.786 46.5239 114.75 45.5603 114.75 44.3717V38.5045Z" fill="white" stroke="white" stroke-width="4.30435" stroke-linejoin="round"/>
    <path d="M69.2924 18.2481C69.696 18.6517 69.9228 19.1992 69.9228 19.77V54.7373C69.9228 55.9259 68.9593 56.8895 67.7707 56.8895H60.7513C59.5627 56.8895 58.5992 55.9259 58.5992 54.7373V45.6459L58.5651 42.0962C58.5638 41.9613 58.5751 41.8278 58.5984 41.6973C58.5764 41.5738 58.565 41.4472 58.565 41.3187V37.8352C58.565 37.706 58.5766 37.5782 58.5992 37.453V27.9305C58.465 27.8768 58.3373 27.8099 58.2177 27.7313C57.4758 27.6974 56.7309 27.7443 55.9969 27.8719L55.9932 27.8725C54.5277 28.1247 53.1435 28.7078 51.9491 29.5741C51.2391 30.089 50.2877 30.1215 49.5442 29.6564C48.8006 29.1913 48.4137 28.3215 48.5661 27.4578C48.5999 27.2662 48.6406 27.0858 48.6698 26.9565L48.6725 26.9445C49.2058 24.5512 50.5107 22.3983 52.385 20.8057L69.2924 18.2481ZM69.2924 18.2481C68.8887 17.8445 68.3412 17.6177 67.7703 17.6178M69.2924 18.2481L67.7703 17.6178M67.7703 17.6178L62.2839 17.6188C62.2838 17.6188 62.2837 17.6188 62.2835 17.6188M67.7703 17.6178L62.2835 17.6188M62.2835 17.6188C58.3559 17.6188 54.9759 18.604 52.3851 20.8056L62.2835 17.6188Z" fill="white" stroke="white" stroke-width="4.30435" stroke-linejoin="round"/>
    <path d="M62.5114 43.4334C63.1647 43.0167 63.5434 42.2809 63.5031 41.5071C63.4628 40.7333 63.0096 40.0409 62.3165 39.6942C62.1072 39.5896 61.8413 39.4577 61.554 39.3363C60.8894 39.0556 60.1284 39.1265 59.5271 39.5252C58.9259 39.924 58.5644 40.5974 58.5644 41.3188V42.0756C58.5644 42.9032 59.0389 43.6574 59.7849 44.0157C60.5309 44.3739 61.4162 44.2727 62.0621 43.7553C62.2058 43.6402 62.3558 43.5328 62.5114 43.4334Z" fill="white" stroke="white" stroke-width="4.30435" stroke-linejoin="round"/>
    <path d="M22.4566 39.7197L22.4566 39.7183C22.4514 37.983 22.4458 36.2473 22.4396 34.511C23.2109 33.7238 23.2647 32.4722 22.5484 31.6205C21.2018 30.0193 19.6247 28.8605 18.0293 28.2455C16.4786 27.6478 14.6442 27.4794 13.0823 28.3438C13.0678 28.3518 13.0535 28.36 13.0392 28.3684C12.2543 28.8267 11.611 29.495 11.1857 30.3012C11.0224 30.6107 10.9371 30.9554 10.9371 31.3053V45.5594C10.8887 46.0716 10.875 46.5424 10.8668 46.9535C10.865 47.0433 10.8634 47.1289 10.8619 47.2112C10.8557 47.5543 10.8506 47.84 10.8321 48.1364C10.7906 48.8013 10.6852 49.4209 10.3441 50.1857C10.2549 50.3853 10.1551 50.5804 10.0453 50.7701L10.0374 50.7838C9.71225 51.3553 9.27769 51.862 8.756 52.2754C8.25716 52.6706 7.96403 53.2615 7.94171 53.8851C7.89716 54.1269 7.89375 54.3781 7.93541 54.6283C8.06274 55.3928 8.59136 56.0299 9.31933 56.296C9.54593 56.3789 9.77923 56.4571 10.0242 56.5292C10.1413 56.5649 10.2538 56.5963 10.3421 56.6208C12.3187 57.2159 14.4328 57.197 16.3987 56.566C16.4057 56.5637 16.4128 56.5614 16.4199 56.5591C16.4289 56.5561 16.4379 56.553 16.4469 56.5499C19.48 55.4967 21.4835 52.9482 22.2 49.9166L22.2003 49.9154C22.3599 49.238 22.4536 48.547 22.4799 47.8517C22.4811 47.8218 22.4816 47.7919 22.4815 47.7619C22.4711 45.0802 22.4628 42.3994 22.4566 39.7197Z" fill="white" stroke="white" stroke-width="4.30435" stroke-linejoin="round"/>
    <path d="M41.7308 17.6178C42.9194 17.6178 43.8829 18.5814 43.8829 19.77V54.7373C43.8829 55.9259 42.9194 56.8895 41.7308 56.8895H34.7115C33.5228 56.8895 32.5593 55.9259 32.5593 54.7373V48.3554L32.5594 48.3312C32.5964 45.0358 32.5687 41.0977 32.5315 37.8604L41.7308 17.6178ZM41.7308 17.6178H36.244C36.1044 17.6178 35.9664 17.6314 35.8318 17.6577M41.7308 17.6178L35.8318 17.6577M32.5167 36.7118C32.5217 37.0824 32.5267 37.466 32.5315 37.8602L32.5167 36.7118ZM32.5167 36.7118C32.4706 36.7587 32.4246 36.8056 32.3785 36.8526C32.3784 36.8527 32.3783 36.8528 32.3782 36.8529C32.3779 36.8532 32.3777 36.8535 32.3774 36.8537L28.7197 40.5873C27.927 41.3965 26.6428 41.4527 25.7825 40.716C25.5249 40.4954 23.6366 38.6673 21.9711 37.0496L21.9695 37.048C21.7798 36.8634 21.5911 36.6798 21.4058 36.4995C20.6172 35.7319 19.8893 35.0235 19.4001 34.5463C19.3494 34.4969 19.3013 34.4451 19.2557 34.3909C18.2988 33.2531 17.2958 32.5752 16.4827 32.2618C15.6825 31.9533 15.2787 32.0619 15.1838 32.1024C15.1011 32.1569 15.0368 32.2289 14.9944 32.3094C14.5328 33.1845 13.534 33.6322 12.5736 33.3944C11.6132 33.1566 10.9386 32.2947 10.9386 31.3053V23.3761C10.9386 23.2113 10.9576 23.0471 10.9951 22.8866C11.3481 21.375 12.1396 20.0019 13.2679 18.9335L13.2736 18.928L13.2737 18.928C13.6484 18.5757 14.0567 18.2606 14.4926 17.987C14.8355 17.7718 15.232 17.6577 15.6368 17.6577H19.7526C20.3819 17.6577 20.9796 17.9331 21.3885 18.4114C23.1858 20.5137 24.981 22.617 26.7741 24.7214L32.5167 36.7118ZM35.8318 17.6577H35.2244C34.6241 17.6577 34.051 17.9084 33.6436 18.3493L28.0396 24.4147C28.0395 24.4149 28.0393 24.4151 28.0392 24.4152C28.039 24.4154 28.0389 24.4155 28.0387 24.4157C27.7743 24.7015 27.51 24.9874 27.2458 25.2732C27.0885 25.0896 26.9316 24.906 26.775 24.7224L35.8318 17.6577Z" fill="white" stroke="white" stroke-width="4.30435" stroke-linejoin="round"/>
    <path d="M62.5114 43.4334C63.1647 43.0167 63.5434 42.2809 63.5031 41.5071C63.4628 40.7333 63.0096 40.0409 62.3165 39.6942C62.1072 39.5896 61.8413 39.4577 61.554 39.3363C60.8894 39.0556 60.1284 39.1265 59.5271 39.5252C58.9259 39.924 58.5644 40.5974 58.5644 41.3188V42.0756C58.5644 42.9032 59.0389 43.6574 59.7849 44.0157C60.5309 44.3739 61.4162 44.2727 62.0621 43.7553C62.2058 43.6402 62.3558 43.5328 62.5114 43.4334Z" fill="white" stroke="white" stroke-width="4.30435" stroke-linejoin="round"/>
    <path d="M98.7484 25.6382C98.7328 25.9097 98.7079 26.1781 98.6737 26.4434C98.131 26.0225 97.5161 25.7008 96.8583 25.4936H88.0298V54.7398H81.0104V25.493H72.8223C72.165 25.7015 71.5503 26.023 71.0068 26.4428C70.9726 26.1775 70.9477 25.9091 70.9353 25.6376C70.8234 23.3986 71.5197 21.6583 72.701 20.4962C72.9599 20.2416 73.243 20.0122 73.5466 19.8112H96.1309C96.5506 20.0851 96.9303 20.4145 97.2593 20.79C98.2696 21.9433 98.8509 23.5781 98.7484 25.6382Z" fill="url(#paint0_linear_148_3099)"/>
    <path d="M60.7157 37.1448V41.6431C59.9713 42.2276 59.3449 42.9447 58.8692 43.7571C57.4454 46.1551 58.1075 47.7453 57.1439 50.2181C56.642 51.5564 55.7749 52.7322 54.6383 53.6158C52.6519 55.1281 49.8727 55.5666 46.7361 54.3018C46.4284 54.1765 46.1299 54.0392 45.8408 53.8962C46.867 53.255 47.7186 52.3763 48.3215 51.3367C49.7484 48.9383 49.0862 47.3516 50.0499 44.8785C50.9017 42.6891 52.5431 41.0453 54.6849 40.3802C51.8219 38.2085 50.3888 34.8588 50.3857 30.3309C50.3804 29.4871 50.4595 28.6449 50.6219 27.8164C50.6419 27.8014 50.6627 27.7874 50.6841 27.7744C50.6748 27.8103 50.6654 27.8461 50.6592 27.8819C50.651 27.9164 50.6447 27.9513 50.6406 27.9864C52.1148 26.9063 53.826 26.1828 55.6362 25.8742C56.8833 25.6731 58.1566 25.6904 59.3976 25.9251C58.0733 26.5187 57.4122 28.0022 57.4143 30.3756C57.4143 34.4447 58.5148 36.7011 60.7157 37.1448Z" fill="url(#paint1_linear_148_3099)"/>
    <path d="M59.8881 25.7544C59.7191 25.7983 59.5547 25.8578 59.3969 25.9321C58.1566 25.6911 56.8822 25.6734 55.6355 25.88C54.8529 26.0158 54.0871 26.2325 53.3506 26.5264C52.3815 26.9111 51.4696 27.4233 50.6399 28.0492C50.6441 28.0131 50.6503 27.9773 50.6585 27.9419C50.6648 27.9052 50.6741 27.8684 50.6834 27.8316C52.1458 26.7711 53.8376 26.059 55.6262 25.7513C57.036 25.5062 58.4786 25.5072 59.8881 25.7544Z" fill="url(#paint2_linear_148_3099)"/>
    <path d="M117.169 22.2224C115.488 20.6139 113.389 19.8101 110.874 19.8112C108.381 19.8112 106.311 20.6149 104.663 22.2224C104.62 22.2683 104.57 22.3143 104.527 22.3603C104.508 22.3786 104.492 22.397 104.477 22.4154C107.427 22.1427 110.212 23.2702 111.754 25.4394C111.888 25.6293 112.006 25.8193 112.112 26.0062C112.133 26.0399 112.155 26.0767 112.174 26.1104C112.566 26.5087 112.792 27.1398 112.864 28.0069C112.886 28.2217 112.896 28.4375 112.895 28.6533V38.3901H112.6V44.197H112.895V54.7395H119.914V29.7266C119.914 26.509 118.999 24.0076 117.169 22.2224Z" fill="url(#paint3_linear_148_3099)"/>
    <path d="M112.598 38.5045V44.3717H108.889V44.7767C108.855 44.8821 108.83 44.9841 108.805 45.0862C108.398 46.7314 108.721 48.0581 108.146 49.9791C107.307 52.8057 105.155 54.8067 102.23 55.0233C101.086 55.0953 99.9394 54.931 98.8636 54.5408C98.5776 54.4388 98.2916 54.3306 98.0149 54.2068C98.9263 53.5223 99.6524 52.6267 100.129 51.5995C101.282 49.2119 100.573 47.7305 101.295 45.2963C101.387 44.9811 101.5 44.6723 101.633 44.3717H100.07V38.5045H101.873V29.7487C101.873 26.6406 102.74 24.1787 104.475 22.3631C107.425 22.0873 110.21 23.2259 111.752 25.4186C111.905 25.6363 112.045 25.8625 112.172 26.096C112.002 25.9279 111.799 25.7965 111.576 25.7102C111.352 25.624 111.112 25.5848 110.872 25.5951C109.551 25.5951 108.89 26.6178 108.889 28.6632V38.5045H112.598Z" fill="url(#paint4_linear_148_3099)"/>
    <path d="M67.7707 19.77V54.7373H60.7513V45.6357L60.7172 45.6694V42.0755C60.9211 41.9121 61.1338 41.7597 61.3544 41.619C61.1461 41.5148 60.9348 41.4107 60.7172 41.3187V37.8352C60.7289 37.8368 60.7404 37.8399 60.7513 37.8444V25.7515C60.6083 25.7607 60.4591 25.776 60.3037 25.7944C59.9959 25.8312 59.7068 25.8802 59.4395 25.9384C59.4263 25.9349 59.4127 25.9328 59.3991 25.9323C59.5568 25.858 59.7213 25.7986 59.8903 25.7546C58.4808 25.5074 57.0382 25.5064 55.6283 25.7515C53.8397 26.0592 52.1479 26.7713 50.6855 27.8318C50.7104 27.6909 50.7415 27.553 50.7726 27.4152C51.2028 25.4818 52.2576 23.7381 53.7787 22.4456C55.877 20.6625 58.7121 19.7709 62.2839 19.7709L67.7707 19.77Z" fill="url(#paint5_linear_148_3099)"/>
    <path d="M61.3538 41.6191C61.1332 41.7599 60.9205 41.9122 60.7166 42.0756V41.3188C60.9342 41.4108 61.1455 41.5149 61.3538 41.6191Z" fill="url(#paint6_linear_148_3099)"/>
    <path d="M20.3044 39.7247C20.3107 42.4055 20.3189 45.0874 20.3293 47.7703C20.3082 48.3265 20.2333 48.8795 20.1055 49.4216C19.5335 51.8421 17.9823 53.7386 15.741 54.5168C14.1832 55.0168 12.5067 55.0296 10.9412 54.5535C10.8417 54.526 10.7423 54.4984 10.6428 54.4677C10.4438 54.4095 10.2511 54.3452 10.0583 54.2747C10.1454 54.2043 10.2324 54.1277 10.3195 54.048C10.2418 54.0204 10.1672 53.9929 10.0925 53.9622C10.8293 53.3785 11.4456 52.6608 11.908 51.8482C12.0553 51.5937 12.1891 51.3319 12.309 51.0639C13.2509 48.9529 12.8965 47.5252 13.0893 45.6654V31.3053C13.3254 30.8576 13.684 30.4841 14.1245 30.2269C15.741 29.3322 18.5978 30.2667 20.9013 33.0057C20.5158 32.632 20.2796 32.4022 20.2796 32.4022C20.2889 34.844 20.2972 37.2849 20.3044 39.7247Z" fill="url(#paint7_linear_148_3099)"/>
    <path d="M41.7308 19.77V54.7373H34.7115V48.3554C34.7488 45.0342 34.7208 41.0758 34.6835 37.8343C34.64 34.2435 34.5809 31.5289 34.5809 31.5289C33.3343 32.8035 32.0878 34.076 30.8412 35.3464L27.1823 39.0812C26.9927 38.9189 25.1866 37.1725 23.4706 35.5058C22.4727 34.5345 21.5059 33.5939 20.9028 33.0057C18.5993 30.2666 15.7425 29.3322 14.126 30.2268C13.6856 30.484 13.327 30.8576 13.0908 31.3053V23.3761C13.3474 22.2778 13.9231 21.277 14.7477 20.4961C15.0208 20.2395 15.3185 20.0096 15.6368 19.8099H19.7526C21.5494 21.9116 23.3442 24.0144 25.1368 26.1182C25.427 26.4583 25.7181 26.7984 26.0104 27.1385C26.3989 27.5981 26.7906 28.0546 27.1823 28.5141C27.9937 27.6348 28.8061 26.7555 29.6195 25.8762L35.2244 19.8099H36.2533C36.2502 19.7976 36.2471 19.7823 36.244 19.77H41.7308Z" fill="url(#paint8_linear_148_3099)"/>
    <path d="M61.3538 41.6191C61.1332 41.7599 60.9205 41.9122 60.7166 42.0756V41.3188C60.9342 41.4108 61.1455 41.5149 61.3538 41.6191Z" fill="url(#paint9_linear_148_3099)"/>
    <defs>
        <linearGradient id="paint0_linear_148_3099" x1="72.9217" y1="50.1365" x2="91.6333" y2="17.2525" gradientUnits="userSpaceOnUse">
            <stop stop-color="#52CC9F" stop-opacity="0.9"/>
            <stop offset="0.995" stop-color="#43B088"/>
        </linearGradient>
        <linearGradient id="paint1_linear_148_3099" x1="45.382" y1="53.6361" x2="60.7213" y2="26.6788" gradientUnits="userSpaceOnUse">
            <stop stop-color="#53C197"/>
            <stop offset="0.96" stop-color="#4DBC94"/>
        </linearGradient>
        <linearGradient id="paint2_linear_148_3099" x1="53.5723" y1="29.7177" x2="56.8208" y2="24.0088" gradientUnits="userSpaceOnUse">
            <stop stop-color="#5DCCA4"/>
            <stop offset="1" stop-color="#52C096"/>
        </linearGradient>
        <linearGradient id="paint3_linear_148_3099" x1="5290.94" y1="18006" x2="7230.82" y2="16521" gradientUnits="userSpaceOnUse">
            <stop stop-color="#5DCCA4"/>
            <stop offset="1" stop-color="#52C096"/>
        </linearGradient>
        <linearGradient id="paint4_linear_148_3099" x1="4592.9" y1="17193.5" x2="6522.46" y2="15703.9" gradientUnits="userSpaceOnUse">
            <stop stop-color="#52CC9F" stop-opacity="0.9"/>
            <stop offset="0.995" stop-color="#43B088"/>
        </linearGradient>
        <linearGradient id="paint5_linear_148_3099" x1="53.451" y1="50.5831" x2="70.1985" y2="21.1513" gradientUnits="userSpaceOnUse">
            <stop stop-color="#52C096"/>
            <stop offset="0.427" stop-color="#5DCCA4"/>
        </linearGradient>
        <linearGradient id="paint6_linear_148_3099" x1="171.719" y1="409.517" x2="173.025" y2="409.517" gradientUnits="userSpaceOnUse">
            <stop stop-color="#5DCCA4"/>
            <stop offset="1" stop-color="#52C096"/>
        </linearGradient>
        <linearGradient id="paint7_linear_148_3099" x1="-5.02437" y1="13172.6" x2="1100.25" y2="12342.4" gradientUnits="userSpaceOnUse">
            <stop stop-color="#52CC9F" stop-opacity="0.9"/>
            <stop offset="0.995" stop-color="#43B088"/>
        </linearGradient>
        <linearGradient id="paint8_linear_148_3099" x1="1191.85" y1="17711" x2="3285.85" y2="14740.3" gradientUnits="userSpaceOnUse">
            <stop stop-color="#52CC9F" stop-opacity="0.9"/>
            <stop offset="0.995" stop-color="#43B088"/>
        </linearGradient>
        <linearGradient id="paint9_linear_148_3099" x1="171.719" y1="409.517" x2="173.025" y2="409.517" gradientUnits="userSpaceOnUse">
            <stop stop-color="#5DCCA4"/>
            <stop offset="1" stop-color="#52C096"/>
        </linearGradient>
    </defs>
</svg>
