<svg width="203" height="71" fill="none" xmlns="http://www.w3.org/2000/svg"><g clip-path="url(#a)"><mask id="b" maskUnits="userSpaceOnUse" x="7.064" y="4.458" width="64" height="57" fill="#000"><path fill="#fff" d="M7.064 4.458h64v57h-64z"/><path d="M22.583 29.356c2.168 4.075 1.129 8.869-3.953 11.31-.425.205-.89-.161-.883-.633a8.044 8.044 0 0 0-.46-2.813c-.99-2.901-2.778-3.542-4.154-6.13-2.167-4.074-1.13-8.868 3.952-11.31.425-.204.89.162.883.633-.015.955.14 1.908.46 2.813.991 2.902 2.779 3.543 4.155 6.13zM65.113 31.093c-1.377 2.588-3.165 3.227-4.158 6.127a8.05 8.05 0 0 0-.463 2.814c.008.471-.458.837-.882.633-5.08-2.446-6.115-7.242-3.944-11.314.964-1.811 2.129-2.668 3.082-4.013a.355.355 0 0 0-.293-.565c-.386 0-.771.023-1.154.069-.575.075-1.142.196-1.697.362a7.628 7.628 0 0 0-1.922.838c-.652.4-1.774 1.306-2.997 2.69L39.918 38.796c-.39.364-.584.546-.806.614a1.01 1.01 0 0 1-.599 0c-.22-.07-.415-.252-.803-.617l-11.964-11.25-.023-.021a1.378 1.378 0 0 1-.017-.018l-.017-.017c-.382-.405-4.864-5.233-4.864-8.778a9.2 9.2 0 0 1 1.443-4.96 9.41 9.41 0 0 1 2.63-2.708 9.245 9.245 0 0 1 2.902-1.3 9.271 9.271 0 0 1 7.352 1.237c.59.387 1.66 1.478 2.503 2.38.444.476.665.714.904.795.218.075.43.075.648.002.239-.08.462-.316.907-.787.814-.862 1.829-1.891 2.376-2.273a9.071 9.071 0 0 1 12.896 2.646l.002.003a.095.095 0 0 1-.014.121.099.099 0 0 1-.087.027 9.133 9.133 0 0 0-2.063-.157c-1.964.066-3.946.632-5.485 1.854-.542.423-.951 1.022-1.372 1.57l-.053.067a1.032 1.032 0 0 1-.042.046c-.016.017-.032.033-.065.064l-6.797 6.464c-.14.133-.21.2-.281.248a1.009 1.009 0 0 1-.935.098 2.345 2.345 0 0 1-.327-.184 1.01 1.01 0 0 1-.232-.182l-.236-.236-5.654-5.655c-.039-.04-.059-.059-.074-.076-.024-.026-.019-.02-.041-.048-.015-.018-.06-.08-.152-.207a1.963 1.963 0 0 0-2.463-.596 1.952 1.952 0 0 0-1.068 1.893c.02.292-.06.409.088.66.546.83 6.924 7.814 9.637 10.717.375.402.562.603.805.684.207.069.452.066.657-.007.242-.086.43-.295.806-.713l8.868-9.878a9.603 9.603 0 0 1 11.444-.942l.063.032.102.043c.252.101.504.21.752.33 5.08 2.446 6.115 7.241 3.944 11.313z"/><path d="m43.617 41.785 4.536-4.534c.856-.857 1.285-1.285 1.656-1.314a1.01 1.01 0 0 1 .846.35c.242.283.242.89.242 2.101v5.7c0 .247 0 .37-.028.486a1.01 1.01 0 0 1-.12.292c-.063.102-.15.189-.325.364L39.843 55.81c-.4.4-.6.6-.83.675a1.01 1.01 0 0 1-.624 0c-.23-.075-.43-.275-.83-.674L27.042 45.29c-.174-.175-.261-.262-.324-.364a1.01 1.01 0 0 1-.12-.291c-.028-.116-.028-.24-.028-.486v-5.75c0-1.222 0-1.833.241-2.116.21-.246.525-.376.847-.35.37.029.803.46 1.667 1.325l8.242 8.241c.397.398.596.597.826.672.201.066.42.066.621.001.23-.074.43-.27.827-.665 1.444-1.431 4.142-4.107 7.411-7.36l-3.634 3.638z"/></mask><path d="M22.583 29.356c2.168 4.075 1.129 8.869-3.953 11.31-.425.205-.89-.161-.883-.633a8.044 8.044 0 0 0-.46-2.813c-.99-2.901-2.778-3.542-4.154-6.13-2.167-4.074-1.13-8.868 3.952-11.31.425-.204.89.162.883.633-.015.955.14 1.908.46 2.813.991 2.902 2.779 3.543 4.155 6.13zM65.113 31.093c-1.377 2.588-3.165 3.227-4.158 6.127a8.05 8.05 0 0 0-.463 2.814c.008.471-.458.837-.882.633-5.08-2.446-6.115-7.242-3.944-11.314.964-1.811 2.129-2.668 3.082-4.013a.355.355 0 0 0-.293-.565c-.386 0-.771.023-1.154.069-.575.075-1.142.196-1.697.362a7.628 7.628 0 0 0-1.922.838c-.652.4-1.774 1.306-2.997 2.69L39.918 38.796c-.39.364-.584.546-.806.614a1.01 1.01 0 0 1-.599 0c-.22-.07-.415-.252-.803-.617l-11.964-11.25-.023-.021a1.378 1.378 0 0 1-.017-.018l-.017-.017c-.382-.405-4.864-5.233-4.864-8.778a9.2 9.2 0 0 1 1.443-4.96 9.41 9.41 0 0 1 2.63-2.708 9.245 9.245 0 0 1 2.902-1.3 9.271 9.271 0 0 1 7.352 1.237c.59.387 1.66 1.478 2.503 2.38.444.476.665.714.904.795.218.075.43.075.648.002.239-.08.462-.316.907-.787.814-.862 1.829-1.891 2.376-2.273a9.071 9.071 0 0 1 12.896 2.646l.002.003a.095.095 0 0 1-.014.121.099.099 0 0 1-.087.027 9.133 9.133 0 0 0-2.063-.157c-1.964.066-3.946.632-5.485 1.854-.542.423-.951 1.022-1.372 1.57l-.053.067a1.032 1.032 0 0 1-.042.046c-.016.017-.032.033-.065.064l-6.797 6.464c-.14.133-.21.2-.281.248a1.009 1.009 0 0 1-.935.098 2.345 2.345 0 0 1-.327-.184 1.01 1.01 0 0 1-.232-.182l-.236-.236-5.654-5.655c-.039-.04-.059-.059-.074-.076-.024-.026-.019-.02-.041-.048-.015-.018-.06-.08-.152-.207a1.963 1.963 0 0 0-2.463-.596 1.952 1.952 0 0 0-1.068 1.893c.02.292-.06.409.088.66.546.83 6.924 7.814 9.637 10.717.375.402.562.603.805.684.207.069.452.066.657-.007.242-.086.43-.295.806-.713l8.868-9.878a9.603 9.603 0 0 1 11.444-.942l.063.032.102.043c.252.101.504.21.752.33 5.08 2.446 6.115 7.241 3.944 11.313z" fill="#fff"/><path d="m43.617 41.785 4.536-4.534c.856-.857 1.285-1.285 1.656-1.314a1.01 1.01 0 0 1 .846.35c.242.283.242.89.242 2.101v5.7c0 .247 0 .37-.028.486a1.01 1.01 0 0 1-.12.292c-.063.102-.15.189-.325.364L39.843 55.81c-.4.4-.6.6-.83.675a1.01 1.01 0 0 1-.624 0c-.23-.075-.43-.275-.83-.674L27.042 45.29c-.174-.175-.261-.262-.324-.364a1.01 1.01 0 0 1-.12-.291c-.028-.116-.028-.24-.028-.486v-5.75c0-1.222 0-1.833.241-2.116.21-.246.525-.376.847-.35.37.029.803.46 1.667 1.325l8.242 8.241c.397.398.596.597.826.672.201.066.42.066.621.001.23-.074.43-.27.827-.665 1.444-1.431 4.142-4.107 7.411-7.36l-3.634 3.638z" fill="#fff"/><path d="m22.583 29.356-3.638 1.935 3.638-1.935zm-5.296 7.864-3.9 1.332.015.044 3.885-1.376zm-4.154-6.13-3.639 1.935 3.639-1.935zm5.296-7.864 3.9-1.331a3.844 3.844 0 0 0-.016-.044l-3.884 1.375zm46.684 7.867-3.636-1.938-.002.002 3.638 1.936zm-4.158 6.127 3.883 1.378.015-.042-3.898-1.336zm-5.29-7.867 3.637 1.939v-.002l-3.636-1.937zm1.636-4.51-.49-4.091a7.438 7.438 0 0 0-.046.006l.536 4.086zm-1.697.363 1.112 3.968.067-.02-1.18-3.948zm-1.922.838L51.53 22.53l-.002.001 2.153 3.514zm-2.997 2.69 2.814 3.012c.096-.09.188-.185.275-.284l-3.089-2.727zm-29.86-10.026h4.121v-.007l-4.12.007zm.053-1.014-4.097-.45-.002.02 4.099.43zm1.39-3.945 3.474 2.217.013-.02-3.486-2.197zm1.399-1.709 2.842 2.984.015-.015-2.857-2.969zm1.232-1-2.307-3.414-.011.007 2.318 3.407zm2.901-1.3-1.007-3.996-.006.001L27.8 9.74zm7.352 1.237-2.26 3.446 2.26-3.446zm7.338.117-2.358-3.38 2.358 3.38zm12.896 2.646-3.5 2.177c.034.053.068.106.104.158l3.396-2.335zm-.144.144-.76 4.05c.075.015.15.027.227.037l.533-4.087zm-1.688-.156v4.12h.002l-.002-4.12zm-.33.007.135 4.118h.017l-.153-4.118zm-5.485 1.853 2.536 3.248.026-.02-2.562-3.228zm-10.34 7.955-2.914 2.914.006.006 2.908-2.92zm-6.586-6.562 1.933-3.639-1.933 3.64zm-1.063-.224-.299-4.11h-.006l.305 4.11zm-1.711 1.34 3.915 1.284-3.915-1.285zm-.092.757 4.113-.264a2.768 2.768 0 0 0-.004-.05l-4.109.314zm.088.66-3.548 2.096c.034.058.069.114.105.17l3.443-2.265zm20.773.803-2.726-3.09c-.12.106-.233.219-.34.337l3.066 2.753zm11.316-1.02 2.15-3.517a1.212 1.212 0 0 0-.02-.011l-2.13 3.528zm1.045.483-1.795 3.71.007.003 1.788-3.713zM43.617 41.785l-2.906-2.922-.002.003 2.908 2.92zm3.634-3.638 2.907 2.92h.001l-2.908-2.92zm-20.654 6.488-4.008.962 4.008-.962zm.444.655-2.914 2.913 2.914-2.913zm-.324-.364-3.513 2.153 3.513-2.153zm13.126 10.885-2.914-2.914 2.914 2.914zm-.83.674 1.273 3.92-1.273-3.92zm-1.453-.674-2.915 2.913 2.915-2.913zm.83.674-1.274 3.919 1.273-3.92zm12.479-11.91 4.007.961-4.007-.962zm-.445.654 2.914 2.914-2.914-2.913zm.324-.363 3.514 2.153-3.514-2.153zm-2.595-7.615-2.914-2.914 2.914 2.914zm1.656-1.314.323 4.108-.323-4.108zm.846.35-3.133 2.677 3.133-2.677zm9.484-16.981L57.957 22.8l2.182-3.495zm.113.069 1.997-3.605-1.997 3.605zm.165.075-1.54 3.821 1.54-3.821zm-.102-.043 1.74-3.736-1.74 3.736zM37.672 30.23l3.01-2.813-3.01 2.813zm.805.684-1.303 3.909 1.303-3.91zm1.463-.72 3.066 2.753-3.066-2.753zm-.806.713-1.38-3.883 1.38 3.883zm-7.657-13.35 3.329-2.43-3.328 2.43zm.153.206 3.212-2.581-3.212 2.581zm.116.124-2.915 2.914 2.915-2.914zm-.075-.076-3.047 2.775 3.047-2.775zm27.077 7.528 3.362 2.383-3.362-2.383zm-3.461-11.448-.737 4.054.737-4.055zm-17.632-.534-3.012 2.812 3.012-2.812zm.904.794-1.334 3.9 1.334-3.9zm1.555-.785 2.995 2.83-2.995-2.83zm-.907.787 1.31 3.907-1.31-3.907zM37.566 45.5l-2.914 2.914 2.914-2.913zm.826.672-1.28 3.917 1.28-3.917zm1.448-.664-2.9-2.927 2.9 2.927zm-.827.665 1.261 3.923-1.26-3.923zm.905-7.377-2.814-3.01 2.814 3.01zm-.806.614 1.216 3.938-1.216-3.938zm-.599 0-1.228 3.933 1.228-3.934zm.897-15.61 2.84 2.986-2.84-2.986zm-.281.248-2.29-3.427 2.29 3.427zm-.935.098 1.528-3.827-1.528 3.827zm-.379-.216 2.264-3.444-2.264 3.444zm-.18-.15 2.909-2.92-2.909 2.92zm.044.043 2.818-3.007-2.818 3.007zm-11.99 3.664-2.998 2.828 2.998-2.828zm.017.017-2.947 2.881 2.947-2.88zm.04.04 2.823-3.003-2.823 3.002zm-.023-.022 2.876-2.951-2.876 2.95zm1.087 8.762-3.133-2.676 3.133 2.676zm2.514.975-2.914 2.914 2.914-2.914zm-1.667-1.326.323-4.108-.323 4.108zm18.71-18.774-3.268-2.51 3.268 2.51zm-.053.067-3.147-2.66 3.147 2.66zm-.107.11 2.84 2.986-2.84-2.986zm.065-.064-2.976-2.85 2.976 2.85zm9.116-3.528-3.402 2.326 3.402-2.326zm-37.64 26.29-4.121-.065 4.12.065zm42.744.001 4.12-.063-4.12.063zm-41.547-8.742c.643 1.208.698 2.291.444 3.112-.24.775-.892 1.755-2.544 2.549l3.57 7.428c3.43-1.648 5.839-4.287 6.846-7.537.994-3.206.485-6.557-1.04-9.423l-7.276 3.87zm2.923 8.807a12.168 12.168 0 0 0-.696-4.254l-7.77 2.75c.157.442.232.907.225 1.373l8.24.13zm-.681-4.21c-.747-2.188-1.839-3.548-2.735-4.57-.875-.996-1.271-1.393-1.681-2.163l-7.277 3.87c.967 1.816 2.152 3.034 2.763 3.73.59.671.886 1.082 1.13 1.796l7.8-2.663zm-4.416-6.733c-.642-1.209-.698-2.293-.444-3.113.24-.776.892-1.755 2.543-2.549l-3.57-7.428c-3.43 1.648-5.838 4.287-6.845 7.537-.993 3.206-.485 6.556 1.04 9.422l7.276-3.869zm-2.923-8.808a12.165 12.165 0 0 0 .696 4.254l7.77-2.751a3.923 3.923 0 0 1-.225-1.372l-8.241-.131zm.68 4.21c.747 2.187 1.84 3.548 2.736 4.57.875.996 1.27 1.392 1.68 2.163l7.277-3.87c-.966-1.817-2.152-3.034-2.763-3.73-.589-.671-.886-1.082-1.13-1.796l-7.8 2.663zm46.947 4.599c-.41.77-.806 1.167-1.68 2.162-.897 1.02-1.99 2.38-2.739 4.566l7.797 2.67c.245-.713.542-1.124 1.132-1.795.612-.697 1.798-1.913 2.766-3.73l-7.276-3.873zm-4.404 6.686c-.486 1.37-.721 2.81-.699 4.254l8.24-.126a3.928 3.928 0 0 1 .226-1.373l-7.767-2.755zm4.327 1.111c-1.652-.795-2.303-1.775-2.542-2.551-.254-.82-.197-1.904.446-3.111l-7.273-3.877c-1.527 2.865-2.038 6.215-1.047 9.422 1.005 3.251 3.411 5.892 6.84 7.543l3.576-7.426zm-2.095-5.663c.273-.514.58-.913 1.014-1.41.368-.423 1.157-1.26 1.793-2.159l-6.724-4.765c-.317.447-.587.711-1.28 1.507-.628.719-1.386 1.654-2.078 2.952l7.275 3.875zm-.847-10.637c-.55 0-1.099.033-1.644.098l.978 8.183c.22-.026.442-.04.664-.039l.002-8.242zm-1.69.104c-.793.104-1.575.27-2.341.5l2.358 7.896a6.757 6.757 0 0 1 1.054-.224l-1.072-8.172zm-2.275.48a11.75 11.75 0 0 0-2.96 1.291l4.302 7.03c.275-.168.572-.298.883-.385l-2.225-7.936zM51.53 22.53c-1.087.666-2.515 1.871-3.933 3.477l6.178 5.455c1.027-1.163 1.844-1.771 2.06-1.904L51.53 22.53zM28.687 24.66a24.878 24.878 0 0 1-2.176-2.717c-.498-.725-.924-1.447-1.215-2.1-.308-.691-.35-1.056-.35-1.134h-8.242c0 1.695.519 3.263 1.063 4.486.562 1.263 1.28 2.438 1.95 3.414a33.038 33.038 0 0 0 2.974 3.706l5.996-5.655zm-3.74-5.958c-.001-.193.009-.385.029-.576l-8.197-.861c-.05.482-.075.967-.075 1.452l8.242-.015zm.027-.556a5.08 5.08 0 0 1 .768-2.179l-6.946-4.435a13.32 13.32 0 0 0-2.015 5.713l8.193.901zm.781-2.2c.213-.337.466-.646.754-.921l-5.685-5.967a13.07 13.07 0 0 0-2.042 2.495l6.973 4.393zm.77-.936c.214-.206.446-.394.692-.562l-4.636-6.814c-.63.429-1.223.91-1.772 1.438l5.715 5.938zm.68-.554a5.123 5.123 0 0 1 1.61-.721l-2.028-7.989a13.366 13.366 0 0 0-4.195 1.88l4.614 6.83zm1.603-.72a5.15 5.15 0 0 1 2.114-.084l1.368-8.128a13.392 13.392 0 0 0-5.497.22l2.015 7.992zm2.114-.084a5.15 5.15 0 0 1 1.97.772l4.52-6.892a13.392 13.392 0 0 0-5.122-2.008l-1.368 8.128zm1.97.772c-.079-.052-.062-.049.078.073.12.105.278.25.467.434.38.368.807.813 1.206 1.24l6.024-5.624a45.194 45.194 0 0 0-1.487-1.527c-.443-.431-1.108-1.055-1.768-1.488l-4.52 6.892zm10.217 1.774c.389-.411.802-.838 1.168-1.194.183-.179.337-.322.458-.43.136-.12.166-.137.114-.1l-4.717-6.759c-.971.678-2.303 2.07-3.014 2.823l5.991 5.66zm1.74-1.724a4.951 4.951 0 0 1 1.833-.79l-1.665-8.07a13.192 13.192 0 0 0-4.885 2.101l4.717 6.759zm1.833-.79a4.95 4.95 0 0 1 1.996 0l1.657-8.074a13.193 13.193 0 0 0-5.318.003l1.665 8.072zm1.996 0a4.95 4.95 0 0 1 1.834.787l4.71-6.763a13.193 13.193 0 0 0-4.887-2.098l-1.657 8.074zm1.834.787c.552.384 1.02.877 1.375 1.447l6.998-4.354a13.191 13.191 0 0 0-3.663-3.856l-4.71 6.763zm1.478 1.605-.004-.006 6.803-4.652-.008-.011-6.791 4.669zm4.033-6.238a4.999 4.999 0 0 0-.248-.039l-1.066 8.173a3.37 3.37 0 0 1-.111-.017l-.048-.008 1.473-8.109zm-.022-.003a13.26 13.26 0 0 0-2.449-.227l.004 8.242c.31 0 .62.028.927.086L56 9.834zm-2.447-.227c-.177 0-.34.004-.483.01l.305 8.236c.08-.003.136-.004.178-.004V9.607zm-.467.01c-2.61.085-5.515.842-7.91 2.744l5.124 6.454c.682-.541 1.742-.918 3.058-.962l-.272-8.237zm-7.885 2.723c-1.073.839-1.903 2.047-2.103 2.308l6.535 5.02c.112-.145.257-.338.332-.437.095-.125.165-.215.226-.289.127-.155.147-.156.083-.106l-5.072-6.496zm-1.835 2.009-6.797 6.464 5.68 5.972 6.797-6.464-5.68-5.972zm-2.823 6.51-.237-.236-5.816 5.84.236.235 5.817-5.84zm-5.738-5.732a6.083 6.083 0 0 0-2.06-1.785l-3.866 7.279a2.16 2.16 0 0 1-.73-.634l6.656-4.86zm-2.06-1.785a6.083 6.083 0 0 0-3.295-.695l.598 8.22c-.405.03-.81-.056-1.17-.246l3.867-7.279zm-3.3-.694a6.072 6.072 0 0 0-2.288.634l3.713 7.358a2.169 2.169 0 0 1-.816.227l-.61-8.22zm-2.288.634a6.073 6.073 0 0 0-1.869 1.463l6.25 5.373a2.167 2.167 0 0 1-.668.522l-3.713-7.358zm-1.869 1.463a6.073 6.073 0 0 0-1.166 2.066l7.831 2.57c-.088.27-.23.521-.416.737l-6.248-5.373zm-1.166 2.066a6.072 6.072 0 0 0-.285 2.356l8.218-.627c.022.284-.013.57-.101.84l-7.831-2.569zm-.288 2.306a2.452 2.452 0 0 1-.004-.258c.005-.094-.011.181-.01.382a4.685 4.685 0 0 0 .666 2.37l7.096-4.192a3.55 3.55 0 0 1 .478 1.878l.004-.066a5.758 5.758 0 0 0-.005-.64l-8.225.526zm.757 2.662c.336.511 1.09 1.376 1.701 2.071.737.84 1.686 1.898 2.692 3.01a594.629 594.629 0 0 0 5.675 6.185l6.023-5.627a585.307 585.307 0 0 1-5.586-6.087c-.996-1.1-1.913-2.124-2.61-2.918-.824-.939-1.072-1.258-1.009-1.162l-6.886 4.528zm18.414 11.169 8.869-9.877-6.133-5.507-8.868 9.877 6.132 5.507zm8.529-9.54a5.483 5.483 0 0 1 3.135-1.35l-.74-8.208a13.724 13.724 0 0 0-7.848 3.378l5.453 6.18zm3.135-1.35a5.482 5.482 0 0 1 3.325.767l4.259-7.056a13.724 13.724 0 0 0-8.325-1.92l.74 8.21zm3.306.755a.987.987 0 0 1-.02-.012l4.366-6.99a4.356 4.356 0 0 0-.049-.03l-4.297 7.032zm.9.458c.19.077.354.149.498.218l3.589-7.419c-.35-.17-.69-.316-1.004-.442l-3.083 7.643zm.505.222c1.651.795 2.302 1.775 2.542 2.55.254.821.197 1.905-.446 3.112l7.273 3.876c1.527-2.865 2.038-6.215 1.047-9.421-1.005-3.252-3.412-5.892-6.84-7.543l-3.576 7.426zM46.52 44.708l4.545-4.543-5.827-5.828-4.528 4.526 5.81 5.845zm.255-6.32v5.7h8.242v-5.7h-8.242zm.734 3.928L36.93 52.896l5.828 5.829 10.58-10.582-5.827-5.827zm-16.82 1.832V38.4h-8.242v5.748h8.241zm-4.28-3.976 8.242 8.241 5.828-5.827-8.242-8.242-5.828 5.828zm16.331 8.262c1.445-1.432 4.146-4.11 7.417-7.366l-5.814-5.842c-3.266 3.25-5.962 5.924-7.404 7.354l5.801 5.854zm7.418-7.368a2.573 2.573 0 0 1-.085.081c-.05.046-.788.574-1.56.908-4.658-1.623-4.353-6.632-4.282-6.711a7.598 7.598 0 0 1 .109-.114l-.075.075-.397.398-1.347 1.347-1.349 1.35-.402.402a62.57 62.57 0 0 1-.09.091l-.024.024a2.771 2.771 0 0 0-.06.062 7.801 7.801 0 0 0-.214.246c.025 5.19 5.537 5.983 5.934 5.676a8.716 8.716 0 0 0 .162-.15l.046-.046-5.816-5.84.007-.007.04-.039.121-.11c.397-.308 5.91.486 5.934 5.675a7.934 7.934 0 0 1-.272.306.122.122 0 0 1-.011.011l.077-.077.399-.4 1.348-1.348 1.347-1.349.4-.4a35.05 35.05 0 0 0 .116-.117l.031-.032a7.62 7.62 0 0 0 .065-.07c.071-.079.376-5.087-4.282-6.71a8.605 8.605 0 0 0-1.56.907 7.91 7.91 0 0 0-.126.122l5.816 5.84zm-2.287-15.342-10.768 10.06 5.627 6.022 10.768-10.06-5.627-6.022zm-7.34 10.066L28.57 24.54l-5.646 6.005 11.964 11.249 5.646-6.004zm-.219-15.16-5.653-5.655-5.829 5.827 5.654 5.655 5.828-5.828zm.16 32.267-10.517-10.52-5.829 5.826 10.518 10.521 5.829-5.827zm-18.025-8.748c0 .05-.027.747.142 1.447l8.014-1.923c.067.282.081.502.085.58v.022-.127h-8.241zm7.508-1.773-.09-.09c-.017-.017-.007-.007.015.017.053.057.198.223.35.47l-7.027 4.306c.376.614.887 1.089.923 1.124l5.829-5.827zm-7.366 3.22a5.13 5.13 0 0 0 .614 1.483l7.027-4.306c.17.279.296.582.373.9l-8.014 1.923zm14.339 7.3-.22.219c-.05.049-.047.043-.012.013a3.127 3.127 0 0 1 1.043-.562l2.546 7.838a5.141 5.141 0 0 0 1.745-.993c.287-.243.574-.535.726-.686l-5.828-5.828zm-2.284 5.828c.152.152.439.443.726.687.323.274.906.72 1.745.993l2.547-7.838c.608.197.976.506 1.042.562.035.03.04.036-.011-.013-.05-.049-.114-.111-.22-.218l-5.828 5.827zm3.095-6.158a3.112 3.112 0 0 1 1.923 0l-2.547 7.838a5.13 5.13 0 0 0 3.17 0l-2.546-7.838zm9.036-8.478v.127-.023c.004-.077.018-.297.086-.58l8.014 1.924c.168-.7.142-1.397.142-1.448h-8.242zm6.562 4.055c.036-.035.547-.51.924-1.124l-7.028-4.306c.152-.248.298-.413.35-.47.023-.025.033-.035.015-.017l-.089.09 5.828 5.827zm-6.476-4.53c.076-.318.202-.622.372-.9l7.028 4.306c.28-.459.488-.96.614-1.483l-8.014-1.924zm4.204-3.448c.222-.221.383-.383.52-.515.14-.136.203-.19.22-.205.026-.021-.093.083-.32.207-.24.132-.71.342-1.354.393l-.646-8.216c-1.567.123-2.63 1.011-2.966 1.293-.436.364-.91.844-1.28 1.215l5.826 5.828zm3.952-1.777c0-.523.004-1.2-.047-1.765-.039-.437-.161-1.816-1.182-3.012l-6.267 5.353a3.397 3.397 0 0 1-.68-1.236c-.073-.248-.083-.406-.08-.372.002.022.008.105.01.3.004.19.004.42.004.732h8.242zm-4.886 1.657a3.11 3.11 0 0 1-2.61-1.081l6.267-5.353a5.13 5.13 0 0 0-4.303-1.782l.646 8.216zm7.825-17.244c.008.006.156.1.3.179l3.992-7.21.082.047c.018.01.03.018.032.02.003 0 .001 0-.007-.005a11.697 11.697 0 0 1-.034-.022l-4.365 6.991zm4.002-7.173-.028-.011.004.001c.014.006.06.025.12.053l-3.48 7.472c.146.067.29.124.301.128l3.083-7.643zm-3.703 7.352c.107.06.209.111.32.163l3.479-7.472a3.163 3.163 0 0 1 .194.099l-3.993 7.21zM34.66 33.045c.137.145.425.46.724.727.358.318.947.77 1.79 1.052l2.607-7.819c.6.2.973.512 1.083.61.047.042.06.059.018.014a19.322 19.322 0 0 1-.2-.211l-6.022 5.627zm2.214-5.604-.202.223c-.045.048-.034.034.01-.006.096-.09.465-.417 1.072-.633l2.76 7.766a5.117 5.117 0 0 0 1.778-1.096c.292-.272.576-.593.714-.747l-6.133-5.507zm.3 7.383a5.16 5.16 0 0 0 3.34-.033l-2.76-7.765a3.104 3.104 0 0 1 2.027-.02l-2.607 7.818zM28.15 19.987c.037.05.175.242.27.359l6.423-5.163a3.446 3.446 0 0 1 .07.09l-.009-.012a8.489 8.489 0 0 1-.038-.052l-.06-.082-6.656 4.86zm6.51-5.012-.02-.022a2.973 2.973 0 0 1 .079.083l-6.094 5.551c.097.106.2.208.207.215l5.829-5.827zm-6.24 5.371c0 .002.001.003.004.006l.013.016a4.667 4.667 0 0 0 .17.198l.013.015.005.006 6.093-5.55a.865.865 0 0 0-.01-.012l.002.003.071.081.07.083a.138.138 0 0 1 .002.003l-.01-.012-6.424 5.163zm33.691 7.377c2.121-2.994-.042-7.069-3.655-7.069v8.242c-3.02 0-4.848-3.429-3.07-5.939l6.725 4.765zM52.46 10.95a4.022 4.022 0 0 1 3.563-1.113l-1.473 8.109a4.22 4.22 0 0 0 3.738-1.168L52.46 10.95zM18.87 23.494a3.546 3.546 0 0 1-3.636-.341 3.423 3.423 0 0 1-1.386-2.805l8.24.13a4.82 4.82 0 0 0-1.944-3.945c-1.239-.918-3.083-1.314-4.844-.467l3.57 7.428zm15.773-7.324c.176.189.47.507.757.77a5.18 5.18 0 0 0 1.825 1.111l2.668-7.798c.343.118.607.268.785.387.166.112.269.205.29.225.022.02.014.014-.048-.05a26.782 26.782 0 0 1-.253-.27l-6.024 5.625zm2.475-5.633c-.117.125-.192.204-.254.267-.062.064-.07.07-.047.049.022-.02.125-.113.293-.224.179-.118.442-.266.786-.381l2.622 7.813a5.178 5.178 0 0 0 1.831-1.1c.289-.26.584-.577.76-.764l-5.99-5.66zm.107 7.514a5.096 5.096 0 0 0 3.293.01l-2.622-7.813a3.12 3.12 0 0 1 .999-.16c.375 0 .713.068.998.165l-2.668 7.798zm-2.573 30.362c.15.151.437.442.722.684.324.275.904.719 1.739.991l2.557-7.835c.606.198.972.505 1.039.562.035.03.04.036-.011-.013a22.07 22.07 0 0 1-.218-.216l-5.828 5.827zm2.288-5.833-.218.214c-.05.048-.046.042-.01.012a3.131 3.131 0 0 1 1.04-.557l2.522 7.846a5.14 5.14 0 0 0 1.742-.981c.287-.242.574-.53.725-.68L36.94 42.58zm.173 7.508a5.13 5.13 0 0 0 3.161.007l-2.522-7.846a3.111 3.111 0 0 1 1.918.004l-2.557 7.835zm-.009-14.304a19.67 19.67 0 0 1-.212.197c-.048.044-.043.037-.006.008.072-.058.43-.338 1.01-.517l2.432 7.875a5.138 5.138 0 0 0 1.69-.91c.283-.225.566-.494.713-.63l-5.627-6.023zm-2.217 6.01c.146.137.429.407.711.633.321.258.887.665 1.687.915l2.457-7.867c.579.18.937.462 1.008.52.037.029.043.036-.005-.008-.049-.044-.109-.1-.212-.197l-5.646 6.004zm3.009-6.322a3.113 3.113 0 0 1 1.846.003l-2.457 7.867a5.13 5.13 0 0 0 3.043.005l-2.432-7.875zM36.57 20.813l-.074.07c-.016.016-.012.012.003-.002.03-.027.154-.136.34-.26l4.579 6.852c.438-.293.807-.664.832-.688l-5.68-5.972zm-.861 6.659c.029.017.468.304.957.5l3.056-7.654c.208.083.352.164.387.184.017.01.022.014.004.002l-.088-.053-4.316 7.02zm1.13-6.852a3.112 3.112 0 0 1 2.883-.302l-3.056 7.654a5.13 5.13 0 0 0 4.752-.499l-4.579-6.853zm3.186-.17-.013-.008.003.003c.01.005.033.02.064.04l-4.528 6.887c.077.05.152.096.158.1l4.316-7.021zm-5.298 6.248c.006.005.067.067.134.13l5.636-6.013.055.052.002.003-.01-.011-5.817 5.84zm5.352-6.213c.148.098.288.208.418.33l-5.636 6.013c.214.2.445.383.69.544l4.528-6.887zM22.69 30.314l.068.07 5.893-5.761.013.012a8.836 8.836 0 0 1 .022.024l-5.996 5.655zm5.878-5.774-.005-.004.004.004.013.013.018.017-5.753 5.901c.038.038.072.07.077.074l5.646-6.005zm-5.81 5.844.087.087L28.6 24.57l.027.026.026.027-5.893 5.761zm7.93 8.016c0-.316 0-.547.004-.74.003-.198.008-.283.01-.307.004-.037-.005.119-.077.365a3.398 3.398 0 0 1-.682 1.241l-6.267-5.352c-1.025 1.2-1.145 2.587-1.183 3.018-.05.567-.046 1.245-.046 1.775h8.241zm1.55-4.056c-.375-.374-.852-.856-1.288-1.222-.332-.278-1.398-1.174-2.97-1.298l-.648 8.216a3.396 3.396 0 0 1-1.36-.395c-.224-.123-.34-.227-.313-.203.02.016.083.072.225.209.139.134.302.298.525.521l5.828-5.828zm-2.295 4.615a3.112 3.112 0 0 1-2.61 1.081l.646-8.216a5.13 5.13 0 0 0-4.303 1.783l6.267 5.352zm13.155-24.311-.012.014.008-.01.03-.036a2.89 2.89 0 0 1 .042-.051l6.294 5.32c.09-.106.165-.205.173-.216L43.1 14.648zm5.948 5.673c.009-.009.104-.098.201-.2l-5.952-5.7c.037-.039.067-.068.08-.081l.007-.006-.016.015 5.68 5.972zm-5.88-5.756a3.686 3.686 0 0 1 .129-.144l5.952 5.7c.073-.075.145-.156.213-.236l-6.294-5.32zm8.82 1.504c-1.184-1.73-.78-3.865.473-5.119l5.828 5.828c1.32-1.32 1.736-3.556.501-5.361l-6.803 4.652zM16.844 36.953a3.546 3.546 0 0 1 3.636.34 3.423 3.423 0 0 1 1.387 2.806l-8.241-.131a4.819 4.819 0 0 0 1.945 3.945c1.238.919 3.083 1.314 4.844.468l-3.571-7.428zm39.527 3.144a3.423 3.423 0 0 1 1.388-2.804 3.547 3.547 0 0 1 3.642-.337l-3.584 7.422c1.764.851 3.61.454 4.848-.463a4.819 4.819 0 0 0 1.947-3.944l-8.241.126z" fill="#fff" mask="url(#b)"/><g clip-path="url(#c)"><path d="M41.913 43.49c.132-.13 2.897-2.896 5.326-5.324 1.143-1.142 1.714-1.714 2.209-1.753.428-.033.849.14 1.128.468.322.377.322 1.185.322 2.8v4.184c0 .33 0 .494-.037.648a1.344 1.344 0 0 1-.16.39c-.084.135-.2.251-.433.484L40.225 55.43c-.533.533-.8.8-1.106.899-.27.088-.562.088-.832 0-.307-.1-.573-.367-1.106-.9l-3.58-3.582-6.4-6.4c-.233-.232-.35-.349-.433-.484a1.346 1.346 0 0 1-.16-.39c-.038-.154-.038-.319-.038-.648V39.7c0-1.63 0-2.445.323-2.823.28-.327.699-.5 1.128-.467.495.039 1.071.615 2.223 1.768l6.95 6.949c.528.528.792.792 1.098.892.268.087.56.088.828.002.307-.098.571-.36 1.1-.884 1.19-1.176 3.09-3.058 5.738-5.695.354-.352-4.39 4.394-4.045 4.05z" fill="url(#d)"/><path d="M22.587 29.356c2.168 4.075 1.129 8.869-3.953 11.31-.425.205-.89-.161-.883-.633a8.043 8.043 0 0 0-.46-2.813c-.99-2.901-2.778-3.542-4.154-6.13-2.167-4.075-1.13-8.868 3.952-11.31.425-.205.89.162.883.633-.015.955.14 1.908.46 2.813.991 2.902 2.779 3.543 4.155 6.13z" fill="url(#e)"/><path d="M65.116 31.093c-1.378 2.587-3.165 3.227-4.159 6.127a8.049 8.049 0 0 0-.462 2.814c.007.47-.458.837-.882.633-5.08-2.447-6.115-7.242-3.945-11.314.965-1.811 2.13-2.668 3.083-4.014a.355.355 0 0 0-.293-.564c-.386 0-.771.023-1.154.069-.575.075-1.142.196-1.697.362a7.63 7.63 0 0 0-1.922.838c-.652.4-1.775 1.306-2.997 2.69l-3.747 3.747-6.604 6.606c-.533.533-.8.799-1.106.899-.27.088-.562.088-.832 0-.307-.1-.573-.366-1.106-.9l-3.626-3.625-7.933-7.931-.012-.013-.01-.01-.01-.01c-.298-.315-4.874-5.207-4.874-8.79 0-.338.017-.676.052-1.013a9.2 9.2 0 0 1 1.392-3.946 9.41 9.41 0 0 1 2.63-2.708 9.245 9.245 0 0 1 2.901-1.3 9.271 9.271 0 0 1 7.165 1.118 1.478 1.478 0 0 1 .22.157c.035.03.064.06.123.118l2.049 2.05c.533.533.8.8 1.106.9.27.087.562.087.832 0 .307-.1.573-.367 1.106-.9l1.955-1.955c.05-.05.075-.076.105-.102a1.509 1.509 0 0 1 .186-.14 9.073 9.073 0 0 1 10.22.102c1.011.704-.15.645.5 1.69a.31.31 0 0 0 .007.01.086.086 0 0 1-.012.109.092.092 0 0 1-.099.02c-.308-.123-.01.01-.04.006-.556-.105-.118-.245-.684-.245-.11 0 .795 1.052.684 1.056-1.963.065-3.904.573-5.442 1.795-.573.447-1.04 1.15-1.488 1.723l-6.631 6.632-.017.016a1.345 1.345 0 0 1-1.888 0l-.017-.017-.341-.34-3.857-3.857-1.747-1.748-.054-.055c-.032-.035-.011-.012-.042-.048a35.963 35.963 0 0 1-.265-.335 1.961 1.961 0 0 0-2.42-.539 1.953 1.953 0 0 0-1.067 1.892c.019.293.11.641.26.894l-.172-.232c.522.794 6.39 6.525 9.27 9.32.529.514.793.77 1.098.866.268.084.557.082.824-.006.304-.1.566-.362 1.09-.886l8.491-8.492a9.602 9.602 0 0 1 11.42-.958 1.125 1.125 0 0 0 .205.097c.247.1.493.206.735.323 5.08 2.447 6.115 7.242 3.945 11.314z" fill="url(#f)"/><path d="M65.115 31.093c-1.377 2.588-3.165 3.227-4.158 6.127a8.051 8.051 0 0 0-.463 2.814c.008.471-.458.837-.882.633-5.08-2.447-6.115-7.242-3.945-11.314 1.088-2.043 2.43-2.871 3.437-4.556a8.262 8.262 0 0 0 .722-1.57 8.052 8.052 0 0 0 .388-3.79.043.043 0 0 1 .06-.046c.3.118.602.246.896.389 5.081 2.446 6.115 7.241 3.945 11.313z" fill="url(#g)"/><path d="M48.019 15.605c1.107-.973 3.302-1.927 5.206-1.87l.07.002c.934.03 1.4.044 1.546-.073a.489.489 0 0 0 .187-.42c-.01-.188-.296-.485-.867-1.08a6.91 6.91 0 0 0-1.291-1.076c-1.574-.985-2.155-1.195-3.361-1.442a9.072 9.072 0 0 0-7.017 1.447c-.456.319-1.237 1.087-1.957 1.834-.604.628-.907.941-1.222 1.046-.29.096-.562.096-.853-.002-.314-.106-.616-.423-1.22-1.055-.754-.79-1.59-1.614-2.086-1.94a9.27 9.27 0 0 0-6.474-1.413c-.262.04-.393.06-.573.145-.128.061-.327.21-.421.315-.134.149-.19.268-.302.507a9.12 9.12 0 0 0-.72 2.276c-.418 2.33.158 4.847 1.458 6.825.009.012.03-.002.025-.015a2.603 2.603 0 0 1-.198-.763 1.954 1.954 0 0 1 2.866-1.872c.204.108.563.55.781.756l1.948 1.95 3.857 3.856.342.34.016.017a1.345 1.345 0 0 0 1.889 0l.016-.016 6.632-6.632c.593-.635 1.169-1.16 1.723-1.646z" fill="url(#h)"/></g></g><path d="m171.524 23.761.001-.016c.126-2.536-.59-4.742-2.02-6.373a7.602 7.602 0 0 0-1.571-1.363 2.149 2.149 0 0 0-1.176-.35h-22.584c-.423 0-.836.124-1.189.358a7.86 7.86 0 0 0-1.166.945c-1.68 1.652-2.543 4.02-2.406 6.779.015.335.046.662.086.977a2.153 2.153 0 0 0 3.45 1.428c.266-.205.559-.374.872-.501h5.664V52.74c0 1.188.964 2.152 2.153 2.152h7.019a2.152 2.152 0 0 0 2.152-2.152V25.646h6.307c.311.126.602.294.866.498a2.152 2.152 0 0 0 3.453-1.426c.041-.316.071-.635.089-.957zM128.377 25.896c-.224.675-.336 1.502-.335 2.48 0 4.069 1.101 6.325 3.302 6.769l-2.967-9.25zm0 0c.419.018.836.066 1.249.144l.4-2.115-.881-1.964a4.868 4.868 0 0 0-2.129 1.819c-.252.023-.502.054-.752.094-1.05.18-2.067.498-3.024.945l5.137 1.077zm5.119 9.249a2.153 2.153 0 0 0-1.727-2.11c-.359-.072-.671-.252-.967-.858-.345-.707-.608-1.914-.608-3.801v-.002c-.001-2.116.586-2.429.712-2.485a2.152 2.152 0 0 0-.48-4.078 13.061 13.061 0 0 0-4.505-.061l-.019.003c-1.797.306-3.513.96-5.052 1.92-.225.049-.445.135-.65.259a2.78 2.78 0 0 0-.243.164c-.425.32-.717.785-.819 1.307-.19.967-.282 1.95-.277 2.935.004 3.773.92 7.014 2.885 9.53-1.372 1.084-2.42 2.55-3.073 4.23-.522 1.337-.666 2.513-.773 3.387l-.046.368c-.116.877-.255 1.544-.754 2.383l-.012.021a5.245 5.245 0 0 1-1.76 1.814 2.155 2.155 0 0 0 .186 3.754c.326.161.673.321 1.038.47l.007.003c3.75 1.512 7.347 1.058 10.011-.97l.017-.013a9.904 9.904 0 0 0 3.195-4.328c.518-1.334.661-2.506.768-3.38.015-.128.03-.25.046-.366.116-.879.254-1.546.752-2.385l.006-.011a5.38 5.38 0 0 1 1.319-1.51 2.154 2.154 0 0 0 .823-1.692v-4.498z" fill="#000" stroke="#fff" stroke-width="4.304" stroke-linejoin="round"/><path d="M131.058 25.837a2.152 2.152 0 0 0-.171-4.202 14.546 14.546 0 0 0-5-.004 13.984 13.984 0 0 0-5.839 2.459 2.152 2.152 0 0 0-.823 1.213l-.001.005a3.143 3.143 0 0 0-.047.204 3.13 3.13 0 0 0-.047.29 2.153 2.153 0 0 0 3.434 1.965 9.467 9.467 0 0 1 2.208-1.24l.004-.002a9.286 9.286 0 0 1 1.847-.523 8.467 8.467 0 0 1 2.991.043c.449.087.914.03 1.327-.166a.65.65 0 0 1 .117-.042zM189.284 18.667l.015.015c2.346 2.289 3.394 5.405 3.394 9.045v25.012a2.152 2.152 0 0 1-2.152 2.153h-7.019a2.152 2.152 0 0 1-2.152-2.153v-9.453a2.14 2.14 0 0 1-.296-1.09V36.39c0-.397.108-.77.296-1.089v-8.658c0-.14-.006-.28-.021-.419l-.003-.04a2.306 2.306 0 0 0-.103-.567l-.015-.038a2.14 2.14 0 0 1-.306-.418 1.887 1.887 0 0 1-.057-.096 4.68 4.68 0 0 0-.241-.383c-1.026-1.44-3.005-2.338-5.322-2.124a2.152 2.152 0 0 1-1.842-3.532l.002-.003c.014-.017.072-.085.148-.163.041-.043.079-.08.097-.098l.004-.004.022-.021c.017-.019.036-.037.054-.055 2.085-2.034 4.71-3.023 7.713-3.023l7.784 3.008zm0 0c-2.117-2.024-4.763-3.01-7.783-3.008l7.783 3.008z" fill="#000" stroke="#fff" stroke-width="4.304" stroke-linejoin="round"/><path d="M185.377 36.504a2.152 2.152 0 0 0-2.152-2.152h-1.556v-7.688c0-.295.018-.528.044-.71a2.152 2.152 0 0 0 2.978-2.884 9.105 9.105 0 0 0-.55-.889h-.001c-2.055-2.923-5.647-4.297-9.238-3.96a2.152 2.152 0 0 0-1.356.655c-2.203 2.306-3.198 5.35-3.198 8.873v6.631a2.153 2.153 0 0 0-1.803 2.124v5.867c0 .759.392 1.425.984 1.808a17.296 17.296 0 0 0-.157 1.802c-.007.126-.012.246-.019.358-.05.851-.134 1.496-.534 2.324l-.015.03a4.73 4.73 0 0 1-1.454 1.793 2.153 2.153 0 0 0 .414 3.685c.348.156.692.285.999.395a10.49 10.49 0 0 0 4.23.605l.024-.002c3.951-.292 6.765-3.03 7.819-6.575.362-1.21.435-2.228.479-3.049l.011-.203c.016-.311.03-.576.051-.818h1.848a2.152 2.152 0 0 0 2.152-2.153v-5.867zM139.919 16.248c.404.404.631.951.631 1.522v34.967a2.152 2.152 0 0 1-2.152 2.152h-7.02a2.152 2.152 0 0 1-2.152-2.152v-9.091l-.034-3.55c-.001-.135.01-.268.033-.399a2.158 2.158 0 0 1-.033-.378v-3.484c0-.129.012-.257.034-.382V25.93a2.129 2.129 0 0 1-.381-.199 10.24 10.24 0 0 0-2.221.14l-.004.002a9.686 9.686 0 0 0-4.044 1.701 2.152 2.152 0 0 1-3.383-2.116c.034-.192.075-.372.104-.502l.002-.011a11.284 11.284 0 0 1 3.713-6.14l16.907-2.557zm0 0a2.15 2.15 0 0 0-1.522-.63m1.522.63-1.522-.63m0 0h-5.486m5.486 0h-5.486m0 0c-3.928 0-7.308.986-9.899 3.188l9.899-3.187z" fill="#000" stroke="#fff" stroke-width="4.304" stroke-linejoin="round"/><path d="M133.139 41.433a2.15 2.15 0 0 0-.195-3.739c-.21-.104-.475-.236-.763-.358a2.153 2.153 0 0 0-2.989 1.983v.757a2.152 2.152 0 0 0 3.497 1.68 5.17 5.17 0 0 1 .45-.323zM93.084 37.72v-.002l-.017-5.207a2.152 2.152 0 0 0 .109-2.89c-1.347-1.602-2.924-2.76-4.52-3.376-1.55-.597-3.385-.766-4.947.099a4.872 4.872 0 0 0-1.897 1.957c-.162.31-.248.654-.248 1.004V43.56c-.048.513-.062.983-.07 1.394l-.005.258c-.006.343-.011.629-.03.925-.041.665-.147 1.285-.488 2.05-.089.2-.189.394-.299.584l-.007.014a5.159 5.159 0 0 1-1.282 1.491 2.153 2.153 0 0 0-.814 1.61 2.15 2.15 0 0 0 1.377 2.41 12.63 12.63 0 0 0 1.023.325c1.977.596 4.091.577 6.057-.054l.021-.007.027-.01c3.033-1.052 5.037-3.6 5.753-6.633a10.774 10.774 0 0 0 .282-2.154c-.01-2.682-.019-5.363-.025-8.042z" fill="#000" stroke="#fff" stroke-width="4.304" stroke-linejoin="round"/><path d="M112.359 15.618c1.188 0 2.152.963 2.152 2.152v34.967a2.152 2.152 0 0 1-2.152 2.152h-7.02a2.152 2.152 0 0 1-2.152-2.152v-6.406c.037-3.295.01-7.233-.028-10.47l9.2-20.243zm0 0h-5.487c-.14 0-.278.013-.412.04m5.899-.04-5.899.04m-3.315 19.054.014 1.148-.014-1.148zm0 0-.139.14-.001.002-3.657 3.733a2.152 2.152 0 0 1-2.938.129c-.257-.22-2.145-2.049-3.811-3.666l-.002-.002-.563-.549-2.006-1.953a2.166 2.166 0 0 1-.144-.155c-.957-1.138-1.96-1.816-2.773-2.13-.8-.308-1.204-.2-1.3-.159a.564.564 0 0 0-.189.207 2.152 2.152 0 0 1-4.055-1.004v-7.929c0-.165.019-.329.056-.49a7.93 7.93 0 0 1 2.273-3.953l.006-.005a7.953 7.953 0 0 1 1.219-.941c.342-.215.739-.33 1.144-.33h4.116c.629 0 1.227.276 1.635.754 1.798 2.103 3.593 4.206 5.386 6.31l5.743 11.99zm3.315-19.054h-.608c-.6 0-1.173.25-1.58.691l-5.604 6.066h-.001l-.793.858a383.72 383.72 0 0 1-.471-.55l9.057-7.065zM133.139 41.433a2.15 2.15 0 0 0-.195-3.739c-.21-.104-.475-.236-.763-.358a2.153 2.153 0 0 0-2.989 1.983v.757a2.152 2.152 0 0 0 3.497 1.68 5.17 5.17 0 0 1 .45-.323z" fill="#000" stroke="#fff" stroke-width="4.304" stroke-linejoin="round"/><path d="M169.376 23.638a11.8 11.8 0 0 1-.075.805 5.82 5.82 0 0 0-1.815-.95h-8.829V52.74h-7.019V23.493h-8.189a5.883 5.883 0 0 0-1.815.95 9.709 9.709 0 0 1-.071-.806c-.112-2.239.584-3.979 1.765-5.14.259-.256.542-.485.846-.686h22.584c.42.274.8.603 1.129.979 1.01 1.153 1.591 2.788 1.489 4.848z" fill="url(#i)"/><path d="M131.344 35.145v4.498a7.518 7.518 0 0 0-1.847 2.114c-1.424 2.398-.762 3.988-1.725 6.461a7.755 7.755 0 0 1-2.506 3.398c-1.986 1.512-4.765 1.95-7.902.686a13.383 13.383 0 0 1-.895-.406 7.387 7.387 0 0 0 2.48-2.56c1.427-2.398.765-3.984 1.729-6.457.852-2.19 2.493-3.834 4.635-4.499-2.863-2.171-4.296-5.521-4.299-10.049-.006-.844.073-1.686.236-2.514a.844.844 0 0 1 .062-.043c-.009.036-.019.072-.025.108a1.22 1.22 0 0 0-.019.104 11.817 11.817 0 0 1 4.996-2.112 10.908 10.908 0 0 1 3.762.051c-1.325.594-1.986 2.077-1.984 4.45 0 4.07 1.101 6.326 3.302 6.77z" fill="url(#j)"/><path d="M130.516 23.755a2.804 2.804 0 0 0-.491.177 10.627 10.627 0 0 0-3.762-.052 11.599 11.599 0 0 0-4.995 2.17.972.972 0 0 1 .018-.108c.006-.037.016-.073.025-.11a11.835 11.835 0 0 1 4.943-2.08 12.391 12.391 0 0 1 4.262.003z" fill="url(#k)"/><path d="M187.796 20.222c-1.682-1.608-3.78-2.412-6.295-2.411-2.493 0-4.563.804-6.211 2.411-.043.046-.093.092-.137.138a.81.81 0 0 0-.049.055c2.95-.272 5.735.855 7.277 3.024.134.19.252.38.357.567.022.034.044.07.063.104.391.399.618 1.03.69 1.897.021.214.032.43.031.646v9.737h-.296v5.807h.296v10.542h7.019V27.727c0-3.218-.915-5.72-2.745-7.505z" fill="url(#l)"/><path d="M183.225 36.504v5.867h-3.708v.406c-.035.105-.059.207-.084.309-.408 1.645-.084 2.972-.659 4.893-.84 2.827-2.991 4.828-5.916 5.044a8.343 8.343 0 0 1-3.367-.482 11.61 11.61 0 0 1-.848-.334 6.885 6.885 0 0 0 2.113-2.608c1.154-2.387.445-3.869 1.166-6.303.093-.315.206-.624.339-.925h-1.564v-5.867h1.803V27.75c0-3.109.868-5.57 2.602-7.386 2.95-.276 5.736.863 7.278 3.056.153.217.293.443.419.677a1.743 1.743 0 0 0-1.299-.501c-1.321 0-1.982 1.023-1.983 3.068v9.841h3.708z" fill="url(#m)"/><path d="M138.398 17.77v34.967h-7.02v-9.101l-.034.033v-3.593c.204-.164.417-.316.637-.457a10.808 10.808 0 0 0-.637-.3v-3.484a.136.136 0 0 1 .034.01V23.751a9.257 9.257 0 0 0-1.312.187.176.176 0 0 0-.04-.007c.158-.074.322-.133.491-.177a12.391 12.391 0 0 0-4.262-.003 11.846 11.846 0 0 0-4.943 2.08 8.07 8.07 0 0 1 .088-.417 9.124 9.124 0 0 1 3.006-4.97c2.098-1.782 4.933-2.674 8.505-2.674l5.487-.001z" fill="url(#n)"/><path d="M131.981 39.62c-.221.14-.433.292-.637.456v-.757c.217.092.429.196.637.3z" fill="url(#o)"/><path d="M90.932 37.725c.006 2.68.014 5.362.025 8.045a8.622 8.622 0 0 1-.224 1.651c-.572 2.42-2.124 4.317-4.365 5.096a8.051 8.051 0 0 1-4.8.036c-.1-.027-.199-.055-.298-.085a9.273 9.273 0 0 1-.584-.193c.087-.07.174-.148.26-.227a5.031 5.031 0 0 1-.226-.086 7.312 7.312 0 0 0 1.815-2.114c.148-.254.281-.516.401-.784.942-2.111.588-3.539.78-5.399v-14.36a2.719 2.719 0 0 1 1.036-1.078c1.616-.895 4.473.04 6.776 2.779l-.621-.604c.01 2.442.017 4.883.025 7.323z" fill="url(#p)"/><path d="M112.359 17.77v34.967h-7.02v-6.382c.038-3.32.01-7.28-.028-10.52-.043-3.592-.102-6.306-.102-6.306a3239.036 3239.036 0 0 1-3.74 3.817l-3.659 3.735c-.19-.162-1.996-1.909-3.712-3.575l-2.567-2.5c-2.304-2.74-5.16-3.674-6.777-2.78a2.72 2.72 0 0 0-1.035 1.08v-7.93a5.777 5.777 0 0 1 1.657-2.88 5.8 5.8 0 0 1 .889-.686h4.116c1.796 2.102 3.591 4.204 5.384 6.308l.873 1.02c.389.46.78.917 1.172 1.376l2.437-2.638 5.605-6.066h1.029l-.009-.04h5.487z" fill="url(#q)"/><path d="M131.981 39.62c-.221.14-.433.292-.637.456v-.757c.217.092.429.196.637.3z" fill="url(#r)"/><defs><linearGradient id="l" x1="5361.56" y1="18004" x2="7301.45" y2="16519" gradientUnits="userSpaceOnUse"><stop stop-color="#5DCCA4"/><stop offset="1" stop-color="#52C096"/></linearGradient><linearGradient id="d" x1="26.57" y1="45.727" x2="50.898" y2="45.727" gradientUnits="userSpaceOnUse"><stop stop-color="#43B088"/><stop offset=".005" stop-color="#43B088"/><stop offset="1" stop-color="#52CC9F"/></linearGradient><linearGradient id="f" x1="20.828" y1="25.271" x2="66.188" y2="25.271" gradientUnits="userSpaceOnUse"><stop offset=".005" stop-color="#E75C5B"/><stop offset=".131" stop-color="#F13E44"/><stop offset=".26" stop-color="#F92732"/><stop offset=".38" stop-color="#FD1927"/><stop offset=".485" stop-color="#FF1423"/><stop offset=".651" stop-color="#FF1423"/><stop offset=".817" stop-color="#77BB9A"/><stop offset=".94" stop-color="#64D3AB"/></linearGradient><linearGradient id="g" x1="7751.89" y1="8056.94" x2="7751.89" y2="11495.9" gradientUnits="userSpaceOnUse"><stop stop-color="#3FAB83"/><stop offset="1" stop-color="#66D5AD"/></linearGradient><linearGradient id="h" x1="26.518" y1="17.151" x2="55.431" y2="17.151" gradientUnits="userSpaceOnUse"><stop stop-color="#ED1C24"/><stop offset=".005" stop-color="#ED1C24"/><stop offset="1" stop-color="#E75C5B"/></linearGradient><linearGradient id="i" x1="143.549" y1="48.136" x2="162.261" y2="15.252" gradientUnits="userSpaceOnUse"><stop stop-color="#52CC9F" stop-opacity=".9"/><stop offset=".995" stop-color="#43B088"/></linearGradient><linearGradient id="j" x1="116.01" y1="51.636" x2="131.349" y2="24.679" gradientUnits="userSpaceOnUse"><stop stop-color="#53C197"/><stop offset=".96" stop-color="#4DBC94"/></linearGradient><linearGradient id="k" x1="124.2" y1="27.718" x2="127.448" y2="22.009" gradientUnits="userSpaceOnUse"><stop stop-color="#5DCCA4"/><stop offset="1" stop-color="#52C096"/></linearGradient><linearGradient id="e" x1="17.862" y1="19.363" x2="17.862" y2="41.084" gradientUnits="userSpaceOnUse"><stop stop-color="#3FAB83"/><stop offset="1" stop-color="#66D5AD"/></linearGradient><linearGradient id="m" x1="4663.53" y1="17191.5" x2="6593.09" y2="15701.9" gradientUnits="userSpaceOnUse"><stop stop-color="#52CC9F" stop-opacity=".9"/><stop offset=".995" stop-color="#43B088"/></linearGradient><linearGradient id="n" x1="124.078" y1="48.583" x2="140.825" y2="19.151" gradientUnits="userSpaceOnUse"><stop stop-color="#52C096"/><stop offset=".427" stop-color="#5DCCA4"/></linearGradient><linearGradient id="o" x1="242.346" y1="407.517" x2="243.652" y2="407.517" gradientUnits="userSpaceOnUse"><stop stop-color="#5DCCA4"/><stop offset="1" stop-color="#52C096"/></linearGradient><linearGradient id="p" x1="65.603" y1="13170.6" x2="1170.87" y2="12340.4" gradientUnits="userSpaceOnUse"><stop stop-color="#52CC9F" stop-opacity=".9"/><stop offset=".995" stop-color="#43B088"/></linearGradient><linearGradient id="q" x1="1262.48" y1="17709" x2="3356.48" y2="14738.3" gradientUnits="userSpaceOnUse"><stop stop-color="#52CC9F" stop-opacity=".9"/><stop offset=".995" stop-color="#43B088"/></linearGradient><linearGradient id="r" x1="242.346" y1="407.517" x2="243.652" y2="407.517" gradientUnits="userSpaceOnUse"><stop stop-color="#5DCCA4"/><stop offset="1" stop-color="#52C096"/></linearGradient><clipPath id="a"><path fill="#fff" transform="translate(7.81 5.2)" d="M0 0h62.637v56.044H0z"/></clipPath><clipPath id="c"><path fill="#fff" transform="translate(12.068 9.458)" d="M0 0h54.12v47.494H0z"/></clipPath></defs></svg>