<svg width="203" height="71" viewBox="0 0 203 71" fill="none" xmlns="http://www.w3.org/2000/svg">
<g clip-path="url(#clip0_402_4340)">
<mask id="path-1-outside-1_402_4340" maskUnits="userSpaceOnUse" x="7.06445" y="4.45825" width="64" height="57" fill="black">
<rect fill="white" x="7.06445" y="4.45825" width="64" height="57"/>
<path d="M22.5829 29.3562C24.7506 33.431 23.712 38.2247 18.6302 40.6669C18.2052 40.8712 17.7399 40.5048 17.7473 40.0333C17.7625 39.0786 17.6076 38.1258 17.287 37.2204C16.2965 34.3187 14.5088 33.678 13.1327 31.0904C10.9663 27.0156 12.0035 22.2219 17.0853 19.7798C17.5103 19.5755 17.9757 19.9419 17.9682 20.4134C17.9531 21.3681 18.108 22.3208 18.4285 23.2262C19.4191 26.1279 21.2068 26.7687 22.5829 29.3562Z"/>
<path d="M65.1131 31.0931C63.7356 33.6807 61.9479 34.32 60.9546 37.2204C60.6334 38.1261 60.4778 39.0792 60.4924 40.0344C60.4996 40.5052 60.034 40.8715 59.61 40.6668C54.5296 38.2206 53.4951 33.4255 55.6656 29.3534C56.6303 27.542 57.7946 26.6852 58.7481 25.3398C58.9192 25.0983 58.7508 24.7751 58.4548 24.7751C58.0692 24.775 57.6839 24.7979 57.301 24.8437C56.7265 24.919 56.159 25.0402 55.6038 25.2059C54.9276 25.3955 54.2808 25.6776 53.6817 26.0442C53.03 26.4434 51.9077 27.3503 50.6853 28.7347L39.9176 38.7953C39.5283 39.159 39.3336 39.3409 39.1121 39.4094C38.917 39.4696 38.7083 39.4693 38.5134 39.4084C38.2921 39.3393 38.098 39.1568 37.7098 38.7918L25.7457 27.5424C25.7348 27.5321 25.7293 27.527 25.7228 27.5206C25.7178 27.5157 25.7106 27.5085 25.7057 27.5035C25.6993 27.497 25.696 27.4934 25.6892 27.4863C25.3074 27.0814 20.8254 22.2534 20.8254 18.7082C20.8247 18.3695 20.8421 18.0311 20.8775 17.6943C21.032 16.2896 21.5081 14.9394 22.2687 13.7485C22.6624 13.1236 23.132 12.5498 23.6667 12.0403C24.0485 11.6728 24.4607 11.3383 24.8988 11.0402C25.7837 10.4423 26.7654 10.0022 27.8005 9.73951C29.0448 9.42585 30.3406 9.37388 31.6059 9.5869C32.8713 9.79992 34.0787 10.2733 35.1516 10.977C35.7423 11.3645 36.8123 12.4554 37.6549 13.3579C38.0986 13.8331 38.3204 14.0707 38.5591 14.1524C38.7765 14.2268 38.9889 14.2274 39.2067 14.1543C39.4459 14.074 39.6685 13.8384 40.1137 13.367C40.9284 12.5046 41.943 11.4757 42.4904 11.0937C43.5004 10.3887 44.6433 9.89684 45.8496 9.64796C47.0559 9.39908 48.3002 9.39843 49.5067 9.64605C50.7132 9.89367 51.8567 10.3844 52.8674 11.0883C53.8782 11.7921 54.735 12.6945 55.3857 13.7402C55.3863 13.7412 55.387 13.7421 55.3876 13.743C55.4135 13.781 55.4069 13.8315 55.3744 13.864C55.3513 13.8871 55.3186 13.8974 55.2866 13.8915C55.2715 13.8888 55.2566 13.8862 55.2416 13.8843C54.6852 13.78 54.1202 13.7276 53.5541 13.7279C53.4443 13.7279 53.3346 13.7306 53.2234 13.7347C51.2597 13.7995 49.2776 14.3663 47.7388 15.5881C47.197 16.0112 46.7878 16.6099 46.3665 17.1582C46.3416 17.1907 46.3292 17.2069 46.314 17.2248C46.3012 17.24 46.2857 17.2571 46.272 17.2714C46.2558 17.2884 46.2396 17.3038 46.2071 17.3347L39.4103 23.7991C39.2705 23.932 39.2006 23.9985 39.1286 24.0467C38.8522 24.2313 38.5027 24.268 38.194 24.1447C38.1135 24.1126 38.0313 24.0621 37.867 23.961C37.8408 23.9449 37.8278 23.9369 37.815 23.9285C37.7667 23.8968 37.7213 23.861 37.6792 23.8216C37.6681 23.8111 37.6572 23.8003 37.6354 23.7786L37.3989 23.5431L31.7455 17.8883C31.7061 17.8489 31.6864 17.8291 31.6706 17.8118C31.6467 17.7856 31.6523 17.7921 31.63 17.7644C31.6154 17.7462 31.5694 17.6832 31.4775 17.5573C31.303 17.3183 31.0761 17.1211 30.8132 16.9814C30.487 16.8081 30.1185 16.7304 29.7501 16.7572C29.494 16.7762 29.2442 16.8456 29.0149 16.9613C28.7856 17.077 28.5814 17.2367 28.4139 17.4315C28.2464 17.6262 28.119 17.852 28.039 18.0961C27.9589 18.3401 27.9278 18.5975 27.9473 18.8536C27.9661 19.1461 27.8861 19.2626 28.0351 19.5149C28.5809 20.3448 34.9593 27.3285 37.6715 30.2314C38.0467 30.6329 38.2343 30.8337 38.4774 30.9147C38.6842 30.9837 38.929 30.9812 39.1344 30.9082C39.3759 30.8224 39.5638 30.6131 39.9396 30.1946L48.8084 20.3175C50.3406 18.9655 52.2641 18.1376 54.2993 17.954C56.3344 17.7704 58.3751 18.2408 60.1245 19.2968C60.1295 19.2998 60.1344 19.3028 60.1393 19.3059C60.1992 19.3433 60.2292 19.362 60.2523 19.3748C60.2752 19.3875 60.2915 19.3958 60.3152 19.4068C60.3392 19.418 60.3653 19.4285 60.4175 19.4496C60.6695 19.5512 60.9214 19.6601 61.1686 19.7797C66.2491 22.226 67.2836 27.021 65.1131 31.0931Z"/>
<path d="M43.6166 41.7853C43.7531 41.6496 46.1461 39.257 48.1528 37.2506C49.0094 36.3942 49.4377 35.966 49.8088 35.9368C50.1303 35.9115 50.4456 36.0422 50.655 36.2874C50.8968 36.5704 50.8968 37.1764 50.8968 38.3884V44.088C50.8968 44.3348 50.8968 44.4582 50.8689 44.5743C50.8442 44.6772 50.8034 44.7756 50.7481 44.8659C50.6857 44.9677 50.5984 45.055 50.424 45.2295L39.8427 55.8107C39.4431 56.2103 39.2434 56.41 39.013 56.4849C38.8103 56.5507 38.592 56.5507 38.3894 56.4849C38.159 56.41 37.9593 56.2102 37.5597 55.8106L27.0414 45.2898C26.8669 45.1153 26.7797 45.0281 26.7173 44.9263C26.662 44.836 26.6213 44.7376 26.5966 44.6347C26.5687 44.5186 26.5687 44.3952 26.5687 44.1485V38.3995C26.5687 37.1771 26.5687 36.5659 26.8104 36.2829C27.0202 36.0373 27.3348 35.907 27.6567 35.9323C28.0278 35.9615 28.46 36.3937 29.3243 37.2581L37.5658 45.4995C37.9633 45.8971 38.1621 46.0958 38.3916 46.1708C38.5935 46.2367 38.8113 46.2371 39.0134 46.1722C39.2433 46.0983 39.4424 45.9011 39.8404 45.5066C41.2842 44.076 43.9825 41.3998 47.2511 38.1467C47.6051 37.7941 43.2709 42.1297 43.6166 41.7853Z"/>
</mask>
<path d="M22.5829 29.3562C24.7506 33.431 23.712 38.2247 18.6302 40.6669C18.2052 40.8712 17.7399 40.5048 17.7473 40.0333C17.7625 39.0786 17.6076 38.1258 17.287 37.2204C16.2965 34.3187 14.5088 33.678 13.1327 31.0904C10.9663 27.0156 12.0035 22.2219 17.0853 19.7798C17.5103 19.5755 17.9757 19.9419 17.9682 20.4134C17.9531 21.3681 18.108 22.3208 18.4285 23.2262C19.4191 26.1279 21.2068 26.7687 22.5829 29.3562Z" fill="white"/>
<path d="M65.1131 31.0931C63.7356 33.6807 61.9479 34.32 60.9546 37.2204C60.6334 38.1261 60.4778 39.0792 60.4924 40.0344C60.4996 40.5052 60.034 40.8715 59.61 40.6668C54.5296 38.2206 53.4951 33.4255 55.6656 29.3534C56.6303 27.542 57.7946 26.6852 58.7481 25.3398C58.9192 25.0983 58.7508 24.7751 58.4548 24.7751C58.0692 24.775 57.6839 24.7979 57.301 24.8437C56.7265 24.919 56.159 25.0402 55.6038 25.2059C54.9276 25.3955 54.2808 25.6776 53.6817 26.0442C53.03 26.4434 51.9077 27.3503 50.6853 28.7347L39.9176 38.7953C39.5283 39.159 39.3336 39.3409 39.1121 39.4094C38.917 39.4696 38.7083 39.4693 38.5134 39.4084C38.2921 39.3393 38.098 39.1568 37.7098 38.7918L25.7457 27.5424C25.7348 27.5321 25.7293 27.527 25.7228 27.5206C25.7178 27.5157 25.7106 27.5085 25.7057 27.5035C25.6993 27.497 25.696 27.4934 25.6892 27.4863C25.3074 27.0814 20.8254 22.2534 20.8254 18.7082C20.8247 18.3695 20.8421 18.0311 20.8775 17.6943C21.032 16.2896 21.5081 14.9394 22.2687 13.7485C22.6624 13.1236 23.132 12.5498 23.6667 12.0403C24.0485 11.6728 24.4607 11.3383 24.8988 11.0402C25.7837 10.4423 26.7654 10.0022 27.8005 9.73951C29.0448 9.42585 30.3406 9.37388 31.6059 9.5869C32.8713 9.79992 34.0787 10.2733 35.1516 10.977C35.7423 11.3645 36.8123 12.4554 37.6549 13.3579C38.0986 13.8331 38.3204 14.0707 38.5591 14.1524C38.7765 14.2268 38.9889 14.2274 39.2067 14.1543C39.4459 14.074 39.6685 13.8384 40.1137 13.367C40.9284 12.5046 41.943 11.4757 42.4904 11.0937C43.5004 10.3887 44.6433 9.89684 45.8496 9.64796C47.0559 9.39908 48.3002 9.39843 49.5067 9.64605C50.7132 9.89367 51.8567 10.3844 52.8674 11.0883C53.8782 11.7921 54.735 12.6945 55.3857 13.7402C55.3863 13.7412 55.387 13.7421 55.3876 13.743C55.4135 13.781 55.4069 13.8315 55.3744 13.864C55.3513 13.8871 55.3186 13.8974 55.2866 13.8915C55.2715 13.8888 55.2566 13.8862 55.2416 13.8843C54.6852 13.78 54.1202 13.7276 53.5541 13.7279C53.4443 13.7279 53.3346 13.7306 53.2234 13.7347C51.2597 13.7995 49.2776 14.3663 47.7388 15.5881C47.197 16.0112 46.7878 16.6099 46.3665 17.1582C46.3416 17.1907 46.3292 17.2069 46.314 17.2248C46.3012 17.24 46.2857 17.2571 46.272 17.2714C46.2558 17.2884 46.2396 17.3038 46.2071 17.3347L39.4103 23.7991C39.2705 23.932 39.2006 23.9985 39.1286 24.0467C38.8522 24.2313 38.5027 24.268 38.194 24.1447C38.1135 24.1126 38.0313 24.0621 37.867 23.961C37.8408 23.9449 37.8278 23.9369 37.815 23.9285C37.7667 23.8968 37.7213 23.861 37.6792 23.8216C37.6681 23.8111 37.6572 23.8003 37.6354 23.7786L37.3989 23.5431L31.7455 17.8883C31.7061 17.8489 31.6864 17.8291 31.6706 17.8118C31.6467 17.7856 31.6523 17.7921 31.63 17.7644C31.6154 17.7462 31.5694 17.6832 31.4775 17.5573C31.303 17.3183 31.0761 17.1211 30.8132 16.9814C30.487 16.8081 30.1185 16.7304 29.7501 16.7572C29.494 16.7762 29.2442 16.8456 29.0149 16.9613C28.7856 17.077 28.5814 17.2367 28.4139 17.4315C28.2464 17.6262 28.119 17.852 28.039 18.0961C27.9589 18.3401 27.9278 18.5975 27.9473 18.8536C27.9661 19.1461 27.8861 19.2626 28.0351 19.5149C28.5809 20.3448 34.9593 27.3285 37.6715 30.2314C38.0467 30.6329 38.2343 30.8337 38.4774 30.9147C38.6842 30.9837 38.929 30.9812 39.1344 30.9082C39.3759 30.8224 39.5638 30.6131 39.9396 30.1946L48.8084 20.3175C50.3406 18.9655 52.2641 18.1376 54.2993 17.954C56.3344 17.7704 58.3751 18.2408 60.1245 19.2968C60.1295 19.2998 60.1344 19.3028 60.1393 19.3059C60.1992 19.3433 60.2292 19.362 60.2523 19.3748C60.2752 19.3875 60.2915 19.3958 60.3152 19.4068C60.3392 19.418 60.3653 19.4285 60.4175 19.4496C60.6695 19.5512 60.9214 19.6601 61.1686 19.7797C66.2491 22.226 67.2836 27.021 65.1131 31.0931Z" fill="white"/>
<path d="M43.6166 41.7853C43.7531 41.6496 46.1461 39.257 48.1528 37.2506C49.0094 36.3942 49.4377 35.966 49.8088 35.9368C50.1303 35.9115 50.4456 36.0422 50.655 36.2874C50.8968 36.5704 50.8968 37.1764 50.8968 38.3884V44.088C50.8968 44.3348 50.8968 44.4582 50.8689 44.5743C50.8442 44.6772 50.8034 44.7756 50.7481 44.8659C50.6857 44.9677 50.5984 45.055 50.424 45.2295L39.8427 55.8107C39.4431 56.2103 39.2434 56.41 39.013 56.4849C38.8103 56.5507 38.592 56.5507 38.3894 56.4849C38.159 56.41 37.9593 56.2102 37.5597 55.8106L27.0414 45.2898C26.8669 45.1153 26.7797 45.0281 26.7173 44.9263C26.662 44.836 26.6213 44.7376 26.5966 44.6347C26.5687 44.5186 26.5687 44.3952 26.5687 44.1485V38.3995C26.5687 37.1771 26.5687 36.5659 26.8104 36.2829C27.0202 36.0373 27.3348 35.907 27.6567 35.9323C28.0278 35.9615 28.46 36.3937 29.3243 37.2581L37.5658 45.4995C37.9633 45.8971 38.1621 46.0958 38.3916 46.1708C38.5935 46.2367 38.8113 46.2371 39.0134 46.1722C39.2433 46.0983 39.4424 45.9011 39.8404 45.5066C41.2842 44.076 43.9825 41.3998 47.2511 38.1467C47.6051 37.7941 43.2709 42.1297 43.6166 41.7853Z" fill="white"/>
<path d="M22.5829 29.3562L18.9446 31.2911L18.9448 31.2916L22.5829 29.3562ZM17.287 37.2204L13.3872 38.5518C13.3922 38.5665 13.3973 38.5811 13.4025 38.5958L17.287 37.2204ZM13.1327 31.0904L9.49408 33.0249L9.49433 33.0253L13.1327 31.0904ZM18.4285 23.2262L22.3284 21.8949C22.3234 21.8802 22.3183 21.8655 22.3131 21.8508L18.4285 23.2262ZM65.1131 31.0931L61.4766 29.1548L61.4755 29.1567L65.1131 31.0931ZM60.9546 37.2204L64.8384 38.5979C64.8434 38.5838 64.8483 38.5697 64.8531 38.5556L60.9546 37.2204ZM55.6656 29.3534L59.3021 31.2918L59.3028 31.2905L55.6656 29.3534ZM57.301 24.8437L56.8119 20.752C56.7963 20.7539 56.7808 20.7558 56.7652 20.7578L57.301 24.8437ZM55.6038 25.2059L56.7164 29.1737C56.7386 29.1675 56.7607 29.1611 56.7828 29.1545L55.6038 25.2059ZM53.6817 26.0442L51.5309 22.5292L51.529 22.5303L53.6817 26.0442ZM50.6853 28.7347L53.4986 31.7457C53.5949 31.6557 53.6869 31.5611 53.7741 31.4623L50.6853 28.7347ZM20.8254 18.7082H24.9462L24.9462 18.7005L20.8254 18.7082ZM20.8775 17.6943L16.7814 17.2436C16.7806 17.2504 16.7799 17.2572 16.7792 17.2639L20.8775 17.6943ZM22.2687 13.7485L25.7417 15.9664C25.7462 15.9594 25.7507 15.9524 25.7551 15.9453L22.2687 13.7485ZM23.6667 12.0403L26.5094 15.0237C26.5145 15.0189 26.5195 15.0141 26.5245 15.0092L23.6667 12.0403ZM24.8988 11.0402L22.5917 7.62566L22.5806 7.6332L24.8988 11.0402ZM27.8005 9.73951L26.7932 5.74368L26.7868 5.7453L27.8005 9.73951ZM35.1516 10.977L32.8915 14.4228L35.1516 10.977ZM42.4904 11.0937L40.1319 7.7145L42.4904 11.0937ZM55.3857 13.7402L51.8868 15.9173C51.92 15.9705 51.9544 16.0231 51.9899 16.0748L55.3857 13.7402ZM55.2416 13.8843L54.4825 17.9346C54.5575 17.9487 54.6329 17.9606 54.7086 17.9705L55.2416 13.8843ZM53.5541 13.7279V17.8487L53.5559 17.8487L53.5541 13.7279ZM53.2234 13.7347L53.3593 17.8533C53.3649 17.8532 53.3704 17.853 53.3759 17.8528L53.2234 13.7347ZM47.7388 15.5881L50.2752 18.8359C50.2839 18.8291 50.2926 18.8222 50.3013 18.8153L47.7388 15.5881ZM37.3989 23.5431L34.4847 26.4566L34.4909 26.4628L37.3989 23.5431ZM30.8132 16.9814L32.7465 13.3422L30.8132 16.9814ZM29.7501 16.7572L29.451 12.6472L29.4451 12.6477L29.7501 16.7572ZM28.039 18.0961L31.9545 19.3806L28.039 18.0961ZM27.9473 18.8536L32.0597 18.5901C32.0587 18.5733 32.0575 18.5565 32.0562 18.5398L27.9473 18.8536ZM28.0351 19.5149L24.4869 21.6105C24.5206 21.6675 24.5557 21.7237 24.5921 21.7791L28.0351 19.5149ZM48.8084 20.3175L46.0819 17.2276C45.9623 17.3331 45.8488 17.4456 45.7422 17.5644L48.8084 20.3175ZM60.1245 19.2968L62.2731 15.7804C62.2668 15.7765 62.2604 15.7726 62.254 15.7688L60.1245 19.2968ZM61.1686 19.7797L59.3742 23.4893L59.3809 23.4926L61.1686 19.7797ZM43.6166 41.7853L40.7113 38.8628L40.7085 38.8656L43.6166 41.7853ZM47.2511 38.1467L50.158 41.0675L50.1593 41.0662L47.2511 38.1467ZM26.5966 44.6347L22.5895 45.5965L26.5966 44.6347ZM27.0414 45.2898L24.1272 48.2033L27.0414 45.2898ZM26.7173 44.9263L23.2036 47.0791L26.7173 44.9263ZM39.8427 55.8107L36.9289 52.8968L39.8427 55.8107ZM39.013 56.4849L40.2863 60.4041L39.013 56.4849ZM37.5597 55.8106L34.6455 58.7241L37.5597 55.8106ZM38.3894 56.4849L37.1157 60.4039L38.3894 56.4849ZM50.8689 44.5743L54.8759 45.5363L50.8689 44.5743ZM50.424 45.2295L53.3378 48.1433L50.424 45.2295ZM50.7481 44.8659L54.2617 47.019L50.7481 44.8659ZM48.1528 37.2506L45.2393 34.3365L48.1528 37.2506ZM49.8088 35.9368L50.1318 40.045L49.8088 35.9368ZM50.655 36.2874L47.5215 38.9636L50.655 36.2874ZM60.1393 19.3059L57.9567 22.8012L60.1393 19.3059ZM60.2523 19.3748L62.2486 15.7698L60.2523 19.3748ZM60.4175 19.4496L58.8764 23.2714L60.4175 19.4496ZM60.3152 19.4068L62.0546 15.6711L60.3152 19.4068ZM37.6715 30.2314L40.6826 27.418L37.6715 30.2314ZM38.4774 30.9147L37.1741 34.824L38.4774 30.9147ZM39.9396 30.1946L43.0058 32.9477L39.9396 30.1946ZM39.1344 30.9082L37.754 27.0255L39.1344 30.9082ZM31.4775 17.5573L34.8057 15.1275L31.4775 17.5573ZM31.63 17.7644L34.842 15.1828L31.63 17.7644ZM31.7455 17.8883L28.8313 20.8018L31.7455 17.8883ZM31.6706 17.8118L28.6244 20.5871L31.6706 17.8118ZM58.7481 25.3398L62.1102 27.7225L58.7481 25.3398ZM55.2866 13.8915L54.5497 17.946L55.2866 13.8915ZM37.6549 13.3579L34.6428 16.1702L37.6549 13.3579ZM38.5591 14.1524L37.2252 18.0514L38.5591 14.1524ZM40.1137 13.367L43.1094 16.1968L40.1137 13.367ZM39.2067 14.1543L40.5178 18.061L39.2067 14.1543ZM37.5658 45.4995L34.6519 48.4134L37.5658 45.4995ZM38.3916 46.1708L37.1129 50.0882L38.3916 46.1708ZM39.8404 45.5066L36.9399 42.5795L39.8404 45.5066ZM39.0134 46.1722L40.2743 50.0954L39.0134 46.1722ZM39.9176 38.7953L37.1043 35.7842L39.9176 38.7953ZM39.1121 39.4094L40.3284 43.3466L39.1121 39.4094ZM38.5134 39.4084L37.2846 43.3418L38.5134 39.4084ZM39.4103 23.7991L42.2503 26.785L39.4103 23.7991ZM39.1286 24.0467L36.8393 20.6202L39.1286 24.0467ZM38.194 24.1447L39.7221 20.3177L38.194 24.1447ZM37.815 23.9285L40.0787 20.4851L37.815 23.9285ZM37.6354 23.7786L40.5435 20.8589L37.6354 23.7786ZM37.6792 23.8216L40.4974 20.815L37.6792 23.8216ZM25.6892 27.4863L22.6913 30.3137L25.6892 27.4863ZM25.7057 27.5035L22.7592 30.3844L25.7057 27.5035ZM25.7457 27.5424L28.5686 24.5402L25.7457 27.5424ZM25.7228 27.5206L28.5993 24.5698L25.7228 27.5206ZM26.8104 36.2829L23.6769 33.6066L26.8104 36.2829ZM29.3243 37.2581L26.4105 40.172L29.3243 37.2581ZM27.6567 35.9323L27.9801 31.8242L27.6567 35.9323ZM46.3665 17.1582L43.0986 14.6478L46.3665 17.1582ZM46.314 17.2248L43.1666 14.5648L46.314 17.2248ZM46.2071 17.3347L49.0471 20.3206L46.2071 17.3347ZM46.272 17.2714L43.296 14.4211L46.272 17.2714ZM55.3876 13.743L51.9861 16.0692L55.3876 13.743ZM17.7473 40.0333L13.627 39.9679L17.7473 40.0333ZM60.4924 40.0344L64.6128 39.9715L60.4924 40.0344ZM18.9448 31.2916C19.5876 32.4998 19.6433 33.5834 19.389 34.4039C19.1487 35.1792 18.4971 36.1589 16.8453 36.9527L20.4151 44.3811C23.8451 42.7328 26.2538 40.0945 27.2613 36.8437C28.2548 33.6381 27.746 30.2874 26.221 27.4208L18.9448 31.2916ZM21.8677 40.0987C21.8906 38.655 21.6563 37.2143 21.1716 35.8451L13.4025 38.5958C13.5588 39.0374 13.6344 39.5022 13.627 39.9679L21.8677 40.0987ZM21.1869 35.8891C20.4401 33.7014 19.348 32.3408 18.4517 31.3194C17.5769 30.3226 17.1809 29.9262 16.771 29.1555L9.49433 33.0253C10.4606 34.8422 11.6465 36.0599 12.2572 36.7558C12.8464 37.4272 13.1434 37.8377 13.3872 38.5518L21.1869 35.8891ZM16.7712 29.156C16.1286 27.9473 16.0728 26.8632 16.3271 26.0425C16.5674 25.2671 17.2187 24.2877 18.8703 23.494L15.3004 16.0655C11.8702 17.714 9.46193 20.3525 8.45471 23.6032C7.46153 26.8086 7.97032 30.1588 9.49408 33.0249L16.7712 29.156ZM13.8479 20.348C13.825 21.7917 14.0592 23.2324 14.544 24.6015L22.3131 21.8508C22.1567 21.4092 22.0812 20.9445 22.0886 20.4788L13.8479 20.348ZM14.5287 24.5575C15.2755 26.7452 16.3676 28.1059 17.2639 29.1272C18.1387 30.124 18.5347 30.5204 18.9446 31.2911L26.2212 27.4213C25.255 25.6044 24.0691 24.3868 23.4584 23.6909C22.8692 23.0195 22.5721 22.6089 22.3284 21.8949L14.5287 24.5575ZM61.4755 29.1567C61.0654 29.9272 60.669 30.3239 59.7943 31.3193C58.8978 32.3394 57.8049 33.6988 57.056 35.8852L64.8531 38.5556C65.0976 37.8416 65.3952 37.4311 65.9853 36.7596C66.5971 36.0634 67.7833 34.8465 68.7506 33.0295L61.4755 29.1567ZM57.0708 35.8429C56.5851 37.2122 56.35 38.6532 56.372 40.0973L64.6128 39.9715C64.6056 39.5052 64.6816 39.04 64.8384 38.5979L57.0708 35.8429ZM61.3978 36.954C59.7464 36.1588 59.0955 35.1786 58.8558 34.4029C58.6021 33.5821 58.6587 32.4987 59.3021 31.2918L52.0291 27.4151C50.5019 30.2802 49.9906 33.6304 50.9816 36.8367C51.9866 40.0882 54.3932 42.7286 57.8223 44.3797L61.3978 36.954ZM59.3028 31.2905C59.5762 30.7772 59.8825 30.3783 60.317 29.8801C60.6849 29.4581 61.4738 28.6205 62.1102 27.7225L55.3859 22.9571C55.0688 23.4045 54.7988 23.668 54.1051 24.4636C53.4778 25.183 52.7197 26.1183 52.0284 27.4164L59.3028 31.2905ZM58.4557 20.6543C57.9063 20.6542 57.3574 20.6868 56.8119 20.752L57.7901 28.9354C58.0104 28.9091 58.2321 28.8959 58.454 28.896L58.4557 20.6543ZM56.7652 20.7578C55.9731 20.8617 55.1905 21.0287 54.4249 21.2573L56.7828 29.1545C57.1275 29.0516 57.48 28.9764 57.8368 28.9296L56.7652 20.7578ZM54.4912 21.2381C53.4497 21.5302 52.4535 21.9646 51.5309 22.5292L55.8325 29.5592C56.108 29.3906 56.4054 29.2609 56.7164 29.1737L54.4912 21.2381ZM51.529 22.5303C50.4419 23.1963 49.0141 24.4015 47.5964 26.007L53.7741 31.4623C54.8013 30.2992 55.618 29.6906 55.8344 29.5581L51.529 22.5303ZM28.6872 24.659C28.5612 24.5254 27.5071 23.3922 26.5108 21.9417C26.0132 21.2173 25.5866 20.4949 25.2964 19.8429C24.9884 19.1507 24.9462 18.7864 24.9462 18.7082H16.7045C16.7045 20.4026 17.2226 21.9713 17.7668 23.1941C18.3289 24.457 19.0467 25.6317 19.7174 26.6081C21.0576 28.5591 22.4354 30.0423 22.6913 30.3137L28.6872 24.659ZM24.9462 18.7005C24.9458 18.5081 24.9557 18.3159 24.9758 18.1247L16.7792 17.2639C16.7285 17.7463 16.7036 18.2309 16.7045 18.7159L24.9462 18.7005ZM24.9736 18.145C25.0589 17.3695 25.3218 16.624 25.7417 15.9664L18.7957 11.5305C17.6944 13.2549 17.0051 15.2098 16.7814 17.2436L24.9736 18.145ZM25.7551 15.9453C25.9676 15.6082 26.2209 15.2986 26.5094 15.0237L20.824 9.05699C20.0431 9.8011 19.3573 10.639 18.7823 11.5516L25.7551 15.9453ZM26.5245 15.0092C26.7391 14.8027 26.9707 14.6147 27.217 14.4471L22.5806 7.6332C21.9506 8.06186 21.358 8.54297 20.809 9.07143L26.5245 15.0092ZM27.2059 14.4546C27.6963 14.1232 28.2405 13.8793 28.8142 13.7337L26.7868 5.7453C25.2903 6.1251 23.871 6.76131 22.5917 7.62568L27.2059 14.4546ZM28.8078 13.7353C29.499 13.5611 30.2189 13.5322 30.9218 13.6506L32.29 5.52324C30.4623 5.21554 28.5905 5.2906 26.7932 5.74368L28.8078 13.7353ZM30.9218 13.6506C31.6248 13.7689 32.2955 14.0319 32.8915 14.4228L37.4117 7.53127C35.8619 6.51471 34.1178 5.83094 32.29 5.52324L30.9218 13.6506ZM32.8915 14.4228C32.8131 14.3713 32.8301 14.3741 32.9699 14.4956C33.0907 14.6006 33.2477 14.7458 33.4372 14.9299C33.8163 15.2982 34.2437 15.7427 34.6428 16.1702L40.667 10.5457C40.2235 10.0707 39.6946 9.51842 39.1804 9.0188C38.7366 8.58757 38.0715 7.96405 37.4117 7.53127L32.8915 14.4228ZM43.1094 16.1968C43.4975 15.7859 43.9111 15.359 44.2772 15.0026C44.4602 14.8244 44.6139 14.6807 44.7346 14.5739C44.8713 14.4528 44.9015 14.4361 44.8489 14.4728L40.1319 7.7145C39.1609 8.3922 37.829 9.7847 37.1181 10.5373L43.1094 16.1968ZM44.8489 14.4728C45.4001 14.0881 46.0239 13.8196 46.6823 13.6838L45.0169 5.61212C43.2627 5.97404 41.6006 6.68937 40.1319 7.7145L44.8489 14.4728ZM46.6823 13.6838C47.3406 13.548 48.0197 13.5476 48.6782 13.6828L50.3352 5.60935C48.5806 5.24925 46.7711 5.2502 45.0169 5.61212L46.6823 13.6838ZM48.6782 13.6828C49.3367 13.8179 49.9608 14.0857 50.5124 14.4699L55.2224 7.70664C53.7526 6.68304 52.0897 5.96944 50.3352 5.60935L48.6782 13.6828ZM50.5124 14.4699C51.0641 14.854 51.5317 15.3465 51.8868 15.9173L58.8845 11.5632C57.9383 10.0424 56.6923 8.73024 55.2224 7.70664L50.5124 14.4699ZM51.9899 16.0748C51.9887 16.0729 51.9874 16.0711 51.9861 16.0692L58.7891 11.4169C58.7866 11.4131 58.784 11.4094 58.7814 11.4056L51.9899 16.0748ZM56.0234 9.8371C55.9886 9.83077 55.8932 9.81352 55.7746 9.79805L54.7086 17.9705C54.6616 17.9644 54.6234 17.9584 54.5977 17.9542C54.5724 17.9501 54.5542 17.9468 54.5497 17.946L56.0234 9.8371ZM56.0008 9.83397C55.1934 9.68264 54.3737 9.60667 53.5522 9.60703L53.5559 17.8487C53.8667 17.8486 54.1769 17.8773 54.4825 17.9346L56.0008 9.83397ZM53.5541 9.60703C53.3769 9.60703 53.2131 9.61145 53.0709 9.61672L53.3759 17.8528C53.456 17.8498 53.5117 17.8487 53.5541 17.8487V9.60703ZM53.0875 9.61614C50.4764 9.70228 47.572 10.4587 45.1763 12.3609L50.3013 18.8153C50.9831 18.274 52.043 17.8968 53.3593 17.8533L53.0875 9.61614ZM45.2025 12.3403C44.129 13.1787 43.2993 14.3866 43.0986 14.6478L49.6344 19.6687C49.7463 19.523 49.8906 19.3303 49.9657 19.2314C50.061 19.1057 50.131 19.0159 50.1917 18.942C50.3189 18.787 50.3386 18.7864 50.2752 18.8359L45.2025 12.3403ZM43.3672 14.3487L36.5704 20.8131L42.2503 26.785L49.0471 20.3206L43.3672 14.3487ZM40.5435 20.8589L40.307 20.6233L34.4909 26.4628L34.7274 26.6983L40.5435 20.8589ZM34.8057 15.1275C34.2649 14.3866 33.5616 13.7753 32.7465 13.3422L28.8799 20.6206C28.5907 20.4669 28.3411 20.25 28.1492 19.9871L34.8057 15.1275ZM32.7465 13.3422C31.7353 12.805 30.593 12.5641 29.451 12.6472L30.0492 20.8672C29.644 20.8967 29.2387 20.8112 28.8799 20.6206L32.7465 13.3422ZM29.4451 12.6477C28.6486 12.7068 27.8715 12.9224 27.1584 13.2823L30.8713 20.6403C30.6168 20.7687 30.3394 20.8457 30.0552 20.8668L29.4451 12.6477ZM27.1584 13.2823C26.4454 13.6421 25.8102 14.139 25.2895 14.7446L31.5383 20.1183C31.3525 20.3345 31.1258 20.5118 30.8713 20.6403L27.1584 13.2823ZM25.2895 14.7446C24.7687 15.3502 24.3724 16.0526 24.1235 16.8115L31.9545 19.3806C31.8656 19.6515 31.7242 19.9022 31.5383 20.1183L25.2895 14.7446ZM24.1235 16.8115C23.8745 17.5704 23.7776 18.371 23.8385 19.1674L32.0562 18.5398C32.0779 18.8241 32.0434 19.1098 31.9545 19.3806L24.1235 16.8115ZM23.8349 19.1171C23.8261 18.9793 23.8306 18.8752 23.8314 18.8587C23.8356 18.765 23.8197 19.0404 23.8218 19.2409C23.8247 19.5369 23.855 19.9467 23.9826 20.4197C24.1083 20.8857 24.2931 21.2823 24.4869 21.6105L31.5834 17.4194C31.7027 17.6214 31.8416 17.9088 31.9398 18.2729C32.0399 18.6438 32.061 18.9589 32.063 19.1577C32.0639 19.2437 32.061 19.3053 32.0607 19.3102C32.0606 19.3129 32.0606 19.3134 32.0614 19.2973C32.062 19.2854 32.0634 19.2595 32.0646 19.231C32.0705 19.1025 32.078 18.8742 32.0597 18.5901L23.8349 19.1171ZM24.5921 21.7791C24.928 22.29 25.6825 23.1548 26.293 23.85C27.0297 24.6892 27.9786 25.748 28.9852 26.8605C30.9992 29.0865 33.2869 31.5746 34.6604 33.0447L40.6826 27.418C39.3439 25.9853 37.0863 23.5301 35.0966 21.331C34.1014 20.231 33.1838 19.2068 32.4864 18.4125C31.6626 17.4742 31.4151 17.1548 31.4782 17.2507L24.5921 21.7791ZM43.0058 32.9477L51.8746 23.0707L45.7422 17.5644L36.8735 27.4414L43.0058 32.9477ZM51.5348 23.4075C52.4096 22.6357 53.5077 22.163 54.6695 22.0582L53.9291 13.8498C51.0206 14.1122 48.2717 15.2954 46.0819 17.2276L51.5348 23.4075ZM54.6695 22.0582C55.8313 21.9534 56.9963 22.2219 57.995 22.8247L62.254 15.7688C59.7539 14.2597 56.8375 13.5875 53.9291 13.8498L54.6695 22.0582ZM57.9759 22.8131C57.9685 22.8086 57.962 22.8046 57.9567 22.8012L62.3219 15.8105C62.3067 15.801 62.2904 15.7909 62.2731 15.7804L57.9759 22.8131ZM58.8764 23.2714C59.0661 23.3479 59.2301 23.4197 59.3742 23.4893L62.963 16.0701C62.6128 15.9006 62.2729 15.7545 61.9586 15.6278L58.8764 23.2714ZM59.3809 23.4926C61.0322 24.2877 61.6831 25.268 61.9229 26.0436C62.1766 26.8644 62.1199 27.9478 61.4766 29.1548L68.7496 33.0314C70.2767 30.1664 70.7881 26.8161 69.797 23.6098C68.792 20.3584 66.3855 17.718 62.9564 16.0668L59.3809 23.4926ZM46.5219 44.7078C46.6639 44.5665 49.0649 42.1659 51.0664 40.1648L45.2393 34.3365C43.2272 36.3481 40.8423 38.7326 40.7113 38.8629L46.5219 44.7078ZM46.7759 38.3884V44.088H55.0176V38.3884H46.7759ZM47.5101 42.3156L36.9289 52.8968L42.7566 58.7246L53.3378 48.1433L47.5101 42.3156ZM30.6895 44.1485V38.3995H22.4479V44.1485H30.6895ZM26.4105 40.172L34.6519 48.4134L40.4797 42.5857L32.2382 34.3442L26.4105 40.172ZM42.741 48.4338C44.1862 47.0016 46.8868 44.3233 50.158 41.0675L44.3441 35.2259C41.0782 38.4764 38.3821 41.1504 36.9399 42.5795L42.741 48.4338ZM50.1593 41.0662C50.1763 41.0494 50.1683 41.0574 50.1558 41.0696C50.1538 41.0716 50.1426 41.0826 50.1281 41.0965C50.1189 41.1053 50.0919 41.1309 50.074 41.1476C50.0245 41.1928 49.2861 41.7212 48.514 42.0554C43.8562 40.4319 44.161 35.4235 44.2321 35.3438C44.2537 35.3204 44.286 35.2861 44.2965 35.2751C44.3124 35.2585 44.325 35.2456 44.3268 35.2438C44.3375 35.2329 44.3456 35.2247 44.3408 35.2296C44.3329 35.2375 44.3087 35.2618 44.2655 35.3051C44.1824 35.3883 44.0442 35.5267 43.8686 35.7025C43.5177 36.0537 43.0202 36.5516 42.5221 37.0501C42.0241 37.5484 41.5256 38.0472 41.1731 38.4C40.9971 38.5762 40.8568 38.7167 40.7712 38.8024C40.7299 38.8439 40.6975 38.8764 40.6806 38.8933C40.6786 38.8954 40.6679 38.9061 40.6568 38.9175C40.6541 38.9202 40.645 38.9295 40.6336 38.9413C40.627 38.9481 40.6091 38.9668 40.5979 38.9787C40.574 39.0043 40.4653 39.1263 40.3833 39.2253C40.4077 44.4144 45.9203 45.2082 46.3168 44.9006C46.3608 44.8613 46.4209 44.8059 46.4376 44.7902C46.4598 44.769 46.4774 44.7518 46.4789 44.7503C46.4979 44.7317 46.5214 44.7082 46.5247 44.705L40.7085 38.8656C40.6902 38.8839 40.7012 38.8728 40.7163 38.8581C40.7174 38.8571 40.7346 38.8402 40.7566 38.8192C40.7731 38.8036 40.8332 38.7482 40.8771 38.709C41.2736 38.4014 46.7862 39.1952 46.8106 44.3843C46.7286 44.4832 46.62 44.6052 46.5962 44.6307C46.585 44.6425 46.5673 44.6611 46.5609 44.6678C46.5498 44.6793 46.5411 44.6881 46.539 44.6902C46.5301 44.6993 46.5238 44.7056 46.528 44.7013C46.5366 44.6928 46.5615 44.6678 46.6049 44.6243C46.6887 44.5403 46.8276 44.4012 47.0037 44.2249C47.3556 43.8727 47.8537 43.3743 48.3518 42.8758C48.8498 42.3775 49.3478 41.8791 49.6992 41.5274C49.8747 41.3517 50.0144 41.2119 50.0992 41.1269C50.14 41.086 50.1723 41.0536 50.1888 41.0369C50.1901 41.0357 50.2023 41.0234 50.2151 41.0104C50.2174 41.008 50.2304 40.9948 50.2465 40.9779C50.2571 40.9668 50.2895 40.9324 50.3112 40.9089C50.3823 40.8292 50.6871 35.8207 46.0294 34.1972C45.2572 34.5314 44.5188 35.0599 44.4692 35.1051C44.4512 35.1219 44.4241 35.1476 44.4148 35.1565C44.4 35.1707 44.3884 35.1821 44.3859 35.1846C44.369 35.2012 44.348 35.2221 44.3429 35.2272L50.1593 41.0662ZM47.8719 25.7236L37.1043 35.7842L42.731 41.8063L53.4986 31.7457L47.8719 25.7236ZM40.5326 35.7896L28.5686 24.5402L22.9229 30.5446L34.887 41.7939L40.5326 35.7896ZM40.3132 20.6295L34.6597 14.9747L28.8313 20.8018L34.4847 26.4566L40.3132 20.6295ZM40.4739 52.897L29.9556 42.3763L24.1272 48.2033L34.6455 58.7241L40.4739 52.897ZM22.4479 44.1485C22.4479 44.1991 22.4214 44.896 22.5895 45.5965L30.6036 43.6728C30.6714 43.9553 30.6852 44.1752 30.6887 44.2524C30.6902 44.2858 30.69 44.2997 30.6898 44.2749C30.6896 44.2493 30.6895 44.2155 30.6895 44.1485H22.4479ZM29.9556 42.3763C29.9082 42.3289 29.8843 42.305 29.8664 42.2867C29.849 42.269 29.859 42.2787 29.8815 42.3034C29.9336 42.3604 30.0793 42.5257 30.2311 42.7734L23.2036 47.0791C23.58 47.6935 24.0914 48.1676 24.1272 48.2033L29.9556 42.3763ZM22.5895 45.5965C22.7152 46.1199 22.9224 46.6202 23.2036 47.0791L30.2311 42.7734C30.4017 43.0518 30.5274 43.3553 30.6036 43.6728L22.5895 45.5965ZM36.9289 52.8968C36.8223 53.0034 36.7597 53.0658 36.7092 53.1148C36.6586 53.1638 36.6625 53.1578 36.6975 53.1281C36.7637 53.0718 37.1314 52.7633 37.7397 52.5657L40.2863 60.4041C41.1249 60.1316 41.7077 59.6858 42.0313 59.4111C42.3181 59.1676 42.6049 58.8763 42.7566 58.7246L36.9289 52.8968ZM34.6455 58.7241C34.7972 58.8758 35.084 59.1672 35.3708 59.4107C35.6943 59.6854 36.277 60.1313 37.1157 60.4039L39.6631 52.5658C40.2714 52.7635 40.639 53.0721 40.7053 53.1283C40.7403 53.158 40.7442 53.164 40.6936 53.115C40.6431 53.066 40.5805 53.0036 40.4739 52.897L34.6455 58.7241ZM37.7397 52.5657C38.3648 52.3626 39.0381 52.3627 39.6631 52.5658L37.1157 60.4039C38.146 60.7388 39.2559 60.7388 40.2863 60.4041L37.7397 52.5657ZM46.7759 44.088C46.7759 44.155 46.7759 44.1888 46.7756 44.2145C46.7754 44.2393 46.7752 44.2253 46.7767 44.1919C46.7803 44.1147 46.7941 43.8948 46.8619 43.6123L54.8759 45.5363C55.0441 44.8356 55.0176 44.1386 55.0176 44.088H46.7759ZM53.3378 48.1433C53.3736 48.1075 53.8852 47.6334 54.2617 47.019L47.2345 42.7128C47.3863 42.4651 47.532 42.2998 47.5841 42.2427C47.6067 42.218 47.6167 42.2083 47.5993 42.226C47.5813 42.2443 47.5575 42.2682 47.5101 42.3156L53.3378 48.1433ZM46.8619 43.6123C46.9381 43.2948 47.0639 42.9912 47.2345 42.7128L54.2617 47.019C54.5429 46.5601 54.7502 46.0597 54.8759 45.5363L46.8619 43.6123ZM51.0664 40.1648C51.2877 39.9436 51.4492 39.7823 51.5864 39.6495C51.7263 39.5141 51.7887 39.4595 51.8056 39.4454C51.8316 39.4237 51.7133 39.5284 51.4864 39.6521C51.2451 39.7837 50.7766 39.9943 50.1318 40.045L49.4858 31.8287C47.9187 31.9519 46.8569 32.8402 46.5202 33.1216C46.0843 33.4859 45.6095 33.9663 45.2393 34.3365L51.0664 40.1648ZM55.0176 38.3884C55.0176 37.8645 55.0216 37.1889 54.9711 36.6231C54.9321 36.1864 54.8097 34.8068 53.7886 33.6112L47.5215 38.9636C47.1012 38.4715 46.9189 37.991 46.8414 37.7276C46.7685 37.4797 46.759 37.3222 46.762 37.356C46.764 37.3782 46.7695 37.461 46.7727 37.6558C46.7758 37.8469 46.7759 38.0754 46.7759 38.3884H55.0176ZM50.1318 40.045C49.1383 40.1231 48.1686 39.7214 47.5215 38.9636L53.7886 33.6112C52.7226 32.3629 51.1223 31.7 49.4858 31.8287L50.1318 40.045ZM57.9567 22.8012C57.9654 22.8067 58.113 22.9007 58.2561 22.9799L62.2486 15.7698C62.2847 15.7898 62.3132 15.8064 62.3314 15.8172C62.3491 15.8276 62.3609 15.8349 62.3632 15.8363C62.3656 15.8377 62.3643 15.837 62.356 15.8318C62.3478 15.8267 62.3377 15.8204 62.3219 15.8105L57.9567 22.8012ZM61.9586 15.6278C61.9445 15.6221 61.9372 15.6191 61.9315 15.6168C61.9261 15.6146 61.9286 15.6156 61.935 15.6183C61.9491 15.6241 61.9947 15.6432 62.0546 15.6711L58.5758 23.1426C58.7211 23.2102 58.8658 23.2671 58.8764 23.2714L61.9586 15.6278ZM58.2561 22.9799C58.363 23.0391 58.465 23.091 58.5758 23.1426L62.0546 15.6711C62.0746 15.6804 62.1094 15.6969 62.1525 15.7188C62.1956 15.7407 62.2294 15.7591 62.2486 15.7698L58.2561 22.9799ZM34.6604 33.0447C34.7966 33.1904 35.0854 33.5055 35.3844 33.7716C35.7425 34.0903 36.3306 34.5428 37.1741 34.824L39.7807 27.0054C40.3811 27.2056 40.7538 27.5172 40.8635 27.6149C40.9106 27.6568 40.9244 27.6735 40.8816 27.6293C40.8385 27.5847 40.7837 27.5262 40.6826 27.418L34.6604 33.0447ZM36.8735 27.4414C36.7725 27.5538 36.7164 27.6161 36.6718 27.6641C36.6274 27.7118 36.6382 27.6977 36.6814 27.6576C36.7782 27.5676 37.1465 27.2415 37.754 27.0255L40.5149 34.791C41.3639 34.4891 41.9468 34.0154 42.2919 33.6947C42.5843 33.423 42.8676 33.1017 43.0058 32.9477L36.8735 27.4414ZM37.1741 34.824C38.2534 35.1838 39.4429 35.1721 40.5149 34.791L37.754 27.0255C38.1142 26.8974 38.4577 26.8471 38.7657 26.8441C39.0736 26.841 39.4181 26.8845 39.7807 27.0054L37.1741 34.824ZM28.1492 19.9871C28.1862 20.0378 28.3243 20.2294 28.4181 20.346L34.842 15.1828C34.857 15.2015 34.8691 15.2169 34.877 15.2271C34.8853 15.2377 34.8919 15.2463 34.8965 15.2523C34.9052 15.2637 34.9111 15.2715 34.9125 15.2734C34.9151 15.2768 34.9131 15.2742 34.9031 15.2606C34.8939 15.2482 34.8816 15.2314 34.8649 15.2085C34.8483 15.1857 34.8289 15.1592 34.8057 15.1275L28.1492 19.9871ZM34.6597 14.9747C34.6492 14.9642 34.6431 14.9581 34.6382 14.9532C34.6333 14.9483 34.6337 14.9487 34.6368 14.9518C34.6417 14.9567 34.674 14.9896 34.7168 15.0366L28.6244 20.5871C28.7209 20.6929 28.8249 20.7954 28.8313 20.8018L34.6597 14.9747ZM28.4181 20.346C28.4194 20.3477 28.4203 20.3489 28.4229 20.352C28.4244 20.3539 28.4298 20.3606 28.4356 20.3678C28.4477 20.3828 28.4787 20.4211 28.5191 20.4684C28.5595 20.5156 28.5926 20.5521 28.6056 20.5664C28.6118 20.5733 28.6176 20.5796 28.6192 20.5814C28.6219 20.5844 28.623 20.5855 28.6244 20.5871L34.7168 15.0366C34.7123 15.0316 34.7083 15.0272 34.7066 15.0254C34.7039 15.0224 34.706 15.0248 34.7091 15.0281C34.7157 15.0354 34.7443 15.0669 34.7803 15.109C34.8163 15.1511 34.843 15.1842 34.8492 15.1918C34.8521 15.1954 34.854 15.1978 34.8515 15.1947C34.85 15.1928 34.8462 15.1881 34.842 15.1828L28.4181 20.346ZM62.1102 27.7225C64.2315 24.7292 62.0675 20.6543 58.4548 20.6543V28.896C55.4341 28.896 53.6069 25.4674 55.3859 22.9571L62.1102 27.7225ZM52.4604 10.9502C53.389 10.0216 54.7189 9.60004 56.0234 9.8371L54.5497 17.946C55.9183 18.1947 57.3136 17.7526 58.2883 16.7778L52.4604 10.9502ZM18.8707 23.4938C17.5348 24.136 16.1355 23.8215 15.2341 23.153C14.3824 22.5213 13.8297 21.4965 13.8479 20.348L22.0886 20.4788C22.1143 18.8587 21.3326 17.415 20.1438 16.5333C18.9053 15.6147 17.0609 15.2193 15.3 16.0658L18.8707 23.4938ZM34.6428 16.1702C34.8191 16.359 35.1125 16.6775 35.3995 16.9406C35.6974 17.2136 36.3113 17.7387 37.2252 18.0514L39.893 10.2534C40.2365 10.3709 40.4998 10.5206 40.6777 10.6402C40.8445 10.7522 40.9467 10.8451 40.9683 10.8649C40.9905 10.8853 40.9821 10.8791 40.92 10.8146C40.8585 10.7507 40.7841 10.6711 40.667 10.5457L34.6428 16.1702ZM37.1181 10.5373C37.0006 10.6616 36.926 10.7405 36.8645 10.8037C36.8023 10.8676 36.7942 10.8733 36.8169 10.8527C36.839 10.8328 36.942 10.7403 37.1097 10.6291C37.2886 10.5105 37.5524 10.3628 37.8956 10.2476L40.5178 18.061C41.4323 17.7541 42.0487 17.2338 42.349 16.9619C42.6376 16.7005 42.9326 16.3839 43.1094 16.1968L37.1181 10.5373ZM37.2252 18.0514C38.2995 18.4189 39.4414 18.4222 40.5178 18.061L37.8956 10.2476C38.1811 10.1518 38.5199 10.0867 38.8948 10.0878C39.2697 10.0889 39.6081 10.156 39.893 10.2534L37.2252 18.0514ZM34.6519 48.4134C34.8027 48.5642 35.0885 48.8545 35.3745 49.0974C35.6977 49.3717 36.278 49.8156 37.1129 50.0882L39.6704 42.2534C40.2757 42.4509 40.6419 42.758 40.7089 42.8149C40.7441 42.8448 40.7482 42.851 40.698 42.8023C40.6479 42.7537 40.5857 42.6917 40.4797 42.5857L34.6519 48.4134ZM36.9399 42.5795C36.8337 42.6847 36.7716 42.7461 36.7215 42.7941C36.6715 42.8422 36.676 42.8357 36.7117 42.8056C36.7805 42.7478 37.1478 42.4433 37.7525 42.249L40.2743 50.0954C41.1089 49.8271 41.6907 49.3871 42.016 49.1136C42.3032 48.872 42.5902 48.5831 42.741 48.4338L36.9399 42.5795ZM37.1129 50.0882C38.1395 50.4233 39.2461 50.4258 40.2743 50.0954L37.7525 42.249C38.3765 42.0485 39.0474 42.05 39.6704 42.2534L37.1129 50.0882ZM37.1043 35.7842C37.0003 35.8814 36.9401 35.9375 36.8918 35.9812C36.8436 36.0249 36.8494 36.0177 36.8859 35.9886C36.9579 35.9313 37.3166 35.651 37.8957 35.4721L40.3284 43.3466C41.1291 43.0992 41.6959 42.6938 42.018 42.4375C42.3007 42.2124 42.5843 41.9433 42.731 41.8063L37.1043 35.7842ZM34.887 41.7939C35.0332 41.9314 35.3159 42.2014 35.598 42.4273C35.9193 42.6847 36.4847 43.0919 37.2846 43.3418L39.7422 35.475C40.3208 35.6558 40.6785 35.9372 40.7504 35.9947C40.7867 36.0239 40.7926 36.0311 40.7445 35.9873C40.6964 35.9434 40.6364 35.8871 40.5326 35.7896L34.887 41.7939ZM37.8957 35.4721C38.4973 35.2863 39.1412 35.2873 39.7422 35.475L37.2846 43.3418C38.2754 43.6513 39.3367 43.653 40.3284 43.3466L37.8957 35.4721ZM36.5704 20.8131C36.5328 20.8488 36.5122 20.8685 36.4959 20.8837C36.48 20.8987 36.4841 20.8945 36.499 20.8812C36.5292 20.8542 36.6532 20.7446 36.8393 20.6202L41.4179 27.4731C41.8559 27.1804 42.2255 26.8086 42.2503 26.785L36.5704 20.8131ZM35.7087 27.4715C35.7379 27.4894 36.1766 27.7764 36.6658 27.9718L39.7221 20.3177C39.93 20.4007 40.074 20.4823 40.1091 20.5024C40.1265 20.5123 40.1314 20.5155 40.1127 20.5042C40.0937 20.4926 40.0694 20.4777 40.0252 20.4506L35.7087 27.4715ZM36.8393 20.6202C37.6917 20.0507 38.77 19.9375 39.7221 20.3177L36.6658 27.9718C38.2353 28.5984 40.0127 28.4119 41.4179 27.4731L36.8393 20.6202ZM40.0252 20.4506C40.0181 20.4462 40.0146 20.4441 40.0121 20.4425C40.0097 20.441 40.0115 20.4421 40.0154 20.4445C40.0246 20.4503 40.0482 20.4651 40.0787 20.4851L35.5513 27.3719C35.6281 27.4224 35.7026 27.4677 35.7087 27.4715L40.0252 20.4506ZM34.7274 26.6983C34.7325 26.7034 34.7939 26.7652 34.8611 26.8281L40.4974 20.815C40.524 20.84 40.5439 20.8594 40.5516 20.867C40.5549 20.8703 40.5564 20.8718 40.5544 20.8698C40.5523 20.8676 40.5494 20.8648 40.5435 20.8589L34.7274 26.6983ZM40.0787 20.4851C40.2274 20.5829 40.3675 20.6933 40.4974 20.815L34.8611 26.8281C35.0752 27.0288 35.3061 27.2107 35.5513 27.3719L40.0787 20.4851ZM22.6913 30.3137C22.7003 30.3232 22.7252 30.3496 22.7592 30.3844L28.6522 24.6226C28.6553 24.6258 28.6595 24.6302 28.6646 24.6354C28.6698 24.6408 28.6747 24.6459 28.6793 24.6507C28.6836 24.6552 28.6868 24.6586 28.688 24.6599C28.6888 24.6608 28.6893 24.6613 28.6872 24.659L22.6913 30.3137ZM28.5686 24.5402C28.5655 24.5373 28.5645 24.5364 28.5639 24.5358C28.5634 24.5354 28.5651 24.537 28.568 24.5397C28.571 24.5426 28.5757 24.5471 28.5815 24.5526C28.5874 24.5582 28.5933 24.564 28.5993 24.5698L22.8464 30.4714C22.8845 30.5086 22.9184 30.5403 22.9229 30.5446L28.5686 24.5402ZM22.7592 30.3844C22.7871 30.413 22.8177 30.4435 22.8464 30.4714L28.5993 24.5698C28.6118 24.582 28.621 24.5911 28.6259 24.596C28.6308 24.601 28.6399 24.6101 28.6522 24.6226L22.7592 30.3844ZM30.6895 38.3995C30.6895 38.0839 30.6896 37.8529 30.6928 37.6595C30.696 37.4624 30.7015 37.3771 30.7037 37.3527C30.7069 37.3162 30.6978 37.4718 30.6258 37.7181C30.5494 37.9791 30.3677 38.463 29.9439 38.9592L23.6769 33.6066C22.6522 34.8064 22.5324 36.194 22.4942 36.6252C22.4439 37.192 22.4479 37.8698 22.4479 38.3995H30.6895ZM32.2382 34.3442C31.8637 33.9697 31.3871 33.4876 30.9508 33.1223C30.6189 32.8444 29.553 31.948 27.9801 31.8242L27.3334 40.0405C26.6829 39.9893 26.2123 39.7756 25.9737 39.645C25.7486 39.5218 25.6322 39.4182 25.6602 39.4417C25.6791 39.4575 25.7433 39.5139 25.8849 39.651C26.0239 39.7855 26.1873 39.9488 26.4105 40.172L32.2382 34.3442ZM29.9439 38.9592C29.297 39.7166 28.3265 40.1186 27.3334 40.0405L27.9801 31.8242C26.3431 31.6954 24.7433 32.358 23.6769 33.6066L29.9439 38.9592ZM43.0986 14.6478C43.0917 14.6569 43.0891 14.6602 43.0874 14.6624C43.086 14.6642 43.0893 14.66 43.095 14.6526C43.1013 14.6447 43.1114 14.6319 43.1244 14.6159C43.1377 14.5994 43.1519 14.5822 43.1666 14.5648L49.4613 19.8848C49.5509 19.7788 49.6256 19.6801 49.6344 19.6687L43.0986 14.6478ZM49.0471 20.3206C49.0559 20.3122 49.1508 20.2233 49.248 20.1218L43.296 14.4211C43.3331 14.3823 43.3629 14.3531 43.3768 14.3396C43.3826 14.3341 43.3855 14.3313 43.3829 14.3338C43.3801 14.3365 43.3761 14.3402 43.3672 14.3487L49.0471 20.3206ZM43.1666 14.5648C43.1909 14.5362 43.2122 14.512 43.2302 14.4919C43.2482 14.4719 43.2701 14.4482 43.296 14.4211L49.248 20.1218C49.3208 20.0458 49.3934 19.9652 49.4613 19.8848L43.1666 14.5648ZM51.9861 16.0692C50.8032 14.3395 51.2065 12.2043 52.4604 10.9502L58.2883 16.7778C59.6073 15.4588 60.0239 13.2224 58.7891 11.4169L51.9861 16.0692ZM16.8449 36.9528C18.1808 36.3107 19.58 36.6251 20.4814 37.2937C21.3331 37.9253 21.8859 38.9501 21.8677 40.0987L13.627 39.9679C13.6013 41.588 14.383 43.0317 15.5717 43.9133C16.8102 44.8319 18.6546 45.2274 20.4155 44.3809L16.8449 36.9528ZM56.372 40.0973C56.3545 38.9468 56.9091 37.9231 57.7597 37.2929C58.6601 36.6257 60.062 36.3091 61.4016 36.9558L57.8185 44.3779C59.5821 45.2292 61.4287 44.8318 62.6661 43.915C63.8537 43.0351 64.6375 41.5928 64.6128 39.9715L56.372 40.0973Z" fill="white" mask="url(#path-1-outside-1_402_4340)"/>
<g clip-path="url(#clip1_402_4340)">
<path d="M41.9133 43.4902C42.0448 43.3596 44.8102 40.5945 47.2393 38.1657C48.3818 37.0235 48.953 36.4523 49.4477 36.4134C49.8764 36.3797 50.2968 36.5539 50.5761 36.8809C50.8984 37.2582 50.8984 38.0661 50.8984 39.6819V43.8652C50.8984 44.1942 50.8984 44.3587 50.8612 44.5135C50.8282 44.6508 50.7739 44.782 50.7001 44.9023C50.6169 45.0381 50.5006 45.1544 50.268 45.3871L40.2251 55.4299C39.6923 55.9628 39.4258 56.2292 39.1186 56.329C38.8484 56.4168 38.5573 56.4167 38.2871 56.3289C37.9799 56.229 37.7136 55.9625 37.1809 55.4295L33.6004 51.8471L27.2007 45.4474C26.9681 45.2148 26.8517 45.0984 26.7685 44.9627C26.6948 44.8423 26.6404 44.7111 26.6075 44.5739C26.5703 44.419 26.5703 44.2545 26.5703 43.9255V39.6986C26.5703 38.0687 26.5703 37.2537 26.8926 36.8764C27.1723 36.5489 27.5918 36.3752 28.021 36.409C28.5158 36.4479 29.092 37.0242 30.2445 38.1766L37.1935 45.1256C37.7216 45.6538 37.9857 45.9178 38.2916 46.0178C38.5602 46.1055 38.8511 46.1063 39.1201 46.0201C39.4266 45.9218 39.6912 45.66 40.2205 45.1365C41.4098 43.9602 43.3092 42.0776 45.9583 39.4411C46.3123 39.0885 41.5676 43.8346 41.9133 43.4902Z" fill="url(#paint0_linear_402_4340)"/>
<path d="M22.5868 29.3561C24.7545 33.4309 23.7159 38.2246 18.6341 40.6667C18.2091 40.871 17.7438 40.5046 17.7512 40.0332C17.7664 39.0784 17.6115 38.1257 17.2909 37.2203C16.3004 34.3186 14.5127 33.6779 13.1366 31.0903C10.9702 27.0155 12.0074 22.2218 17.0893 19.7796C17.5142 19.5753 17.9796 19.9417 17.9721 20.4132C17.957 21.368 18.1119 22.3207 18.4324 23.2261C19.423 26.1278 21.2107 26.7685 22.5868 29.3561Z" fill="url(#paint1_linear_402_4340)"/>
<path d="M65.1159 31.0928C63.7384 33.6804 61.9507 34.3198 60.9574 37.2201C60.6361 38.1258 60.4806 39.0789 60.4952 40.0342C60.5024 40.5049 60.0368 40.8713 59.6128 40.6666C54.5324 38.2203 53.4979 33.4252 55.6684 29.3532C56.6331 27.5418 57.7973 26.685 58.7508 25.3395C58.922 25.098 58.7536 24.7749 58.4576 24.7749C58.072 24.7748 57.6867 24.7977 57.3038 24.8435C56.7293 24.9188 56.1618 25.0399 55.6066 25.2057C54.9304 25.3953 54.2835 25.6774 53.6845 26.0439C53.0328 26.4432 51.9105 27.3501 50.688 28.7344L46.9411 32.4813L40.3368 39.0868C39.8041 39.6196 39.5377 39.886 39.2306 39.9858C38.9604 40.0736 38.6693 40.0736 38.3991 39.9858C38.092 39.886 37.8256 39.6197 37.2928 39.0869L33.6672 35.4613L25.7342 27.5296C25.7286 27.5241 25.7259 27.5213 25.722 27.5174C25.7193 27.5146 25.7143 27.5095 25.7117 27.5068C25.7078 27.5028 25.7061 27.5009 25.7026 27.4973C25.404 27.1818 20.8281 22.2901 20.8281 18.7079C20.8275 18.3693 20.8449 18.0308 20.8803 17.694C21.0348 16.2894 21.5109 14.9392 22.2715 13.7482C22.6652 13.1233 23.1348 12.5496 23.6695 12.0401C24.0513 11.6726 24.4635 11.338 24.9016 11.0399C25.7864 10.442 26.7682 10.002 27.8033 9.73927C29.0476 9.4256 30.3434 9.37364 31.6087 9.58666C32.8012 9.78741 33.9423 10.2194 34.9678 10.8576C35.0253 10.8934 35.0541 10.9113 35.0916 10.9383C35.1214 10.9598 35.1603 10.9907 35.188 11.0149C35.2229 11.0453 35.2522 11.0746 35.311 11.1334L37.3599 13.1831C37.8927 13.7161 38.1591 13.9826 38.4663 14.0824C38.7365 14.1703 39.0277 14.1703 39.2979 14.0824C39.6051 13.9826 39.8715 13.7161 40.4043 13.1831L42.3587 11.2279C42.4092 11.1774 42.4344 11.1522 42.4642 11.1257C42.4878 11.1048 42.521 11.0775 42.5462 11.0585C42.5779 11.0345 42.602 11.0184 42.6502 10.9862C43.621 10.3385 44.7082 9.88378 45.8524 9.64771C47.0587 9.39884 48.303 9.39819 49.5095 9.64581C50.716 9.89343 51.8595 10.3841 52.8702 11.088C53.881 11.7919 52.7196 11.7328 53.3703 12.7785C53.3724 12.7817 53.3745 12.7848 53.3767 12.7879C53.3998 12.8221 53.3938 12.8675 53.3646 12.8967C53.3389 12.9224 53.2999 12.93 53.2662 12.9166C52.9576 12.7935 53.2561 12.9265 53.2262 12.9226C52.6698 12.8183 53.1081 12.6779 52.542 12.6781C52.4322 12.6781 53.3373 13.7304 53.2262 13.7345C51.2625 13.7993 49.3225 14.3072 47.7837 15.529C47.2107 15.9765 46.7438 16.6792 46.2963 17.2523L39.6648 23.8837C39.6563 23.8923 39.652 23.8966 39.6484 23.9002C39.1245 24.4161 38.2833 24.4158 37.7598 23.8995C37.7562 23.8959 37.7519 23.8916 37.7434 23.8831L37.4017 23.5428L33.5451 19.6862L31.7985 17.9384C31.7731 17.9129 31.7604 17.9002 31.7441 17.8827C31.7119 17.8481 31.7325 17.8713 31.7019 17.8352C31.6865 17.817 31.6034 17.7115 31.4373 17.5004C31.2692 17.2868 31.0578 17.1096 30.816 16.9812C30.4898 16.8079 30.1213 16.7302 29.7529 16.757C29.4968 16.776 29.2469 16.8453 29.0177 16.961C28.7884 17.0767 28.5841 17.2365 28.4167 17.4312C28.2492 17.626 28.1218 17.8518 28.0418 18.0958C27.9617 18.3399 27.9306 18.5973 27.9501 18.8534C27.9689 19.1458 28.0603 19.4944 28.2094 19.7467L28.0379 19.5147C28.5604 20.3091 34.4281 26.0404 37.3076 28.8353C37.8366 29.3487 38.1011 29.6055 38.4063 29.7011C38.6742 29.7851 38.9633 29.7829 39.23 29.695C39.5337 29.5948 39.7956 29.3328 40.3195 28.8089L48.8112 20.3173C50.3434 18.9653 52.2669 18.1373 54.3021 17.9538C56.3372 17.7702 58.3779 18.2406 60.1273 19.2965C60.1855 19.3321 60.2147 19.3499 60.2306 19.359C60.281 19.388 60.3088 19.402 60.3622 19.4253C60.379 19.4326 60.3981 19.4404 60.4364 19.4558C60.683 19.5556 60.9295 19.6624 61.1714 19.7795C66.2519 22.2257 67.2863 27.0208 65.1159 31.0928Z" fill="url(#paint2_linear_402_4340)"/>
<path d="M65.115 31.093C63.7375 33.6806 61.9498 34.3199 60.9565 37.2203C60.6353 38.126 60.4797 39.0791 60.4943 40.0344C60.5015 40.5051 60.0359 40.8714 59.6119 40.6667C54.5315 38.2205 53.497 33.4254 55.6675 29.3533C56.7555 27.3105 58.0973 26.4818 59.1043 24.797C59.3992 24.3 59.641 23.7735 59.826 23.2261C60.2565 22.0121 60.3894 20.7128 60.2139 19.4375C60.2092 19.4034 60.2415 19.3783 60.2732 19.3914C60.5737 19.5094 60.8755 19.6369 61.1705 19.7796C66.251 22.2259 67.2855 27.021 65.115 31.093Z" fill="url(#paint3_linear_402_4340)"/>
<path d="M48.0185 15.6055C49.1257 14.6317 51.3206 13.6776 53.2255 13.7345L53.2954 13.7366C54.2287 13.7662 54.6954 13.7809 54.841 13.6635C54.9719 13.558 55.0372 13.4112 55.0281 13.2433C55.0179 13.0565 54.7322 12.7588 54.1609 12.1634L54.1609 12.1634C53.7884 11.7751 53.3524 11.3903 52.8695 11.088C51.2956 10.1027 50.7153 9.89343 49.5088 9.6458C48.3023 9.39818 47.058 9.39883 45.8517 9.64771C44.6454 9.89659 43.5025 10.3885 42.4925 11.0934C42.036 11.412 41.2546 12.1804 40.5352 12.927L40.5352 12.927C39.9305 13.5546 39.6282 13.8683 39.3132 13.9728C39.0224 14.0692 38.7507 14.0686 38.4604 13.9708C38.1459 13.8648 37.8439 13.5484 37.2399 12.9156L37.2399 12.9156C36.4857 12.1255 35.6503 11.3025 35.1537 10.9768C34.0808 10.273 32.8734 9.79967 31.608 9.58666C30.6375 9.42327 29.6491 9.41577 28.6797 9.56268C28.4178 9.60238 28.2868 9.62222 28.1065 9.70829C27.9787 9.76931 27.7803 9.9176 27.6856 10.0229C27.552 10.1715 27.4961 10.2911 27.3843 10.5301C27.2215 10.8785 27.0807 11.2371 26.963 11.6038C26.8345 11.9967 26.7346 12.3984 26.6639 12.8057C26.2456 15.1353 26.8216 17.6531 28.1217 19.6311C28.1309 19.6427 28.1524 19.6295 28.1466 19.6158C28.057 19.4045 27.9651 19.0979 27.9494 18.8534C27.9299 18.5973 27.961 18.3399 28.0411 18.0958C28.1211 17.8518 28.2485 17.626 28.416 17.4312C28.5834 17.2365 28.7877 17.0767 29.017 16.961C29.2462 16.8453 29.4961 16.776 29.7522 16.757C30.1206 16.7302 30.4891 16.8079 30.8153 16.9812C31.0192 17.0895 31.3776 17.5305 31.5962 17.7366L33.5444 19.6862L37.401 23.5428L37.7427 23.8831L37.7591 23.8995C38.2826 24.4158 39.1238 24.4161 39.6477 23.9002L39.6641 23.8838L46.2956 17.2523C46.8893 16.6166 47.4647 16.0925 48.0185 15.6055Z" fill="url(#paint4_linear_402_4340)"/>
</g>
</g>
<path d="M171.524 23.7611L171.525 23.7451C171.651 21.2091 170.935 19.0033 169.505 17.3718C169.047 16.848 168.518 16.3895 167.934 16.0087C167.585 15.7804 167.176 15.6589 166.758 15.6589H144.174C143.751 15.6589 143.338 15.7833 142.985 16.0168C142.567 16.2938 142.177 16.6101 141.819 16.9617L141.819 16.9619C140.139 18.6142 139.276 20.9814 139.413 23.7405C139.428 24.0765 139.459 24.4027 139.499 24.7178C139.598 25.4826 140.098 26.1362 140.811 26.4312C141.523 26.7261 142.339 26.6174 142.949 26.146C143.215 25.9409 143.508 25.7723 143.821 25.645H149.485V52.7397C149.485 53.9283 150.449 54.8919 151.638 54.8919H158.657C159.846 54.8919 160.809 53.9283 160.809 52.7397V25.6457H167.116C167.427 25.7718 167.718 25.9396 167.982 26.144C168.592 26.617 169.409 26.7271 170.122 26.4326C170.836 26.138 171.337 25.4839 171.435 24.7184C171.476 24.4017 171.506 24.0826 171.524 23.7611Z" fill="black" stroke="white" stroke-width="4.30435" stroke-linejoin="round"/>
<path d="M128.377 25.8957C128.153 26.5713 128.041 27.398 128.042 28.3757C128.042 32.4449 129.143 34.7013 131.344 35.1449L128.377 25.8957ZM128.377 25.8957C128.796 25.9137 129.213 25.9618 129.626 26.0399L130.026 23.9252L129.145 21.9613C128.205 22.3826 127.514 23.0155 127.016 23.7798C126.764 23.8026 126.514 23.8341 126.264 23.8744C125.214 24.0534 124.197 24.3721 123.24 24.819L128.377 25.8957ZM133.496 35.1449C133.496 34.1202 132.773 33.2376 131.769 33.0352C131.41 32.9628 131.098 32.7835 130.802 32.1765C130.457 31.4695 130.194 30.2632 130.194 28.3757L130.194 28.3738C130.193 26.2577 130.78 25.9454 130.906 25.8891C131.764 25.5045 132.273 24.6074 132.163 23.6735C132.053 22.7397 131.349 21.9853 130.426 21.8105C128.939 21.5294 127.415 21.5088 125.921 21.7496L125.902 21.7528C124.105 22.0592 122.389 22.7122 120.85 23.6723C120.625 23.7219 120.405 23.8083 120.2 23.932C120.116 23.9825 120.035 24.0373 119.957 24.0962C119.532 24.4156 119.24 24.881 119.138 25.4026C118.948 26.3697 118.856 27.3531 118.861 28.3383C118.865 32.1107 119.781 35.3522 121.746 37.8681C120.374 38.9524 119.326 40.4181 118.673 42.0972C118.151 43.4347 118.007 44.6106 117.9 45.4852C117.884 45.6145 117.869 45.7373 117.854 45.8529C117.738 46.7302 117.599 47.397 117.1 48.2364L117.088 48.2571C116.662 48.991 116.059 49.6146 115.328 50.0711C114.667 50.4845 114.281 51.2235 114.319 52.0027C114.358 52.7818 114.815 53.4791 115.514 53.8252C115.84 53.9864 116.187 54.1464 116.552 54.2952L116.559 54.298C120.309 55.81 123.906 55.3564 126.57 53.3284L126.587 53.3151C128.032 52.1919 129.139 50.6952 129.782 48.9868C130.3 47.6534 130.443 46.4809 130.55 45.6077C130.565 45.479 130.58 45.3567 130.596 45.2414C130.712 44.3624 130.85 43.6949 131.348 42.8559L131.348 42.856L131.354 42.8448C131.693 42.2667 132.14 41.7545 132.673 41.3359C133.192 40.9279 133.496 40.3038 133.496 39.6432V35.1449Z" fill="black" stroke="white" stroke-width="4.30435" stroke-linejoin="round"/>
<path d="M131.058 25.8373C132.038 25.5823 132.707 24.6789 132.666 23.6673C132.625 22.6557 131.885 21.8095 130.887 21.6346C129.234 21.3447 127.541 21.3434 125.887 21.6307C123.776 21.9942 121.777 22.835 120.048 24.0895C119.64 24.3852 119.349 24.8144 119.225 25.3026C119.225 25.3041 119.224 25.306 119.224 25.3084C119.217 25.3346 119.196 25.4147 119.177 25.5122C119.157 25.6077 119.141 25.7042 119.13 25.8013C119.031 26.6568 119.451 27.4891 120.198 27.917C120.946 28.3449 121.876 28.2861 122.564 27.7675C123.239 27.2582 123.982 26.8407 124.772 26.527L124.772 26.527L124.776 26.5254C125.371 26.2879 125.99 26.1124 126.623 26.002C127.615 25.8387 128.628 25.8532 129.614 26.0449C130.063 26.132 130.528 26.0741 130.941 25.8795C130.978 25.862 131.017 25.8478 131.058 25.8373Z" fill="black" stroke="white" stroke-width="4.30435" stroke-linejoin="round"/>
<path d="M189.284 18.6669L189.299 18.6817C191.645 20.9707 192.693 24.0875 192.693 27.7265V52.7394C192.693 53.928 191.73 54.8916 190.541 54.8916H183.522C182.333 54.8916 181.37 53.928 181.37 52.7394V43.2856C181.182 42.9662 181.074 42.5941 181.074 42.1968V36.39C181.074 35.9927 181.182 35.6206 181.37 35.3012V26.6532V26.6423H181.37C181.37 26.5027 181.364 26.3631 181.349 26.2241C181.348 26.2106 181.347 26.1971 181.346 26.1836C181.321 25.8855 181.276 25.7079 181.243 25.6167C181.237 25.6003 181.231 25.5879 181.228 25.5792C181.109 25.4526 181.007 25.3121 180.922 25.1608C180.902 25.1295 180.883 25.0977 180.865 25.0655C180.791 24.9343 180.711 24.8063 180.624 24.6819C179.598 23.2424 177.619 22.3442 175.302 22.5583C174.431 22.6387 173.599 22.185 173.195 21.4101C172.791 20.6352 172.896 19.693 173.46 19.0257C173.461 19.0251 173.461 19.0241 173.462 19.0229C173.476 19.0063 173.534 18.9382 173.61 18.8601C173.651 18.8173 173.689 18.7802 173.707 18.7624C173.708 18.7609 173.71 18.7596 173.711 18.7584C173.724 18.7451 173.731 18.7389 173.733 18.7369C173.75 18.7182 173.769 18.6999 173.787 18.6818C175.872 16.6479 178.497 15.6591 181.5 15.6589L189.284 18.6669ZM189.284 18.6669C187.167 16.6427 184.521 15.6578 181.501 15.6589L189.284 18.6669Z" fill="black" stroke="white" stroke-width="4.30435" stroke-linejoin="round"/>
<path d="M185.377 36.5043C185.377 35.3157 184.414 34.3522 183.225 34.3522H181.669L181.669 26.6641C181.669 26.6638 181.669 26.6634 181.669 26.6631C181.669 26.3693 181.687 26.1357 181.713 25.9541C182.445 26.3823 183.383 26.3474 184.089 25.8186C184.944 25.1785 185.2 24.0087 184.691 23.07C184.525 22.7635 184.341 22.4668 184.141 22.1814L184.14 22.1805C182.085 19.2579 178.493 17.8845 174.902 18.2201C174.386 18.2683 173.904 18.5013 173.546 18.8762C171.343 21.1823 170.348 24.2252 170.348 27.7486V34.3803C169.326 34.5472 168.545 35.4346 168.545 36.5043V42.3715C168.545 43.1296 168.937 43.7961 169.529 44.1795C169.426 44.8683 169.396 45.477 169.372 45.9815C169.365 46.1073 169.36 46.2266 169.353 46.3391C169.303 47.1901 169.219 47.8352 168.819 48.6633L168.804 48.6939C168.478 49.3968 167.98 50.013 167.35 50.4858C166.741 50.9435 166.419 51.6893 166.504 52.4467C166.589 53.204 167.068 53.86 167.764 54.1712C168.112 54.3272 168.456 54.4563 168.763 54.5657C170.115 55.0555 171.556 55.2615 172.993 55.1711L173.017 55.1695C176.968 54.8769 179.782 52.1395 180.836 48.5938C181.198 47.3833 181.271 46.3657 181.315 45.5451C181.319 45.4751 181.323 45.4074 181.326 45.3417C181.342 45.0309 181.356 44.7663 181.377 44.5237H183.225C184.414 44.5237 185.377 43.5601 185.377 42.3715V36.5043Z" fill="black" stroke="white" stroke-width="4.30435" stroke-linejoin="round"/>
<path d="M139.919 16.2481C140.323 16.6517 140.55 17.1992 140.55 17.77V52.7373C140.55 53.9259 139.586 54.8895 138.398 54.8895H131.378C130.19 54.8895 129.226 53.9259 129.226 52.7373V43.6459L129.192 40.0962C129.191 39.9613 129.202 39.8278 129.225 39.6973C129.203 39.5738 129.192 39.4472 129.192 39.3187V35.8352C129.192 35.706 129.204 35.5782 129.226 35.453V25.9305C129.092 25.8768 128.964 25.8099 128.845 25.7313C128.103 25.6974 127.358 25.7443 126.624 25.8719L126.62 25.8725C125.155 26.1247 123.77 26.7078 122.576 27.5741C121.866 28.089 120.915 28.1215 120.171 27.6564C119.428 27.1913 119.041 26.3215 119.193 25.4578C119.227 25.2662 119.268 25.0858 119.297 24.9565L119.299 24.9445C119.833 22.5512 121.138 20.3983 123.012 18.8057L139.919 16.2481ZM139.919 16.2481C139.516 15.8445 138.968 15.6177 138.397 15.6178M139.919 16.2481L138.397 15.6178M138.397 15.6178L132.911 15.6188C132.911 15.6188 132.911 15.6188 132.911 15.6188M138.397 15.6178L132.911 15.6188M132.911 15.6188C128.983 15.6188 125.603 16.604 123.012 18.8056L132.911 15.6188Z" fill="black" stroke="white" stroke-width="4.30435" stroke-linejoin="round"/>
<path d="M133.139 41.4334C133.792 41.0167 134.171 40.2809 134.13 39.5071C134.09 38.7333 133.637 38.0409 132.944 37.6942C132.734 37.5896 132.469 37.4577 132.181 37.3363C131.517 37.0556 130.756 37.1265 130.154 37.5252C129.553 37.924 129.192 38.5974 129.192 39.3188V40.0756C129.192 40.9032 129.666 41.6574 130.412 42.0157C131.158 42.3739 132.043 42.2727 132.689 41.7553C132.833 41.6402 132.983 41.5328 133.139 41.4334Z" fill="black" stroke="white" stroke-width="4.30435" stroke-linejoin="round"/>
<path d="M93.0838 37.7196L93.0838 37.7182C93.0786 35.9829 93.073 34.2471 93.0668 32.5109C93.8381 31.7237 93.8919 30.4721 93.1756 29.6204C91.829 28.0191 90.2519 26.8603 88.6565 26.2454C87.1058 25.6476 85.2714 25.4793 83.7095 26.3437C83.695 26.3517 83.6806 26.3599 83.6664 26.3682C82.8815 26.8266 82.2382 27.4949 81.8129 28.3011C81.6496 28.6106 81.5643 28.9553 81.5643 29.3052V43.5593C81.5159 44.0715 81.5022 44.5423 81.494 44.9533C81.4922 45.0432 81.4906 45.1288 81.4891 45.2111C81.4829 45.5542 81.4778 45.8399 81.4593 46.1363C81.4178 46.8011 81.3124 47.4208 80.9713 48.1856C80.8821 48.3852 80.7823 48.5803 80.6725 48.77L80.6646 48.7837C80.3394 49.3552 79.9049 49.8619 79.3832 50.2752C78.8844 50.6705 78.5912 51.2613 78.5689 51.885C78.5244 52.1268 78.5209 52.378 78.5626 52.6281C78.6899 53.3927 79.2186 54.0298 79.9465 54.2959C80.1731 54.3788 80.4064 54.457 80.6514 54.529C80.7685 54.5648 80.881 54.5962 80.9693 54.6207C82.9459 55.2158 85.06 55.1968 87.0259 54.5659C87.0329 54.5636 87.04 54.5613 87.0471 54.5589C87.0561 54.5559 87.0651 54.5529 87.0741 54.5498C90.1072 53.4966 92.1107 50.9481 92.8272 47.9165L92.8275 47.9153C92.9871 47.2379 93.0808 46.5469 93.1071 45.8516C93.1083 45.8217 93.1088 45.7918 93.1087 45.7618C93.0983 43.08 93.09 40.3993 93.0838 37.7196Z" fill="black" stroke="white" stroke-width="4.30435" stroke-linejoin="round"/>
<path d="M112.359 15.6178C113.547 15.6178 114.511 16.5814 114.511 17.77V52.7373C114.511 53.9259 113.547 54.8895 112.359 54.8895H105.339C104.151 54.8895 103.187 53.9259 103.187 52.7373V46.3554L103.187 46.3312C103.224 43.0358 103.197 39.0977 103.159 35.8604L112.359 15.6178ZM112.359 15.6178H106.872C106.732 15.6178 106.594 15.6314 106.46 15.6577M112.359 15.6178L106.46 15.6577M103.145 34.7118C103.15 35.0824 103.155 35.466 103.159 35.8602L103.145 34.7118ZM103.145 34.7118C103.099 34.7587 103.053 34.8056 103.006 34.8526C103.006 34.8527 103.006 34.8528 103.006 34.8529C103.006 34.8532 103.006 34.8535 103.005 34.8537L99.3476 38.5873C98.5549 39.3965 97.2708 39.4527 96.4104 38.716C96.1529 38.4954 94.2645 36.6673 92.599 35.0496L92.5974 35.048C92.4077 34.8634 92.2191 34.6798 92.0338 34.4995C91.2451 33.7319 90.5172 33.0235 90.028 32.5463C89.9774 32.4969 89.9292 32.4451 89.8836 32.3909C88.9268 31.2531 87.9237 30.5752 87.1107 30.2618C86.3104 29.9533 85.9066 30.0619 85.8118 30.1024C85.729 30.1569 85.6648 30.2289 85.6223 30.3094C85.1607 31.1845 84.1619 31.6322 83.2015 31.3944C82.2411 31.1566 81.5666 30.2947 81.5666 29.3053V21.3761C81.5666 21.2113 81.5855 21.0471 81.623 20.8866C81.9761 19.375 82.7676 18.0019 83.8958 16.9335L83.9016 16.928L83.9016 16.928C84.2764 16.5757 84.6847 16.2606 85.1206 15.987C85.4634 15.7718 85.86 15.6577 86.2647 15.6577H90.3806C91.0098 15.6577 91.6076 15.9331 92.0164 16.4114C93.8137 18.5137 95.6089 20.617 97.402 22.7214L103.145 34.7118ZM106.46 15.6577H105.852C105.252 15.6577 104.679 15.9084 104.272 16.3493L98.6676 22.4147C98.6674 22.4149 98.6673 22.4151 98.6671 22.4152C98.667 22.4154 98.6668 22.4155 98.6667 22.4157C98.4022 22.7015 98.1379 22.9874 97.8737 23.2732C97.7165 23.0896 97.5595 22.906 97.4029 22.7224L106.46 15.6577Z" fill="black" stroke="white" stroke-width="4.30435" stroke-linejoin="round"/>
<path d="M133.139 41.4334C133.792 41.0167 134.171 40.2809 134.13 39.5071C134.09 38.7333 133.637 38.0409 132.944 37.6942C132.734 37.5896 132.469 37.4577 132.181 37.3363C131.517 37.0556 130.756 37.1265 130.154 37.5252C129.553 37.924 129.192 38.5974 129.192 39.3188V40.0756C129.192 40.9032 129.666 41.6574 130.412 42.0157C131.158 42.3739 132.043 42.2727 132.689 41.7553C132.833 41.6402 132.983 41.5328 133.139 41.4334Z" fill="black" stroke="white" stroke-width="4.30435" stroke-linejoin="round"/>
<path d="M169.376 23.6381C169.36 23.9095 169.335 24.1779 169.301 24.4433C168.758 24.0224 168.143 23.7007 167.486 23.4935H158.657V52.7397H151.638V23.4929H143.449C142.792 23.7014 142.178 24.0229 141.634 24.4427C141.6 24.1773 141.575 23.9089 141.563 23.6375C141.451 21.3985 142.147 19.6582 143.328 18.4961C143.587 18.2415 143.87 18.0121 144.174 17.811H166.758C167.178 18.085 167.558 18.4143 167.887 18.7899C168.897 19.9431 169.478 21.578 169.376 23.6381Z" fill="url(#paint5_linear_402_4340)"/>
<path d="M131.344 35.1449V39.6432C130.599 40.2277 129.973 40.9448 129.497 41.7572C128.073 44.1553 128.735 45.7454 127.772 48.2182C127.27 49.5565 126.403 50.7323 125.266 51.616C123.28 53.1283 120.501 53.5667 117.364 52.3019C117.056 52.1766 116.758 52.0394 116.469 51.8963C117.495 51.2551 118.347 50.3764 118.949 49.3368C120.376 46.9384 119.714 45.3517 120.678 42.8786C121.53 40.6892 123.171 39.0454 125.313 38.3803C122.45 36.2087 121.017 32.8589 121.014 28.331C121.008 27.4872 121.087 26.645 121.25 25.8165C121.27 25.8015 121.291 25.7875 121.312 25.7745C121.303 25.8104 121.293 25.8462 121.287 25.8821C121.279 25.9165 121.273 25.9514 121.268 25.9865C122.743 24.9064 124.454 24.1829 126.264 23.8744C127.511 23.6733 128.785 23.6905 130.026 23.9252C128.701 24.5188 128.04 26.0023 128.042 28.3757C128.042 32.4449 129.143 34.7013 131.344 35.1449Z" fill="url(#paint6_linear_402_4340)"/>
<path d="M130.516 23.7545C130.347 23.7985 130.182 23.858 130.025 23.9322C128.784 23.6912 127.51 23.6736 126.263 23.8801C125.481 24.0159 124.715 24.2326 123.978 24.5266C123.009 24.9112 122.097 25.4234 121.268 26.0493C121.272 26.0132 121.278 25.9774 121.286 25.942C121.292 25.9053 121.302 25.8685 121.311 25.8317C122.773 24.7712 124.465 24.0591 126.254 23.7514C127.664 23.5063 129.106 23.5073 130.516 23.7545Z" fill="url(#paint7_linear_402_4340)"/>
<path d="M187.796 20.2223C186.114 18.6138 184.016 17.81 181.501 17.811C179.008 17.811 176.938 18.6148 175.29 20.2223C175.247 20.2682 175.197 20.3142 175.153 20.3601C175.135 20.3785 175.119 20.3969 175.104 20.4153C178.054 20.1426 180.839 21.2701 182.381 23.4393C182.515 23.6292 182.633 23.8192 182.738 24.0061C182.76 24.0398 182.782 24.0765 182.801 24.1102C183.192 24.5085 183.419 25.1397 183.491 26.0067C183.512 26.2215 183.523 26.4373 183.522 26.6532V36.39H183.226V42.1968H183.522V52.7394H190.541V27.7265C190.541 24.5088 189.626 22.0074 187.796 20.2223Z" fill="url(#paint8_linear_402_4340)"/>
<path d="M183.225 36.5043V42.3715H179.517V42.7766C179.482 42.882 179.458 42.984 179.433 43.086C179.025 44.7313 179.349 46.0579 178.774 47.9789C177.934 50.8056 175.783 52.8066 172.858 53.0232C171.714 53.0952 170.567 52.9308 169.491 52.5406C169.205 52.4386 168.919 52.3304 168.643 52.2067C169.554 51.5221 170.28 50.6266 170.756 49.5994C171.91 47.2117 171.201 45.7304 171.922 43.2962C172.015 42.981 172.128 42.6721 172.261 42.3715H170.697V36.5043H172.5V27.7486C172.5 24.6404 173.368 22.1785 175.102 20.3629C178.052 20.0872 180.838 21.2257 182.38 23.4185C182.533 23.6362 182.673 23.8624 182.799 24.0959C182.63 23.9278 182.427 23.7964 182.203 23.7101C181.98 23.6238 181.74 23.5846 181.5 23.5949C180.179 23.5949 179.518 24.6177 179.517 26.6631V36.5043H183.225Z" fill="url(#paint9_linear_402_4340)"/>
<path d="M138.398 17.77V52.7373H131.378V43.6357L131.344 43.6694V40.0755C131.548 39.9121 131.761 39.7597 131.981 39.619C131.773 39.5148 131.562 39.4107 131.344 39.3187V35.8352C131.356 35.8368 131.367 35.8399 131.378 35.8444V23.7515C131.235 23.7607 131.086 23.776 130.931 23.7944C130.623 23.8312 130.334 23.8802 130.066 23.9384C130.053 23.9349 130.04 23.9328 130.026 23.9323C130.184 23.858 130.348 23.7986 130.517 23.7546C129.108 23.5074 127.665 23.5064 126.255 23.7515C124.467 24.0592 122.775 24.7713 121.312 25.8318C121.337 25.6909 121.368 25.553 121.4 25.4152C121.83 23.4818 122.885 21.7381 124.406 20.4456C126.504 18.6625 129.339 17.7709 132.911 17.7709L138.398 17.77Z" fill="url(#paint10_linear_402_4340)"/>
<path d="M131.981 39.6191C131.76 39.7599 131.548 39.9122 131.344 40.0756V39.3188C131.561 39.4108 131.773 39.5149 131.981 39.6191Z" fill="url(#paint11_linear_402_4340)"/>
<path d="M90.9316 37.7246C90.9379 40.4054 90.9461 43.0873 90.9565 45.7701C90.9354 46.3264 90.8605 46.8793 90.7327 47.4215C90.1607 49.8419 88.6095 51.7384 86.3681 52.5167C84.8104 53.0166 83.1339 53.0295 81.5684 52.5534C81.4689 52.5258 81.3694 52.4983 81.27 52.4676C81.071 52.4094 80.8783 52.3451 80.6855 52.2746C80.7726 52.2041 80.8596 52.1275 80.9467 52.0479C80.869 52.0203 80.7943 51.9927 80.7197 51.9621C81.4565 51.3783 82.0728 50.6607 82.5352 49.8481C82.6825 49.5936 82.8163 49.3318 82.9362 49.0637C83.8781 46.9528 83.5237 45.525 83.7165 43.6653V29.3052C83.9526 28.8575 84.3112 28.4839 84.7517 28.2267C86.3681 27.3321 89.225 28.2666 91.5285 31.0056C91.143 30.6318 90.9068 30.402 90.9068 30.402C90.9161 32.8439 90.9244 35.2847 90.9316 37.7246Z" fill="url(#paint12_linear_402_4340)"/>
<path d="M112.359 17.77V52.7373H105.339V46.3554C105.377 43.0342 105.349 39.0758 105.311 35.8343C105.268 32.2435 105.209 29.5289 105.209 29.5289C103.962 30.8035 102.716 32.076 101.469 33.3464L97.8102 37.0812C97.6206 36.9189 95.8145 35.1725 94.0985 33.5058C93.1006 32.5345 92.1339 31.5939 91.5308 31.0057C89.2273 28.2666 86.3704 27.3322 84.7539 28.2268C84.3135 28.484 83.9549 28.8576 83.7188 29.3053V21.3761C83.9753 20.2778 84.5511 19.277 85.3757 18.4961C85.6487 18.2395 85.9465 18.0096 86.2647 17.8099H90.3806C92.1774 19.9116 93.9721 22.0144 95.7648 24.1182C96.0549 24.4583 96.3461 24.7984 96.6383 25.1385C97.0269 25.5981 97.4186 26.0546 97.8102 26.5141C98.6216 25.6348 99.434 24.7555 100.247 23.8762L105.852 17.8099H106.881C106.878 17.7976 106.875 17.7823 106.872 17.77H112.359Z" fill="url(#paint13_linear_402_4340)"/>
<path d="M131.981 39.6191C131.76 39.7599 131.548 39.9122 131.344 40.0756V39.3188C131.561 39.4108 131.773 39.5149 131.981 39.6191Z" fill="url(#paint14_linear_402_4340)"/>
<defs>
<linearGradient id="paint0_linear_402_4340" x1="26.5703" y1="45.7273" x2="50.8984" y2="45.7273" gradientUnits="userSpaceOnUse">
<stop stop-color="#43B088"/>
<stop offset="0.00503" stop-color="#43B088"/>
<stop offset="1" stop-color="#52CC9F"/>
</linearGradient>
<linearGradient id="paint1_linear_402_4340" x1="17.862" y1="19.3625" x2="17.862" y2="41.0838" gradientUnits="userSpaceOnUse">
<stop stop-color="#3FAB83"/>
<stop offset="1" stop-color="#66D5AD"/>
</linearGradient>
<linearGradient id="paint2_linear_402_4340" x1="20.8282" y1="25.2708" x2="66.1876" y2="25.2708" gradientUnits="userSpaceOnUse">
<stop offset="0.00503" stop-color="#E75C5B"/>
<stop offset="0.1314" stop-color="#F13E44"/>
<stop offset="0.25965" stop-color="#F92732"/>
<stop offset="0.38038" stop-color="#FD1927"/>
<stop offset="0.48492" stop-color="#FF1423"/>
<stop offset="0.65075" stop-color="#FF1423"/>
<stop offset="0.81658" stop-color="#77BB9A"/>
<stop offset="0.9397" stop-color="#64D3AB"/>
</linearGradient>
<linearGradient id="paint3_linear_402_4340" x1="7751.89" y1="8056.94" x2="7751.89" y2="11495.9" gradientUnits="userSpaceOnUse">
<stop stop-color="#3FAB83"/>
<stop offset="1" stop-color="#66D5AD"/>
</linearGradient>
<linearGradient id="paint4_linear_402_4340" x1="26.5182" y1="17.1514" x2="55.4314" y2="17.1514" gradientUnits="userSpaceOnUse">
<stop stop-color="#ED1C24"/>
<stop offset="0.00503" stop-color="#ED1C24"/>
<stop offset="1" stop-color="#E75C5B"/>
</linearGradient>
<linearGradient id="paint5_linear_402_4340" x1="143.549" y1="48.1363" x2="162.261" y2="15.2523" gradientUnits="userSpaceOnUse">
<stop stop-color="#52CC9F" stop-opacity="0.9"/>
<stop offset="0.995" stop-color="#43B088"/>
</linearGradient>
<linearGradient id="paint6_linear_402_4340" x1="116.01" y1="51.6362" x2="131.349" y2="24.6789" gradientUnits="userSpaceOnUse">
<stop stop-color="#53C197"/>
<stop offset="0.96" stop-color="#4DBC94"/>
</linearGradient>
<linearGradient id="paint7_linear_402_4340" x1="124.2" y1="27.7178" x2="127.448" y2="22.0089" gradientUnits="userSpaceOnUse">
<stop stop-color="#5DCCA4"/>
<stop offset="1" stop-color="#52C096"/>
</linearGradient>
<linearGradient id="paint8_linear_402_4340" x1="5361.56" y1="18004" x2="7301.45" y2="16519" gradientUnits="userSpaceOnUse">
<stop stop-color="#5DCCA4"/>
<stop offset="1" stop-color="#52C096"/>
</linearGradient>
<linearGradient id="paint9_linear_402_4340" x1="4663.53" y1="17191.5" x2="6593.09" y2="15701.9" gradientUnits="userSpaceOnUse">
<stop stop-color="#52CC9F" stop-opacity="0.9"/>
<stop offset="0.995" stop-color="#43B088"/>
</linearGradient>
<linearGradient id="paint10_linear_402_4340" x1="124.078" y1="48.5831" x2="140.825" y2="19.1513" gradientUnits="userSpaceOnUse">
<stop stop-color="#52C096"/>
<stop offset="0.427" stop-color="#5DCCA4"/>
</linearGradient>
<linearGradient id="paint11_linear_402_4340" x1="242.346" y1="407.517" x2="243.652" y2="407.517" gradientUnits="userSpaceOnUse">
<stop stop-color="#5DCCA4"/>
<stop offset="1" stop-color="#52C096"/>
</linearGradient>
<linearGradient id="paint12_linear_402_4340" x1="65.6028" y1="13170.6" x2="1170.87" y2="12340.4" gradientUnits="userSpaceOnUse">
<stop stop-color="#52CC9F" stop-opacity="0.9"/>
<stop offset="0.995" stop-color="#43B088"/>
</linearGradient>
<linearGradient id="paint13_linear_402_4340" x1="1262.48" y1="17709" x2="3356.48" y2="14738.3" gradientUnits="userSpaceOnUse">
<stop stop-color="#52CC9F" stop-opacity="0.9"/>
<stop offset="0.995" stop-color="#43B088"/>
</linearGradient>
<linearGradient id="paint14_linear_402_4340" x1="242.346" y1="407.517" x2="243.652" y2="407.517" gradientUnits="userSpaceOnUse">
<stop stop-color="#5DCCA4"/>
<stop offset="1" stop-color="#52C096"/>
</linearGradient>
<clipPath id="clip0_402_4340">
<rect width="62.6368" height="56.0435" fill="white" transform="translate(7.81055 5.19995)"/>
</clipPath>
<clipPath id="clip1_402_4340">
<rect width="54.1204" height="47.494" fill="white" transform="translate(12.0684 9.45801)"/>
</clipPath>
</defs>
</svg>
