<svg width="130" height="46" fill="none" xmlns="http://www.w3.org/2000/svg"><path fill-rule="evenodd" clip-rule="evenodd" d="M73.91 36.57c-1.276 0-2.414-.345-3.392-1.023a4.99 4.99 0 0 1-1.943-2.795l2.277-.391a4.598 4.598 0 0 0 1.276 1.553c.472.333 1.07.494 1.806.494.69 0 1.23-.15 1.667-.46a1.482 1.482 0 0 0 .667-1.265c0-.402-.115-.724-.368-.989a2.785 2.785 0 0 0-.943-.667 16.65 16.65 0 0 0-1.518-.575 17.346 17.346 0 0 1-2.15-.84 4.22 4.22 0 0 1-1.46-1.241 3.576 3.576 0 0 1-.576-2.128c0-.805.184-1.495.575-2.081a3.886 3.886 0 0 1 1.633-1.38c.69-.311 1.45-.472 2.3-.472 1.196 0 2.231.31 3.105.943.851.633 1.46 1.495 1.817 2.599l-2.242.368a2.968 2.968 0 0 0-1.035-1.3c-.449-.299-.966-.448-1.564-.448-.621 0-1.139.15-1.553.437-.425.288-.632.69-.632 1.219 0 .391.115.713.345.977.253.265.575.483.954.656.38.172.885.368 1.53.587.873.299 1.598.598 2.15.885.575.287 1.035.713 1.438 1.265a3.45 3.45 0 0 1 .609 2.104c0 .806-.218 1.495-.644 2.105-.425.598-1 1.058-1.725 1.392a6.015 6.015 0 0 1-2.403.471zm-20.814-.196h2.76l-3.842-5.278c1.035-.253 1.864-.759 2.473-1.506.633-.76.943-1.657.943-2.692 0-.862-.207-1.61-.632-2.265a4.198 4.198 0 0 0-1.737-1.552 5.497 5.497 0 0 0-2.53-.575h-5.106v13.868h2.358V31.28h1.667l3.645 5.094zm-5.313-7.256v-4.45h2.748c.724 0 1.323.207 1.783.632.46.402.701.931.701 1.598 0 .656-.23 1.185-.701 1.61-.46.403-1.059.61-1.783.61h-2.76.011zm11.615 6.9a3.622 3.622 0 0 0 3.68.103 3.67 3.67 0 0 0 1.3-1.288l.46 1.541h1.678V26.14h-2.254v5.923c0 .724-.218 1.323-.644 1.794-.437.46-.977.69-1.633.69a2.07 2.07 0 0 1-1.587-.69c-.402-.46-.61-1.058-.61-1.794V26.14h-2.253v6.175c0 .817.16 1.541.483 2.185.345.644.805 1.15 1.38 1.518zm27.52.345.195-1.955H85.02c-.76 0-1.15-.38-1.15-1.15v-5.152h3.047v-1.955h-3.036v-2.956h-1.69l-.575 2.945h-1.668v1.977h1.668v5.152c0 1.001.287 1.783.862 2.312.575.529 1.426.793 2.53.793h1.91v-.011zm6.842.207c-1.047 0-1.99-.23-2.83-.667a5.083 5.083 0 0 1-1.943-1.886c-.46-.817-.69-1.725-.69-2.76 0-1.024.23-1.932.69-2.737a4.899 4.899 0 0 1 1.955-1.886c.828-.46 1.771-.69 2.818-.69 1.035 0 1.978.23 2.806.69a4.753 4.753 0 0 1 1.943 1.898c.46.793.701 1.701.701 2.725 0 1.035-.23 1.943-.7 2.76a4.9 4.9 0 0 1-1.956 1.886c-.805.449-1.748.667-2.794.667zm0-2.07c.92 0 1.656-.288 2.23-.886.576-.597.863-1.38.863-2.357 0-.966-.287-1.748-.862-2.335a2.956 2.956 0 0 0-2.231-.908c-.92 0-1.668.299-2.243.909-.575.586-.862 1.368-.862 2.334 0 .977.287 1.76.862 2.357.575.599 1.323.886 2.243.886zm9.292-8.36h-1.679v10.234h2.254v-6.037c0-1.357.667-2.024 2.001-2.024h1.299l-.207-2.173h-.425c-.644 0-1.196.114-1.645.345-.448.218-.839.598-1.161 1.138l-.437-1.483zm15.168 5.002-.034.724h-8.211c.115.806.437 1.45.989 1.932a3.104 3.104 0 0 0 2.093.702c.575 0 1.092-.115 1.552-.334.472-.218.828-.517 1.081-.896l2.116.344a4.196 4.196 0 0 1-1.897 2.186c-.91.519-1.943.785-2.99.77-1.012 0-1.932-.23-2.749-.667a5.009 5.009 0 0 1-1.874-1.886c-.449-.805-.667-1.725-.667-2.76 0-1.024.23-1.932.667-2.726a4.83 4.83 0 0 1 1.874-1.897c.817-.46 1.725-.69 2.76-.69 1.012 0 1.921.23 2.714.69a4.701 4.701 0 0 1 1.886 1.875c.46.782.69 1.667.69 2.633zm-5.29-3.22a2.84 2.84 0 0 0-1.794.575c-.494.402-.839.931-1.023 1.61h5.658a3.031 3.031 0 0 0-1.058-1.575 2.727 2.727 0 0 0-1.794-.61h.011z" fill="#fff"/><path d="M45.425 18.63v-3.128h.23a.92.92 0 0 0 .633-.23c.16-.15.299-.402.414-.782a8.044 8.044 0 0 0 .287-1.575l.437-4.405h4.991v6.992h1.207v3.105h-1.207V16.56h-5.796v2.047h-1.196v.023zm2.047-3.128h3.715V9.58h-2.645l-.346 3.403c-.057.69-.149 1.231-.264 1.61-.115.368-.265.645-.46.851v.058zm9.855 1.219c-.563 0-1.057-.127-1.483-.391a2.553 2.553 0 0 1-.977-1.092c-.23-.483-.345-1.047-.345-1.691 0-.644.114-1.196.345-1.679.23-.472.552-.84.977-1.093.426-.264.92-.39 1.495-.39.552 0 1.047.126 1.46.39.426.253.76.621.99 1.093.23.471.344 1.035.344 1.679 0 .644-.114 1.207-.344 1.69-.23.46-.564.84-.99 1.093-.413.265-.908.391-1.471.391zm0-1.012c.495 0 .886-.184 1.174-.575.276-.38.413-.92.413-1.587 0-.679-.138-1.196-.413-1.587a1.38 1.38 0 0 0-1.173-.575c-.495 0-.886.196-1.162.575-.287.391-.425.92-.425 1.587 0 .678.138 1.207.425 1.598.276.38.667.575 1.162.575v-.011zm6.808 1.012c-.575 0-1.069-.127-1.494-.391a2.553 2.553 0 0 1-.978-1.092c-.23-.483-.345-1.035-.345-1.68 0-.643.115-1.207.345-1.69.23-.472.552-.84.966-1.093.425-.264.92-.39 1.506-.39.644 0 1.185.16 1.622.46.46.31.747.758.885 1.322h-1.218a1.288 1.288 0 0 0-1.254-.77c-.517 0-.92.184-1.208.575-.287.379-.425.908-.425 1.587 0 .678.138 1.207.425 1.587.288.379.69.574 1.22.574.322 0 .597-.08.839-.23.238-.15.41-.383.483-.655h1.219a2.276 2.276 0 0 1-.92 1.38c-.46.345-1.012.506-1.668.506zm6.371-.15h-1.184v-5.037h-1.955v-1h5.106v1.012h-1.978v5.014l.011.012zm7.177-6.037h1.195l-2.219 6.498c-.16.483-.345.862-.54 1.115-.175.249-.42.44-.702.552-.287.115-.656.161-1.127.161h-.46v-1.035h.495c.252 0 .46-.034.598-.08.14-.055.26-.151.344-.277.123-.179.223-.372.3-.575l.057-.172-2.472-6.187h1.264l1.725 4.6h.058l1.472-4.6h.012zm3.61 6.037h-1.172v-6.037h4.945v6.037H83.88v-5.037h-2.587v5.037zm9.511-3.565v-2.472h1.173v6.037h-1.173v-2.564h-2.68v2.565h-1.172v-6.038h1.172v2.473h2.68zm5.531 3.715c-.563 0-1.057-.127-1.483-.391a2.553 2.553 0 0 1-.978-1.092c-.23-.483-.344-1.047-.344-1.691 0-.644.114-1.196.344-1.679.23-.472.553-.84.978-1.093.426-.264.92-.39 1.495-.39.575 0 1.047.126 1.472.39.425.253.748.621.978 1.093.23.471.344 1.035.344 1.679 0 .644-.114 1.207-.344 1.69-.23.46-.552.84-.978 1.093-.425.265-.92.391-1.484.391zm0-1c.495 0 .886-.196 1.174-.575.275-.392.414-.92.414-1.61 0-.668-.139-1.185-.415-1.576a1.38 1.38 0 0 0-1.172-.575c-.495 0-.886.196-1.162.575-.287.391-.425.92-.425 1.587 0 .678.138 1.207.425 1.598.276.38.667.575 1.161.575zm11.156-2.323c.713.23 1.069.713 1.069 1.425 0 .53-.195.966-.575 1.277-.391.322-.92.471-1.575.471h-2.703v-6.037h2.645c.598 0 1.093.15 1.449.437.38.276.575.655.575 1.115.007.272-.074.538-.23.76a1.45 1.45 0 0 1-.644.494v.058h-.011zm-2.611-1.91v1.495h1.438c.276 0 .483-.057.632-.195a.696.696 0 0 0 .23-.552.68.68 0 0 0-.23-.552.92.92 0 0 0-.632-.207h-1.438v.011zm1.507 4.14c.263.015.522-.071.724-.241a.802.802 0 0 0 .276-.644.773.773 0 0 0-.276-.633 1.036 1.036 0 0 0-.724-.23h-1.507v1.748h1.507z" fill="#fff"/><path d="M11.143 34.856c1.932 1.944 5.06 1.944 11.305 1.944h1.104c6.244 0 9.372 0 11.304-1.944 1.944-1.931 1.944-5.06 1.944-11.304v-1.104c0-6.245 0-9.373-1.944-11.305C32.924 9.2 29.796 9.2 23.552 9.2h-1.104c-6.245 0-9.373 0-11.305 1.944C9.2 13.075 9.2 16.203 9.2 22.447v1.104c0 6.245 0 9.361 1.944 11.304z" fill="#3375F6"/><path fill-rule="evenodd" clip-rule="evenodd" d="m30.532 27.554-1.874-.46a.54.54 0 0 1-.391-.506l-.23-6.877a2.139 2.139 0 0 0-1.449-1.84.091.091 0 0 0-.115.035.08.08 0 0 0 .023.103c.173.138.655.575.655 1.334v8.993c0 .863-.816 1.495-1.667 1.288l-1.898-.471a.54.54 0 0 1-.367-.495l-.23-6.877a2.139 2.139 0 0 0-1.45-1.84.091.091 0 0 0-.115.035.081.081 0 0 0 0 .092.082.082 0 0 0 .024.022c.172.116.655.576.655 1.323v8.993c0 .874-.817 1.495-1.668 1.3l-5.37-1.346a1.668 1.668 0 0 1-1.265-1.61v-9.005a1.34 1.34 0 0 1 1.667-1.299l3.382.84v-1.61c0-.874.816-1.518 1.667-1.3l3.381.84v-1.622c0-.874.828-1.495 1.668-1.3l5.37 1.346a1.667 1.667 0 0 1 1.265 1.61v9.016c0 .863-.817 1.495-1.668 1.288z" fill="#fff"/></svg>