<svg width="130" height="46" fill="none" xmlns="http://www.w3.org/2000/svg"><g clip-path="url(#a)"><path fill-rule="evenodd" clip-rule="evenodd" d="M73.911 36.57c-1.276 0-2.415-.345-3.392-1.024a4.99 4.99 0 0 1-1.944-2.794l2.277-.391a4.598 4.598 0 0 0 1.277 1.552c.471.334 1.07.495 1.805.495.69 0 1.23-.15 1.668-.46a1.485 1.485 0 0 0 .667-1.265c0-.403-.115-.725-.368-.99a2.784 2.784 0 0 0-.943-.666 16.609 16.609 0 0 0-1.518-.575 17.362 17.362 0 0 1-2.15-.84 4.22 4.22 0 0 1-1.461-1.242 3.576 3.576 0 0 1-.575-2.127c0-.805.184-1.495.575-2.082a3.887 3.887 0 0 1 1.633-1.38c.69-.31 1.449-.471 2.3-.471 1.196 0 2.23.31 3.105.943.85.632 1.46 1.495 1.817 2.599l-2.243.368a2.967 2.967 0 0 0-1.035-1.3c-.448-.299-.966-.448-1.564-.448-.62 0-1.138.15-1.552.437-.426.287-.633.69-.633 1.219 0 .39.115.713.345.977.253.265.575.483.955.656.38.172.885.368 1.53.586.873.3 1.598.598 2.15.886.575.287 1.035.713 1.437 1.265a3.45 3.45 0 0 1 .61 2.104c0 .805-.219 1.495-.644 2.105-.426.598-1 1.058-1.725 1.391a6.015 6.015 0 0 1-2.404.472zm-20.815-.196h2.76l-3.84-5.278c1.034-.253 1.862-.76 2.472-1.507.632-.759.943-1.656.943-2.69 0-.863-.207-1.61-.633-2.266a4.198 4.198 0 0 0-1.736-1.553 5.498 5.498 0 0 0-2.53-.575h-5.106v13.87h2.357V31.28h1.668l3.645 5.094zm-5.313-7.256v-4.45h2.749c.724 0 1.322.206 1.782.632.46.402.702.931.702 1.598 0 .656-.23 1.185-.702 1.61-.46.403-1.058.61-1.782.61h-2.76.011zm11.615 6.9a3.622 3.622 0 0 0 3.68.103 3.668 3.668 0 0 0 1.3-1.288l.46 1.541h1.679V26.14h-2.254v5.923c0 .724-.219 1.322-.644 1.794-.437.46-.978.69-1.633.69a2.07 2.07 0 0 1-1.587-.69c-.403-.46-.61-1.058-.61-1.794v-5.923h-2.254v6.176c0 .816.161 1.54.483 2.185.345.644.805 1.15 1.38 1.518zm27.52.345.195-1.955H85.02c-.759 0-1.15-.38-1.15-1.15v-5.152h3.048V26.15h-3.036v-2.956h-1.69l-.576 2.944H79.95v1.978h1.667v5.152c0 1 .288 1.783.863 2.312.575.529 1.426.793 2.53.793h1.909v-.011zm6.842.207c-1.046 0-1.99-.23-2.829-.667a5.082 5.082 0 0 1-1.943-1.886c-.46-.817-.69-1.725-.69-2.76 0-1.024.23-1.932.69-2.737a4.898 4.898 0 0 1 1.955-1.886c.828-.46 1.77-.69 2.817-.69 1.035 0 1.978.23 2.806.69a4.753 4.753 0 0 1 1.944 1.897c.46.794.701 1.702.701 2.726 0 1.035-.23 1.943-.701 2.76a4.9 4.9 0 0 1-1.955 1.886c-.805.448-1.748.667-2.795.667zm0-2.07c.92 0 1.656-.288 2.231-.886.575-.598.863-1.38.863-2.357 0-.966-.288-1.748-.863-2.335a2.955 2.955 0 0 0-2.23-.908c-.92 0-1.668.299-2.243.908-.575.587-.863 1.369-.863 2.335 0 .977.288 1.76.863 2.357.575.598 1.322.886 2.242.886zm9.292-8.36h-1.679v10.234h2.254v-6.037c0-1.357.667-2.024 2.001-2.024h1.3l-.207-2.174h-.426c-.644 0-1.196.115-1.644.345-.449.219-.84.598-1.162 1.139l-.437-1.484zm15.169 5.002-.035.724h-8.211c.115.805.437 1.45.989 1.932a3.105 3.105 0 0 0 2.093.702c.575 0 1.093-.115 1.553-.334.471-.218.828-.517 1.081-.897l2.116.345a4.199 4.199 0 0 1-1.898 2.185c-.91.52-1.942.786-2.99.77-1.012 0-1.932-.23-2.748-.666a5.019 5.019 0 0 1-1.875-1.886c-.448-.805-.667-1.725-.667-2.76 0-1.024.23-1.932.667-2.726a4.833 4.833 0 0 1 1.875-1.897c.816-.46 1.725-.69 2.76-.69 1.012 0 1.92.23 2.714.69a4.701 4.701 0 0 1 1.886 1.874c.46.782.69 1.668.69 2.634zm-5.29-3.22a2.84 2.84 0 0 0-1.794.575c-.495.402-.84.931-1.024 1.61h5.658a3.02 3.02 0 0 0-1.058-1.576 2.725 2.725 0 0 0-1.794-.61h.012z" fill="#fff"/><path d="M45.426 18.63v-3.128h.23a.92.92 0 0 0 .632-.23c.161-.15.3-.403.414-.782a8.053 8.053 0 0 0 .288-1.576l.437-4.404h4.99v6.992h1.208v3.105h-1.207V16.56h-5.796v2.047h-1.196v.023zm2.047-3.128h3.714V9.579h-2.645l-.345 3.404c-.057.69-.15 1.23-.264 1.61-.115.368-.265.644-.46.851v.058zm9.855 1.219c-.563 0-1.058-.127-1.483-.391a2.553 2.553 0 0 1-.978-1.093c-.23-.483-.345-1.046-.345-1.69 0-.644.115-1.196.345-1.68.23-.47.552-.839.978-1.092.425-.264.92-.39 1.495-.39.552 0 1.046.126 1.46.39.426.253.76.621.99 1.093.23.471.344 1.035.344 1.679 0 .644-.115 1.207-.345 1.69-.23.46-.563.84-.989 1.093-.414.264-.908.39-1.472.39zm0-1.012c.495 0 .886-.184 1.173-.575.276-.38.414-.92.414-1.587 0-.679-.138-1.196-.414-1.587a1.38 1.38 0 0 0-1.173-.575c-.494 0-.885.195-1.161.575-.288.39-.426.92-.426 1.587 0 .678.138 1.207.426 1.598.276.38.667.575 1.161.575v-.011zm6.808 1.012c-.575 0-1.07-.127-1.495-.391a2.553 2.553 0 0 1-.977-1.093c-.23-.483-.345-1.035-.345-1.679 0-.644.115-1.207.345-1.69.23-.472.552-.84.966-1.093.425-.264.92-.39 1.506-.39.644 0 1.185.16 1.622.46.46.31.747.758.885 1.322h-1.219a1.288 1.288 0 0 0-1.253-.77c-.518 0-.92.183-1.208.574-.287.38-.425.909-.425 1.587 0 .679.138 1.208.425 1.587.288.38.69.575 1.22.575.321 0 .597-.08.839-.23.238-.15.41-.384.483-.655h1.219a2.277 2.277 0 0 1-.92 1.38c-.46.345-1.012.506-1.668.506zm6.371-.15h-1.184v-5.037h-1.955v-1h5.106v1.012h-1.978v5.014l.011.011zm7.176-6.037h1.196l-2.22 6.497c-.16.483-.344.863-.54 1.116-.174.248-.418.44-.701.552-.288.115-.656.16-1.127.16h-.46v-1.034h.494c.253 0 .46-.035.598-.08a.737.737 0 0 0 .345-.277c.122-.179.223-.372.3-.575l.057-.172-2.473-6.187h1.265l1.725 4.6h.058l1.472-4.6h.011zm3.611 6.037h-1.173v-6.037h4.945v6.037h-1.184v-5.037h-2.588v5.037zm9.51-3.565v-2.472h1.174v6.037h-1.173v-2.564h-2.68v2.564h-1.173v-6.037h1.173v2.472h2.68zm5.532 3.715c-.563 0-1.058-.127-1.483-.391a2.553 2.553 0 0 1-.978-1.093c-.23-.483-.345-1.046-.345-1.69 0-.644.115-1.196.345-1.68.23-.47.552-.839.978-1.092.425-.264.92-.39 1.495-.39.575 0 1.046.126 1.472.39.425.253.747.621.977 1.093.23.471.345 1.035.345 1.679 0 .644-.115 1.207-.345 1.69-.23.46-.552.84-.977 1.093-.426.264-.92.39-1.484.39zm0-1c.495 0 .886-.196 1.173-.576.276-.39.414-.92.414-1.61 0-.667-.138-1.184-.414-1.575a1.38 1.38 0 0 0-1.173-.575c-.494 0-.885.195-1.161.575-.288.39-.426.92-.426 1.587 0 .678.138 1.207.426 1.598.276.38.667.575 1.161.575zm11.155-2.324c.713.23 1.07.713 1.07 1.426 0 .53-.196.966-.575 1.277-.391.322-.92.471-1.576.471h-2.702v-6.037h2.645c.598 0 1.092.15 1.449.437.379.276.575.655.575 1.115a1.27 1.27 0 0 1-.23.76 1.45 1.45 0 0 1-.644.494v.057h-.012zm-2.61-1.909v1.495h1.437c.276 0 .483-.057.633-.195a.697.697 0 0 0 .23-.552.695.695 0 0 0-.23-.552.92.92 0 0 0-.633-.207h-1.437v.011zm1.506 4.14c.264.015.523-.071.725-.241a.815.815 0 0 0 .276-.644.772.772 0 0 0-.276-.633 1.037 1.037 0 0 0-.725-.23h-1.506v1.748h1.506z" fill="#fff"/><path d="M11.143 34.857c1.932 1.943 5.06 1.943 11.304 1.943h1.104c6.245 0 9.373 0 11.305-1.943 1.943-1.932 1.943-5.06 1.943-11.305v-1.104c0-6.244 0-9.372-1.943-11.304C32.924 9.2 29.796 9.2 23.55 9.2h-1.104c-6.244 0-9.372 0-11.304 1.944-1.944 1.932-1.944 5.06-1.944 11.304v1.104c0 6.245 0 9.361 1.944 11.305z" fill="#3375F6"/><path fill-rule="evenodd" clip-rule="evenodd" d="m30.533 27.554-1.874-.46a.54.54 0 0 1-.391-.506l-.23-6.877a2.14 2.14 0 0 0-1.45-1.84.093.093 0 0 0-.114.034.08.08 0 0 0 .023.104c.172.138.655.575.655 1.334v8.993c0 .862-.816 1.495-1.667 1.288l-1.898-.472a.54.54 0 0 1-.368-.494l-.23-6.877a2.14 2.14 0 0 0-1.449-1.84.093.093 0 0 0-.128.064.081.081 0 0 0 .013.063.08.08 0 0 0 .023.022c.173.115.656.575.656 1.323v8.993c0 .874-.817 1.495-1.668 1.3l-5.37-1.346a1.668 1.668 0 0 1-1.265-1.61v-9.005a1.34 1.34 0 0 1 1.667-1.3l3.381.84v-1.61c0-.874.817-1.518 1.668-1.3l3.38.84v-1.621c0-.874.829-1.495 1.668-1.3l5.37 1.346a1.668 1.668 0 0 1 1.266 1.61v9.016c0 .862-.817 1.495-1.668 1.288z" fill="#fff"/></g><defs><clipPath id="a"><path fill="#fff" d="M0 0h130v46H0z"/></clipPath></defs></svg>